<?xml version="1.0" encoding="UTF-8" standalone="no"?>
<svg
   viewBox="0 0 64 64"
   version="1.1"
   id="svg879"
   sodipodi:docname="41.svg"
   inkscape:version="1.2.2 (732a01da63, 2022-12-09)"
   xmlns:inkscape="http://www.inkscape.org/namespaces/inkscape"
   xmlns:sodipodi="http://sodipodi.sourceforge.net/DTD/sodipodi-0.dtd"
   xmlns="http://www.w3.org/2000/svg"
   xmlns:svg="http://www.w3.org/2000/svg">
  <sodipodi:namedview
     id="namedview881"
     pagecolor="#505050"
     bordercolor="#ffffff"
     borderopacity="1"
     inkscape:showpageshadow="0"
     inkscape:pageopacity="0"
     inkscape:pagecheckerboard="1"
     inkscape:deskcolor="#505050"
     showgrid="false"
     inkscape:zoom="15.65625"
     inkscape:cx="30.339321"
     inkscape:cy="32"
     inkscape:window-width="2560"
     inkscape:window-height="1377"
     inkscape:window-x="2992"
     inkscape:window-y="-8"
     inkscape:window-maximized="1"
     inkscape:current-layer="svg879" />
  <defs
     id="defs851">
    <clipPath
       id="a">
      <path
         fill="none"
         d="M12 35l-5.28-4.21-2-6 1-7 4-5 5-3h6l5 1 3 3L33 20l-6 4h-6l-3 3v4l-4 2-2 2z"
         id="path848" />
    </clipPath>
  </defs>
  <g
     clip-path="url(#a)"
     id="g857">
    <g
       id="g855">
      <path
         fill="none"
         stroke="#f59e0b"
         stroke-linecap="round"
         stroke-miterlimit="10"
         stroke-width="2"
         d="M23.5 24a4.5 4.5 0 11-4.5-4.5 4.49 4.49 0 014.5 4.5zM19 15.67V12.5m0 23v-3.17m5.89-14.22l2.24-2.24M10.87 32.13l2.24-2.24m0-11.78l-2.24-2.24m16.26 16.26l-2.24-2.24M7.5 24h3.17m19.83 0h-3.17"
         id="path853" />
      <animateTransform
         attributeName="transform"
         dur="45s"
         from="0 19 24"
         repeatCount="indefinite"
         to="360 19 24"
         type="rotate" />
    </g>
  </g>
  <path
     fill="none"
     stroke="#e5e7eb"
     stroke-linecap="round"
     stroke-linejoin="round"
     stroke-width="3"
     d="M43.67 45.5h2.83a7 7 0 000-14h-.32a10.49 10.49 0 00-19.11-8 7 7 0 00-10.57 6 7.21 7.21 0 00.1 1.14A7.5 7.5 0 0018 45.5a4.19 4.19 0 00.5 0v0"
     id="path859" />
  <g
     id="g865">
    <circle
       cx="31"
       cy="45"
       r="1.25"
       fill="none"
       stroke="#72b8d4"
       stroke-miterlimit="10"
       id="circle861" />
    <path
       fill="none"
       stroke="#72b8d4"
       stroke-linecap="round"
       stroke-miterlimit="10"
       d="M33.17 46.25l-1.09-.63m-2.16-1.24l-1.09-.63M31 42.5v1.25m0 3.75v-1.25m-1.08-.63l-1.09.63m4.34-2.5l-1.09.63"
       id="path863" />
    <animateTransform
       additive="sum"
       attributeName="transform"
       dur="4s"
       repeatCount="indefinite"
       type="translate"
       values="-1 -6; 1 12" />
    <animateTransform
       additive="sum"
       attributeName="transform"
       dur="9s"
       repeatCount="indefinite"
       type="rotate"
       values="0 31 45; 360 31 45" />
    <animate
       attributeName="opacity"
       dur="4s"
       repeatCount="indefinite"
       values="0;1;1;1;0" />
  </g>
</svg>
