<?xml version="1.0" encoding="UTF-8"?>
<svg width="50px" height="50px" viewBox="0 0 50 50" version="1.1" xmlns="http://www.w3.org/2000/svg" xmlns:xlink="http://www.w3.org/1999/xlink">
    <!-- Generator: Sketch 43.2 (39069) - http://www.bohemiancoding.com/sketch -->
    <title>add-observation-icon</title>
    <desc>Created with Sketch.</desc>
    <defs></defs>
    <g id="layouts" stroke="none" stroke-width="1" fill="none" fill-rule="evenodd">
        <g id="add-observation-icon" fill="#FFFFFF">
            <g id="icon" transform="translate(10.000000, 10.000000)">
                <path d="M21.1351357,5.51650055 C21.1366943,9.43626896 24.2060631,12.6388004 28.0725545,12.8534074 L29.8788108,15.5598378 L30.0751892,15.8542162 C30.7797297,16.9681622 31.1895135,18.2860541 31.1895135,19.6985405 C31.1895135,23.6768108 27.9532432,26.9130811 23.9753514,26.9130811 C20.1927027,26.9130811 17.0831892,23.9863243 16.7608108,20.3156757 L16.7653514,19.8684324 C16.7638378,19.8116757 16.7608108,19.7556757 16.7608108,19.6985405 C16.7608108,19.5732973 16.7642162,19.4488108 16.7706486,19.3247027 L16.792973,17.0578378 C16.792973,17.0578378 16.2267006,16.9441081 15.6216216,16.9441081 C15.0165426,16.9441081 14.3965405,17.0578378 14.3965405,17.0578378 L14.4188649,19.3247027 C14.4249189,19.4488108 14.4283243,19.5732973 14.4283243,19.6985405 C14.4283243,19.7556757 14.4252973,19.8116757 14.4241622,19.8684324 L14.402973,20.278973 C14.1063243,23.9863243 10.9964324,26.9130811 7.21416216,26.9130811 C3.23627027,26.9130811 0,23.6768108 0,19.6985405 C0,18.2860541 0.409405405,16.9681622 1.11432432,15.8538378 C1.17713514,15.7543243 1.24297297,15.6563243 1.3107027,15.5598378 L6.40443243,7.93437838 C7.0787027,6.50524324 8.52864865,5.51351351 10.2139459,5.51351351 C12.5417297,5.51351351 14.4283243,7.40048649 14.4283243,9.72789189 C14.4283243,10.034 14.3382703,11.1407568 14.3382703,11.1407568 C14.3382703,11.1407568 14.9996657,11.027027 15.6216216,11.027027 C16.2435775,11.027027 16.8512432,11.1407568 16.8512432,11.1407568 C16.8512432,11.1407568 16.7608108,10.034 16.7608108,9.72789189 C16.7608108,7.40048649 18.6477838,5.51351351 20.9751892,5.51351351 C21.0287481,5.51351351 21.0820694,5.51451514 21.1351357,5.51650055 L21.1351357,5.51650055 Z M7.35135135,25.0860967 C10.3898103,25.0860967 12.8648649,22.6111319 12.8648649,19.5729723 C12.8648649,16.5344684 10.3898552,14.0594588 7.35135135,14.0594588 C4.31284748,14.0594588 1.83783784,16.5344684 1.83783784,19.5729723 C1.83783784,22.6111319 4.31289238,25.0860967 7.35135135,25.0860967 Z M23.8918919,25.0860967 C26.9303509,25.0860967 29.4054054,22.6111319 29.4054054,19.5729723 C29.4054054,16.5344684 26.9303958,14.0594588 23.8918919,14.0594588 C20.853388,14.0594588 18.3783784,16.5344684 18.3783784,19.5729723 C18.3783784,22.6111319 20.8534329,25.0860967 23.8918919,25.0860967 Z" id="Combined-Shape"></path>
                <path d="M28.4864865,11.027027 C25.4414571,11.027027 22.972973,8.55854294 22.972973,5.51351351 C22.972973,2.46848408 25.4414571,0 28.4864865,0 C31.5315159,0 34,2.46848408 34,5.51351351 C34,8.55854294 31.5315159,11.027027 28.4864865,11.027027 Z M29.0990991,4.9009009 L29.0990991,2.45045045 C29.0990991,2.11211385 28.8248231,1.83783784 28.4864865,1.83783784 C28.1481499,1.83783784 27.8738739,2.11211385 27.8738739,2.45045045 L27.8738739,4.9009009 L25.4234234,4.9009009 C25.0850868,4.9009009 24.8108108,5.17517691 24.8108108,5.51351351 C24.8108108,5.85185012 25.0850868,6.12612613 25.4234234,6.12612613 L27.8738739,6.12612613 L27.8738739,8.57657658 C27.8738739,8.91491318 28.1481499,9.18918919 28.4864865,9.18918919 C28.8248231,9.18918919 29.0990991,8.91491318 29.0990991,8.57657658 L29.0990991,6.12612613 L31.5495495,6.12612613 C31.8878862,6.12612613 32.1621622,5.85185012 32.1621622,5.51351351 C32.1621622,5.17517691 31.8878862,4.9009009 31.5495495,4.9009009 L29.0990991,4.9009009 Z" id="Combined-Shape"></path>
            </g>
        </g>
    </g>
</svg>