<?xml version="1.0" encoding="UTF-8"?>
<svg width="80px" height="80px" viewBox="0 0 80 80" version="1.1" xmlns="http://www.w3.org/2000/svg" xmlns:xlink="http://www.w3.org/1999/xlink">
    <!-- Generator: Sketch 49.3 (51167) - http://www.bohemiancoding.com/sketch -->
    <title>add-image</title>
    <desc>Created with Sketch.</desc>
    <defs></defs>
    <g id="add-image" stroke="none" stroke-width="1" fill="none" fill-rule="evenodd">
        <g id="add-icon" transform="translate(19.000000, 17.000000)" fill="#3559B9">
            <path d="M30,9 L30,10 L2,10 C1.44771525,10 1,10.4477153 1,11 L1,37 C1,37.5522847 1.44771525,38 2,38 L38,38 C38.5522847,38 39,37.5522847 39,37 L39,19 L40,19 L40,37 C40,38.1045695 39.1045695,39 38,39 L2,39 C0.8954305,39 1.3527075e-16,38.1045695 0,37 L0,11 C-1.3527075e-16,9.8954305 0.8954305,9 2,9 L30,9 Z" id="Path"></path>
            <path d="M39.5,18 C44.1944204,18 48,14.1944204 48,9.5 C48,4.80557963 44.1944204,1 39.5,1 C34.8055796,1 31,4.80557963 31,9.5 C31,14.1944204 34.8055796,18 39.5,18 Z M39.5,19 C34.2532949,19 30,14.7467051 30,9.5 C30,4.25329488 34.2532949,0 39.5,0 C44.7467051,0 49,4.25329488 49,9.5 C49,14.7467051 44.7467051,19 39.5,19 Z" id="Oval-4" fill-rule="nonzero"></path>
            <rect id="Rectangle-6" x="39" y="5" width="1" height="9" rx="0.5"></rect>
            <rect id="Rectangle-6" x="35" y="9" width="9" height="1" rx="0.5"></rect>
            <rect id="Rectangle-4" x="0" y="31" width="40" height="1"></rect>
            <rect id="Rectangle-5" x="3" y="34" width="14" height="1" rx="0.5"></rect>
            <rect id="Rectangle-5" x="19" y="34" width="5.5" height="1" rx="0.5"></rect>
            <path d="M9.5,23 C7.01471863,23 5,20.9852814 5,18.5 C5,16.0147186 7.01471863,14 9.5,14 C11.9852814,14 14,16.0147186 14,18.5 C14,20.9852814 11.9852814,23 9.5,23 Z M9.5,22 C11.4329966,22 13,20.4329966 13,18.5 C13,16.5670034 11.4329966,15 9.5,15 C7.56700338,15 6,16.5670034 6,18.5 C6,20.4329966 7.56700338,22 9.5,22 Z" id="Oval-3" fill-rule="nonzero"></path>
            <path d="M28.8137335,20.8596919 C28.7495938,20.7698964 28.6710337,20.6913363 28.5812382,20.6271966 C28.1318256,20.3061876 27.5072755,20.4102793 27.1862665,20.8596919 L19.9431893,31 L36.0568107,31 L28.8137335,20.8596919 Z M38,32 L18,32 L26.3725331,20.2784537 C27.014551,19.3796285 28.2636512,19.1714452 29.1624764,19.8134632 C29.3420674,19.9417425 29.4991876,20.0988627 29.6274669,20.2784537 L38,32 Z" id="Triangle" fill-rule="nonzero"></path>
            <path d="M18.2233067,25.7673053 C18.566641,25.3347085 19.1956574,25.2623469 19.6282542,25.6056812 C19.7092216,25.6699417 19.7797361,25.7463676 19.8372848,25.8322353 L21.1693077,27.8197296 L22,27.2629979 L20.6679772,25.2755036 C20.5528796,25.103768 20.4118508,24.9509164 20.249916,24.8223954 C19.3847223,24.1357268 18.1266894,24.2804499 17.4400208,25.1456436 L12.7936589,31 L14.0703321,31 L18.2233067,25.7673053 Z" id="Path"></path>
        </g>
    </g>
</svg>