<?xml version="1.0" encoding="UTF-8"?>
<svg width="80px" height="80px" viewBox="0 0 80 80" version="1.1" xmlns="http://www.w3.org/2000/svg" xmlns:xlink="http://www.w3.org/1999/xlink">
    <!-- Generator: Sketch 49.3 (51167) - http://www.bohemiancoding.com/sketch -->
    <title>add-image-from-gallery</title>
    <desc>Created with Sketch.</desc>
    <defs></defs>
    <g id="add-image-from-gallery" stroke="none" stroke-width="1" fill="none" fill-rule="evenodd">
        <g id="add-icon" transform="translate(15.000000, 15.000000)" fill="#3559B9">
            <path d="M3,13 L3,14 L2,14 C1.44771525,14 1,14.4477153 1,15 L1,41 C1,41.5522847 1.44771525,42 2,42 L38,42 C38.5522847,42 39,41.5522847 39,41 L39,40 L40,40 L40,41 C40,42.1045695 39.1045695,43 38,43 L2,43 C0.8954305,43 1.3527075e-16,42.1045695 0,41 L0,15 C-1.3527075e-16,13.8954305 0.8954305,13 2,13 L3,13 Z" id="Path"></path>
            <path d="M34,9 L34,10 L6,10 C5.44771525,10 5,10.4477153 5,11 L5,37 C5,37.5522847 5.44771525,38 6,38 L42,38 C42.5522847,38 43,37.5522847 43,37 L43,19 L44,19 L44,37 C44,38.1045695 43.1045695,39 42,39 L6,39 C4.8954305,39 4,38.1045695 4,37 L4,11 C4,9.8954305 4.8954305,9 6,9 L34,9 Z" id="Path"></path>
            <path d="M43.5,18 C48.1944204,18 52,14.1944204 52,9.5 C52,4.80557963 48.1944204,1 43.5,1 C38.8055796,1 35,4.80557963 35,9.5 C35,14.1944204 38.8055796,18 43.5,18 Z M43.5,19 C38.2532949,19 34,14.7467051 34,9.5 C34,4.25329488 38.2532949,0 43.5,0 C48.7467051,0 53,4.25329488 53,9.5 C53,14.7467051 48.7467051,19 43.5,19 Z" id="Oval-4" fill-rule="nonzero"></path>
            <rect id="Rectangle-6" x="43" y="5" width="1" height="9" rx="0.5"></rect>
            <rect id="Rectangle-6" x="39" y="9" width="9" height="1" rx="0.5"></rect>
            <rect id="Rectangle-4" x="4" y="31" width="40" height="1"></rect>
            <rect id="Rectangle-5" x="7" y="34" width="14" height="1" rx="0.5"></rect>
            <rect id="Rectangle-5" x="23" y="34" width="5.5" height="1" rx="0.5"></rect>
            <path d="M13.5,23 C11.0147186,23 9,20.9852814 9,18.5 C9,16.0147186 11.0147186,14 13.5,14 C15.9852814,14 18,16.0147186 18,18.5 C18,20.9852814 15.9852814,23 13.5,23 Z M13.5,22 C15.4329966,22 17,20.4329966 17,18.5 C17,16.5670034 15.4329966,15 13.5,15 C11.5670034,15 10,16.5670034 10,18.5 C10,20.4329966 11.5670034,22 13.5,22 Z" id="Oval-3" fill-rule="nonzero"></path>
            <path d="M32.8137335,20.8596919 C32.7495938,20.7698964 32.6710337,20.6913363 32.5812382,20.6271966 C32.1318256,20.3061876 31.5072755,20.4102793 31.1862665,20.8596919 L23.9431893,31 L40.0568107,31 L32.8137335,20.8596919 Z M42,32 L22,32 L30.3725331,20.2784537 C31.014551,19.3796285 32.2636512,19.1714452 33.1624764,19.8134632 C33.3420674,19.9417425 33.4991876,20.0988627 33.6274669,20.2784537 L42,32 Z" id="Triangle" fill-rule="nonzero"></path>
            <path d="M23.1429299,31 L23.1429299,32 L17.2766732,32 L18.0703321,31 L23.1429299,31 Z M22.2233067,25.7673053 C22.566641,25.3347085 23.1956574,25.2623469 23.6282542,25.6056812 C23.7092216,25.6699417 23.7797361,25.7463676 23.8372848,25.8322353 L25.1693077,27.8197296 L26,27.2629979 L24.6679772,25.2755036 C24.5528796,25.103768 24.4118508,24.9509164 24.249916,24.8223954 C23.3847223,24.1357268 22.1266894,24.2804499 21.4400208,25.1456436 L16.7936589,31 L18.0703321,31 L22.2233067,25.7673053 Z M16.3002715,31.6216617 L16.4830143,32 L16,32 L16.3002715,31.6216617 Z M23.1429299,31 L23.1429299,32 L17.2766732,32 L18.0703321,31 L23.1429299,31 Z M22.2233067,25.7673053 C22.566641,25.3347085 23.1956574,25.2623469 23.6282542,25.6056812 C23.7092216,25.6699417 23.7797361,25.7463676 23.8372848,25.8322353 L25.1693077,27.8197296 L26,27.2629979 L24.6679772,25.2755036 C24.5528796,25.103768 24.4118508,24.9509164 24.249916,24.8223954 C23.3847223,24.1357268 22.1266894,24.2804499 21.4400208,25.1456436 L16.7936589,31 L18.0703321,31 L22.2233067,25.7673053 Z M16.3002715,31.6216617 L16,32 L16.4830143,32 L16.3002715,31.6216617 Z" id="Triangle-Copy" fill-rule="nonzero"></path>
        </g>
    </g>
</svg>