<?xml version="1.0" encoding="utf-8"?>
<!-- Generator: Adobe Illustrator 19.1.0, SVG Export Plug-In . SVG Version: 6.00 Build 0)  -->
<svg version="1.1" id="Layer_1" xmlns="http://www.w3.org/2000/svg" xmlns:xlink="http://www.w3.org/1999/xlink" x="0px" y="0px"
	 viewBox="11 -13 31.2 34" style="enable-background:new 11 -13 31.2 34;" xml:space="preserve">
<style type="text/css">
	.st0{fill:#63B9E9;}
	.st1{fill:#63B9E9;}
	.st2{fill:#FFFFFF;}
	.st3{fill:#63B9E9;}
</style>
<g>
	<g>
		<path class="st0" d="M33.6-4.3C33.9-3.6,34-2.9,34-2c0,0.8-0.1,1.6-0.4,2.3L37.1-2L33.6-4.3z"/>
		<path class="st0" d="M33.6-4.3C33.9-3.6,34-2.9,34-2c0,0.8-0.1,1.6-0.4,2.3L37.1-2L33.6-4.3z"/>
		<path class="st0" d="M33.6-4.3C33.9-3.6,34-2.9,34-2c0,0.8-0.1,1.6-0.4,2.3L37.1-2L33.6-4.3z"/>
		<path class="st1" d="M33.6-4.3C33.9-3.6,34-2.9,34-2c0,0.8-0.1,1.6-0.4,2.3L37.1-2L33.6-4.3z"/>
	</g>
	<g>
		<circle class="st2" cx="27" cy="-2" r="6.2"/>
		<path class="st3" d="M27,4.9c-3.8,0-7-3.1-7-7c0-3.8,3.1-7,7-7c3.8,0,7,3.1,7,7C34,1.8,30.9,4.9,27,4.9z M27-7.5
			c-3,0-5.5,2.5-5.5,5.5c0,3,2.5,5.5,5.5,5.5S32.5,1,32.5-2C32.5-5.1,30-7.5,27-7.5z"/>
	</g>
</g>
</svg>
