<?xml version="1.0" encoding="UTF-8"?>
<svg width="50px" height="50px" viewBox="0 0 50 50" version="1.1" xmlns="http://www.w3.org/2000/svg" xmlns:xlink="http://www.w3.org/1999/xlink">
    <!-- Generator: Sketch 43.2 (39069) - http://www.bohemiancoding.com/sketch -->
    <title>search-icon</title>
    <desc>Created with Sketch.</desc>
    <defs></defs>
    <g id="layouts" stroke="none" stroke-width="1" fill="none" fill-rule="evenodd">
        <g id="search-icon" fill-rule="nonzero" fill="#3559B9">
            <g id="icon" transform="translate(14.000000, 14.000000)">
                <path d="M16.18388,14.828592 L22.240144,20.884856 C22.6143964,21.2591084 22.6143964,21.8658916 22.240144,22.240144 C21.8658916,22.6143964 21.2591084,22.6143964 20.884856,22.240144 L14.828592,16.18388 C13.264732,17.4499407 11.2730154,18.2083333 9.10416667,18.2083333 C4.07607426,18.2083333 0,14.1322591 0,9.10416667 C0,4.07607426 4.07607426,0 9.10416667,0 C14.1322591,0 18.2083333,4.07607426 18.2083333,9.10416667 C18.2083333,11.2730154 17.4499407,13.264732 16.18388,14.828592 Z M9.10416667,16.2916667 C13.0737133,16.2916667 16.2916667,13.0737133 16.2916667,9.10416667 C16.2916667,5.13462003 13.0737133,1.91666667 9.10416667,1.91666667 C5.13462003,1.91666667 1.91666667,5.13462003 1.91666667,9.10416667 C1.91666667,13.0737133 5.13462003,16.2916667 9.10416667,16.2916667 Z" id="circle"></path>
            </g>
        </g>
    </g>
</svg>