<?xml version="1.0" encoding="UTF-8" standalone="no"?>
<svg width="18px" height="18px" viewBox="0 0 18 18" version="1.1" xmlns="http://www.w3.org/2000/svg" xmlns:xlink="http://www.w3.org/1999/xlink">
    <!-- Generator: Sketch 3.7 (28169) - http://www.bohemiancoding.com/sketch -->
    <title>suosikki-aktiivinen</title>
    <desc>Created with Sketch.</desc>
    <defs>
        <polyline id="path-1" points="0 0.243514286 17.7564857 0.243514286 17.7564857 18 0 18"></polyline>
    </defs>
    <g stroke="none" stroke-width="1" fill="none" fill-rule="evenodd">
        <g transform="translate(-328.000000, -317.000000)">
            <g>
                <g transform="translate(15.000000, 89.000000)">
                    <g transform="translate(313.000000, 228.000000)">
                        <mask id="mask-2" fill="white">
                            <use xlink:href="#path-1"></use>
                        </mask>
                        <g></g>
                        <path d="M3.32946,18 C3.21400286,18 3.09854571,17.9637429 3.00057429,17.892 C2.80668857,17.7492857 2.72671714,17.4980571 2.80283143,17.2694571 L4.82166,11.2129714 L0.230631429,7.9074 C0.0352028571,7.76674286 -0.0470828571,7.51602857 0.0267171429,7.28691429 C0.100774286,7.05754286 0.313945714,6.90222857 0.554888571,6.90222857 L6.25883143,6.90222857 L8.35171714,0.623057143 C8.42731714,0.396514286 8.63920286,0.243514286 8.87808857,0.243514286 C9.11697429,0.243514286 9.32911714,0.396514286 9.40471714,0.623057143 L11.4976029,6.90222857 L17.2012886,6.90222857 C17.4422314,6.90222857 17.65566,7.05754286 17.72946,7.28691429 C17.8035171,7.51602857 17.7212314,7.76674286 17.5255457,7.9074 L12.9347743,11.2129714 L14.9533457,17.2694571 C15.0297171,17.4980571 14.9494886,17.7492857 14.75586,17.892 C14.6581457,17.9637429 14.5424314,18 14.4269743,18 C14.3133171,18 14.19966,17.9650286 14.1027171,17.8953429 L8.87808857,14.1336 L3.65371714,17.8953429 C3.55677429,17.9650286 3.44286,18 3.32946,18" fill="#63B9E9" mask="url(#mask-2)"></path>
                    </g>
                </g>
            </g>
        </g>
    </g>
</svg>