<?xml version="1.0" encoding="UTF-8"?>
<svg width="50px" height="50px" viewBox="0 0 50 50" version="1.1" xmlns="http://www.w3.org/2000/svg" xmlns:xlink="http://www.w3.org/1999/xlink">
    <!-- Generator: Sketch 47.1 (45422) - http://www.bohemiancoding.com/sketch -->
    <title>icon-rantasade-1</title>
    <desc>Created with Sketch.</desc>
    <defs></defs>
    <g id="layouts" stroke="none" stroke-width="1" fill="none" fill-rule="evenodd">
        <g id="icon-rantasade-1">
            <g>
                <circle id="bg" fill="#2FCCDC" cx="25" cy="25" r="25"></circle>
                <g id="hiutale" transform="translate(27.307692, 18.538462)" fill-rule="nonzero" fill="#FFFFFF">
                    <path d="M0.656364523,10.6199251 L11.5980091,4.30448466 C12.2260488,3.94198455 12.4413112,3.13899336 12.0788111,2.51095364 C11.7163109,1.88291392 10.9133198,1.66765155 10.28528,2.03015166 L-0.656364523,8.34559212 C-1.28440424,8.70809224 -1.49966662,9.51108343 -1.1371665,10.1391231 C-0.774666383,10.7671629 0.0283248077,10.9824252 0.656364523,10.6199251 Z" id="line"></path>
                    <path d="M0.656364523,10.6199251 L11.5980091,4.30448466 C12.2260488,3.94198455 12.4413112,3.13899336 12.0788111,2.51095364 C11.7163109,1.88291392 10.9133198,1.66765155 10.28528,2.03015166 L-0.656364523,8.34559212 C-1.28440424,8.70809224 -1.49966662,9.51108343 -1.1371665,10.1391231 C-0.774666383,10.7671629 0.0283248077,10.9824252 0.656364523,10.6199251 Z" id="line" transform="translate(5.470822, 6.325038) scale(-1, 1) translate(-5.470822, -6.325038) "></path>
                    <path d="M4.15782493,0.0191922155 L4.15782493,12.6308844 C4.15782493,13.3560328 4.74567387,13.9438818 5.47082228,13.9438818 C6.19597069,13.9438818 6.78381963,13.3560328 6.78381963,12.6308844 L6.78381963,0.0191922155 C6.78381963,-0.705956196 6.19597069,-1.29380513 5.47082228,-1.29380513 C4.74567387,-1.29380513 4.15782493,-0.705956196 4.15782493,0.0191922155 Z" id="line"></path>
                </g>
                <g id="vesi" transform="translate(12.463617, 17.715177)" fill="#FFFFFF">
                    <path d="M8.79622399,8.30771009 C9.08740847,8.90880595 9.25063077,9.5830712 9.25063077,10.2953482 C9.25063077,12.8224433 7.19604283,14.8710586 4.66158018,14.8710586 C2.12711752,14.8710586 0.0725295871,12.8224433 0.0725295871,10.2953482 C0.0725295871,9.59516583 0.230255832,8.93171528 0.512214068,8.33839347 L3.08221689,1.81562846 C3.9537481,-0.396350934 5.3660887,-0.398103883 6.23831058,1.81562846 L8.79622399,8.30771009 L8.79622399,8.30771009 Z" id="pisara"></path>
                </g>
            </g>
        </g>
    </g>
</svg>