<?xml version="1.0" encoding="UTF-8"?>
<svg width="50px" height="50px" viewBox="0 0 50 50" version="1.1" xmlns="http://www.w3.org/2000/svg" xmlns:xlink="http://www.w3.org/1999/xlink">
    <!-- Generator: Sketch 55.2 (78181) - https://sketchapp.com -->
    <title>icon-ei-rakeita</title>
    <desc>Created with Sketch.</desc>
    <g id="icon-ei-rakeita" stroke="none" stroke-width="1" fill="none" fill-rule="evenodd">
        <g id="icon-rakeet">
            <circle id="bg" fill="#F5236C" cx="25" cy="25" r="25"></circle>
            <g id="icon" transform="translate(14.000000, 16.000000)" fill="#FFFFFF">
                <g id="rae-2">
                    <polygon id="rae" points="3 9 5.59807621 10.5 5.59807621 13.5 3 15 0.401923789 13.5 0.401923789 10.5"></polygon>
                    <path d="M4,5 L4,1 C4,0.44771525 3.55228475,4.82947016e-14 3,0 C2.44771525,-4.84057239e-14 2,0.44771525 2,1 L2,5 C2,5.55228475 2.44771525,6 3,6 C3.55228475,6 4,5.55228475 4,5 Z" id="line" fill-rule="nonzero"></path>
                </g>
                <g id="rae-2" transform="translate(8.000000, 0.000000)">
                    <polygon id="rae" points="3 14 5.59807621 15.5 5.59807621 18.5 3 20 0.401923789 18.5 0.401923789 15.5"></polygon>
                    <path d="M4,10 L4,1 C4,0.44771525 3.55228475,-1.73194792e-14 3,0 C2.44771525,1.72084569e-14 2,0.44771525 2,1 L2,10 C2,10.5522847 2.44771525,11 3,11 C3.55228475,11 4,10.5522847 4,10 Z" id="line" fill-rule="nonzero"></path>
                </g>
                <g id="rae-1" transform="translate(16.000000, 0.000000)">
                    <polygon id="rae" points="3 8 5.59807621 9.5 5.59807621 12.5 3 14 0.401923789 12.5 0.401923789 9.5"></polygon>
                </g>
            </g>
            <g id="ruksi" transform="translate(4.000000, 4.000000)" fill-rule="nonzero">
                <polygon id="Path" fill="#F5236C" points="7.5 39.7426407 39.6348749 7.60776574 35.3922343 3.36512505 3.25735931 35.5"></polygon>
                <polygon id="Path" fill="#FFFFFF" points="7.5 36.9142136 6.08578644 35.5 35.3922343 6.19355218 36.8064478 7.60776574"></polygon>
                <path d="M21,42 C32.5979797,42 42,32.5979797 42,21 C42,9.40202025 32.5979797,0 21,0 C9.40202025,0 0,9.40202025 0,21 C0,32.5979797 9.40202025,42 21,42 Z M21,40 C10.5065898,40 2,31.4934102 2,21 C2,10.5065898 10.5065898,2 21,2 C31.4934102,2 40,10.5065898 40,21 C40,31.4934102 31.4934102,40 21,40 Z" id="Oval" fill="#FFFFFF"></path>
            </g>
        </g>
    </g>
</svg>