<?xml version="1.0" encoding="UTF-8"?>
<svg width="50px" height="50px" viewBox="0 0 50 50" version="1.1" xmlns="http://www.w3.org/2000/svg" xmlns:xlink="http://www.w3.org/1999/xlink">
    <!-- Generator: Sketch 53.2 (72643) - https://sketchapp.com -->
    <title>icon-tulva-02</title>
    <desc>Created with Sketch.</desc>
    <g id="icon-tulva-02" stroke="none" stroke-width="1" fill="none" fill-rule="evenodd">
        <g>
            <circle id="bg" fill="#4B6394" cx="25" cy="25" r="25"></circle>
            <g id="icon" transform="translate(12.000000, 13.000000)" fill="#FFFFFF" fill-rule="nonzero">
                <path d="M25.1009345,17 L25.1009345,17 C23.217757,17 22.2342523,18.0460748 21.4463552,18.8868224 C20.7410748,19.6388785 20.1846262,20.2329907 19.0395327,20.2329907 C17.8944393,20.2329907 17.3385981,19.6388785 16.6327103,18.8868224 C15.8429907,18.0460748 14.8637383,17 12.9781308,17 C11.0925234,17 10.1114486,18.0448598 9.32355143,18.8831775 C8.61827105,19.6352337 8.06182248,20.2293458 6.91672895,20.2293458 C5.77163553,20.2293458 5.21579441,19.6352337 4.51051404,18.8831775 C3.72261677,18.0448598 2.74154211,17 0.855934584,17 L0.855934584,17 C0.383214969,17 0,17.3832149 0,17.8559345 C0,18.3286541 0.383214969,18.7118692 0.855934584,18.7118692 L0.874158882,18.7118692 C2.00649533,18.7179439 2.56112149,19.3096262 3.26275702,20.0574299 C4.05247665,20.8981775 5.03172895,21.9442523 6.9173364,21.9442523 C8.80294397,21.9442523 9.78401864,20.8981775 10.5719159,20.0574299 C11.2771963,19.3053738 11.8336448,18.7112616 12.9787383,18.7112616 C14.1238318,18.7112616 14.6796729,19.3053738 15.3855607,20.0574299 C16.1752804,20.8981775 17.1545327,21.9442523 19.0401402,21.9442523 C20.9257477,21.9442523 21.9068225,20.8981775 22.6947196,20.0574299 C23.3957477,19.3096262 23.9503738,18.7209812 25.0827103,18.7118692 L25.1003271,18.7118692 C25.5730467,18.7120369 25.9563976,18.328958 25.9565655,17.8562383 C25.9567332,17.3835187 25.5736542,17.0001677 25.1009345,17 L25.1009345,17 Z" id="fill-04"></path>
                <path d="M20,18.0575874 C19.7256122,18.169436 19.4140573,18.2329907 19.0395327,18.2329907 C17.8944393,18.2329907 17.3385981,17.6388785 16.6327103,16.8868224 C15.8429907,16.0460748 14.8637383,15 12.9781308,15 C11.0925234,15 10.1114486,16.0448598 9.32355143,16.8831775 C8.61827105,17.6352337 8.06182248,18.2293458 6.91672895,18.2293458 C6.56189932,18.2293458 6.2636492,18.1722997 6,18.0711849 L6,8 L2,8 L13.0002934,-2.30926389e-14 L24,8 L20,8 L20,18.0575874 Z M15,12 L15,8 L11,8 L11,12 L15,12 Z" id="fill-01"></path>
            </g>
        </g>
    </g>
</svg>