<?xml version="1.0" encoding="UTF-8"?>
<svg width="50px" height="50px" viewBox="0 0 50 50" version="1.1" xmlns="http://www.w3.org/2000/svg" xmlns:xlink="http://www.w3.org/1999/xlink">
    <!-- Generator: Sketch 47.1 (45422) - http://www.bohemiancoding.com/sketch -->
    <title>icon-ei-sadetta</title>
    <desc>Created with Sketch.</desc>
    <defs></defs>
    <g id="layouts" stroke="none" stroke-width="1" fill="none" fill-rule="evenodd">
        <g id="icon-ei-sadetta">
            <g>
                <circle id="bg" fill="#F8C61C" cx="25" cy="25" r="25"></circle>
                <g id="icon" transform="translate(11.000000, 14.000000)" fill-rule="nonzero" fill="#FFFFFF">
                    <path d="M13.4425999,2 C10.4296,2 7.9086296,4.38606559 7.65463324,7.48400348 L7.50405492,9.32057416 L5.21346675,9.32057416 C3.44914171,9.32057416 2,10.8049493 2,12.6602871 C2,14.515716 3.44931282,16 5.21346675,16 L21.7777778,16 C24.0987724,16 26,14.0526387 26,11.6267943 C26,9.20094976 24.0987724,7.25358852 21.7777778,7.25358852 C21.5565196,7.25358852 21.3381666,7.27103847 21.1236877,7.30546628 L19.4645813,7.57178339 L18.9162077,5.98343664 C18.0963769,3.60882249 15.9124033,2 13.4425999,2 Z M13.4425999,0 C16.8421311,0 19.7342939,2.22452948 20.8067086,5.33074497 C21.1231217,5.27995485 21.4474436,5.25358852 21.7777778,5.25358852 C25.2142162,5.25358852 28,8.10696992 28,11.6267943 C28,15.1466186 25.2142162,18 21.7777778,18 L5.21346675,18 C2.33414857,18 0,15.6099775 0,12.6602871 C0,9.71124511 2.33342724,7.32057416 5.21346675,7.32057416 L5.66132171,7.32057416 C5.99749201,3.22037877 9.35313749,0 13.4425999,0 Z" id="ei-sadetta"></path>
                </g>
            </g>
        </g>
    </g>
</svg>