<?xml version="1.0" encoding="UTF-8"?>
<svg width="50px" height="50px" viewBox="0 0 50 50" version="1.1" xmlns="http://www.w3.org/2000/svg" xmlns:xlink="http://www.w3.org/1999/xlink">
    <!-- Generator: Sketch 53.2 (72643) - https://sketchapp.com -->
    <title>icon-tulva-01</title>
    <desc>Created with Sketch.</desc>
    <g id="icon-tulva-01" stroke="none" stroke-width="1" fill="none" fill-rule="evenodd">
        <g>
            <circle id="bg" fill="#71B02C" cx="25" cy="25" r="25"></circle>
            <g id="icon" transform="translate(11.000000, 13.000000)" fill="#FFFFFF" fill-rule="nonzero">
                <path d="M21,15.9323894 C18.8249991,15.3109037 16.4894375,15 14,15 C11.5105625,15 9.17500087,15.3109037 7,15.9323894 L7,8 L3,8 L14.0002934,-9.76996262e-15 L25,8 L21,8 L21,15.9323894 Z M16,12 L16,8 L12,8 L12,12 L16,12 Z" id="fill-02"></path>
                <path d="M14,17 C8.4260882,17 3.75942153,18.6666667 0,22 L28,22 C24.2405785,18.6666667 19.5739118,17 14,17 Z" id="fill-01"></path>
            </g>
        </g>
    </g>
</svg>