<?xml version="1.0" encoding="UTF-8"?>
<svg width="50px" height="50px" viewBox="0 0 50 50" version="1.1" xmlns="http://www.w3.org/2000/svg" xmlns:xlink="http://www.w3.org/1999/xlink">
    <!-- Generator: Sketch 47.1 (45422) - http://www.bohemiancoding.com/sketch -->
    <title>icon-rakeet</title>
    <desc>Created with Sketch.</desc>
    <defs></defs>
    <g id="layouts" stroke="none" stroke-width="1" fill="none" fill-rule="evenodd">
        <g id="icon-rakeet">
            <g>
                <circle id="bg" fill="#F5236C" cx="25" cy="25" r="25"></circle>
                <g id="icon" transform="translate(14.000000, 17.000000)" fill="#FFFFFF">
                    <g id="rae-2">
                        <polygon id="rae" points="3 9 5.59807621 10.5 5.59807621 13.5 3 15 0.401923789 13.5 0.401923789 10.5"></polygon>
                        <path d="M4,5 L4,1 C4,0.44771525 3.55228475,4.82947016e-14 3,0 C2.44771525,-4.84057239e-14 2,0.44771525 2,1 L2,5 C2,5.55228475 2.44771525,6 3,6 C3.55228475,6 4,5.55228475 4,5 Z" id="line" fill-rule="nonzero"></path>
                    </g>
                    <g id="rae-2" transform="translate(8.000000, 0.000000)">
                        <polygon id="rae" points="3 14 5.59807621 15.5 5.59807621 18.5 3 20 0.401923789 18.5 0.401923789 15.5"></polygon>
                        <path d="M4,10 L4,1 C4,0.44771525 3.55228475,-1.73194792e-14 3,0 C2.44771525,1.72084569e-14 2,0.44771525 2,1 L2,10 C2,10.5522847 2.44771525,11 3,11 C3.55228475,11 4,10.5522847 4,10 Z" id="line" fill-rule="nonzero"></path>
                    </g>
                    <g id="rae-1" transform="translate(16.000000, 0.000000)">
                        <polygon id="rae" points="3 8 5.59807621 9.5 5.59807621 12.5 3 14 0.401923789 12.5 0.401923789 9.5"></polygon>
                        <path d="M4,5 L4,1 C4,0.44771525 3.55228475,1.95399252e-14 3,0 C2.44771525,-1.95399252e-14 2,0.44771525 2,1 L2,5 C2,5.55228475 2.44771525,6 3,6 C3.55228475,6 4,5.55228475 4,5 Z" id="line" fill-rule="nonzero"></path>
                    </g>
                </g>
            </g>
        </g>
    </g>
</svg>