<?xml version="1.0" encoding="UTF-8"?>
<svg width="50px" height="50px" viewBox="0 0 50 50" version="1.1" xmlns="http://www.w3.org/2000/svg" xmlns:xlink="http://www.w3.org/1999/xlink">
    <!-- Generator: Sketch 58 (84663) - https://sketch.com -->
    <title>icon-pilvista</title>
    <desc>Created with Sketch.</desc>
    <g id="icon-pilvista" stroke="none" stroke-width="1" fill="none" fill-rule="evenodd">
        <g>
            <circle id="bg" fill="#A8AEBE" cx="25" cy="25" r="25"/>
            <g id="icon" transform="translate(8.000000, 14.000000)" fill="#FFFFFF" fill-rule="nonzero">
                <path d="M17.3976411,9.00640763 C18.1682818,6.08637854 20.8732331,3.95959596 24.0512099,3.95959596 C26.712238,3.95959596 29.0864172,5.45775729 30.2237976,7.73400717 L30.3201942,7.73321734 L30.5428884,7.7374303 C33.5720734,7.85223419 36,10.298974 36,13.3110531 C36,16.3965976 33.4521936,18.8888889 30.3201942,18.8888889 L17.8619831,18.8888889 C15.1488648,18.8888889 12.940874,16.7292951 12.940874,14.0534049 C12.940874,11.6275205 14.7555891,9.62574929 17.1165251,9.27307337 L17.3394244,9.24487872 L17.3976411,9.00640763 Z M24.0512099,5.95959596 C21.5089398,5.95959596 19.4047856,7.86160318 19.1951552,10.3034551 L19.1166493,11.2179208 L17.8619831,11.2179208 C16.2434835,11.2179208 14.940874,12.4922071 14.940874,14.0534049 C14.940874,15.6146831 16.243635,16.8888889 17.8619831,16.8888889 L30.3201942,16.8888889 C32.3573655,16.8888889 34,15.2820464 34,13.3110531 C34,11.3400598 32.3573655,9.73321734 30.3201942,9.73321734 C30.1246221,9.73321734 29.9313338,9.74796967 29.7413725,9.77709092 L28.9288618,9.90164957 L28.6494055,9.12860836 C27.9695005,7.24783248 26.1383885,5.95959596 24.0512099,5.95959596 Z" id="Fill-02"/>
                <path d="M0,12.8787879 C0,16.2025349 2.73505695,18.8888889 6.10050511,18.8888889 L17.9341988,18.8888889 C18.4864835,18.8888889 18.9341988,18.4411736 18.9341988,17.8888889 C18.9341988,17.3366041 18.4864835,16.8888889 17.9341988,16.8888889 L6.10050511,16.8888889 C3.83166303,16.8888889 2,15.0898422 2,12.8787879 C2,10.6678515 3.83145435,8.86868687 6.10050511,8.86868687 L6.53865627,8.86868687 C7.05792286,8.86868687 7.49079144,8.47124508 7.53502195,7.95386568 C7.82139232,4.6040934 10.6901901,2 14.1513353,2 C16.8182037,2 19.1908935,3.55318084 20.238873,5.90273182 C20.4638464,6.40711801 21.0551091,6.63362686 21.5594953,6.40865349 C22.0638815,6.18368012 22.2903904,5.59241738 22.065417,5.08803119 C20.6971326,2.0203624 17.6107609,0 14.1513353,0 C10.0598714,0 6.59461846,2.81226959 5.72266482,6.62770715 L5.66839809,6.88353598 C2.50379495,7.10178048 0,9.69868721 0,12.8787879 Z" id="Fill-01"/>
            </g>
        </g>
    </g>
</svg>