<?xml version="1.0" encoding="UTF-8"?>
<svg width="50px" height="50px" viewBox="0 0 50 50" version="1.1" xmlns="http://www.w3.org/2000/svg" xmlns:xlink="http://www.w3.org/1999/xlink">
    <!-- Generator: Sketch 53.2 (72643) - https://sketchapp.com -->
    <title>icon-tulva-03</title>
    <desc>Created with Sketch.</desc>
    <g id="icon-tulva-03" stroke="none" stroke-width="1" fill="none" fill-rule="evenodd">
        <g>
            <circle id="bg" fill="#F8E200" cx="25" cy="25" r="25"></circle>
            <g id="icon" transform="translate(12.000000, 13.000000)" fill="#231F20" fill-rule="nonzero">
                <path d="M25.1009345,19 L25.1009345,19 C23.217757,19 22.2342523,20.0460748 21.4463552,20.8868224 C20.7410748,21.6388785 20.1846262,22.2329907 19.0395327,22.2329907 C17.8944393,22.2329907 17.3385981,21.6388785 16.6327103,20.8868224 C15.8429907,20.0460748 14.8637383,19 12.9781308,19 C11.0925234,19 10.1114486,20.0448598 9.32355143,20.8831775 C8.61827105,21.6352337 8.06182248,22.2293458 6.91672895,22.2293458 C5.77163553,22.2293458 5.21579441,21.6352337 4.51051404,20.8831775 C3.72261677,20.0448598 2.74154211,19 0.855934584,19 L0.855934584,19 C0.383214969,19 0,19.3832149 0,19.8559345 C0,20.3286541 0.383214969,20.7118692 0.855934584,20.7118692 L0.874158882,20.7118692 C2.00649533,20.7179439 2.56112149,21.3096262 3.26275702,22.0574299 C4.05247665,22.8981775 5.03172895,23.9442523 6.9173364,23.9442523 C8.80294397,23.9442523 9.78401864,22.8981775 10.5719159,22.0574299 C11.2771963,21.3053738 11.8336448,20.7112616 12.9787383,20.7112616 C14.1238318,20.7112616 14.6796729,21.3053738 15.3855607,22.0574299 C16.1752804,22.8981775 17.1545327,23.9442523 19.0401402,23.9442523 C20.9257477,23.9442523 21.9068225,22.8981775 22.6947196,22.0574299 C23.3957477,21.3096262 23.9503738,20.7209812 25.0827103,20.7118692 L25.1003271,20.7118692 C25.5730467,20.7120369 25.9563976,20.328958 25.9565655,19.8562383 C25.9567332,19.3835187 25.5736542,19.0001677 25.1009345,19 L25.1009345,19 Z" id="fill-03"></path>
                <path d="M21.4463551,15.8868225 C20.7410747,16.6388785 20.1846262,17.2329907 19.0395327,17.2329907 C17.8944392,17.2329907 17.3385981,16.6388785 16.6327103,15.8868225 C15.8429906,15.0460748 14.8637383,14 12.9781309,14 C11.0925233,14 10.1114486,15.0460748 9.32355138,15.8868225 C8.61827101,16.6388785 8.06182243,17.2329907 6.91672902,17.2329907 C5.77163548,17.2329907 5.21579436,16.6388785 4.51051399,15.8868225 C3.72079436,15.0460748 2.74154206,14 0.855934572,14 C0.383214957,14 0,14.3832149 0,14.8559345 C0,15.3286542 0.383214957,15.7118692 0.855934572,15.7118692 L0.870514013,15.7118692 C2.00528037,15.7173365 2.56051399,16.3090188 3.26214952,17.0574299 C4.04883175,17.8969626 5.02686914,18.9418225 6.91551399,18.9418225 C8.80415883,18.9418225 9.78219623,17.8969626 10.5700935,17.0586448 C11.2753739,16.3065888 11.8318224,15.7124766 12.9769159,15.7124766 C14.1220094,15.7124766 14.6778505,16.3065888 15.3837383,17.0586448 C16.173458,17.8993925 17.1527103,18.9454673 19.0383177,18.9454673 C20.9239253,18.9454673 21.905,17.8969626 22.6928972,17.0586448 C23.3945327,16.3102337 23.9497664,15.7185514 25.0839253,15.7130841 L25.0985047,15.7130841 C25.4045177,15.7133012 25.6874011,15.5502457 25.8405956,15.2853392 C25.9937901,15.0204326 25.9940216,14.6939207 25.8412031,14.4287971 C25.6883845,14.1636735 25.4057326,14.0002171 25.0997196,14 C23.2165421,14 22.2342524,15.0460748 21.4463551,15.8868225 Z" id="fill-02"></path>
                <path d="M13.0002934,0 L2,8 L6,8 L6,18 L7.03148762,18 C8.20985677,18 8.51216224,17.3789815 9.23807989,16.5928747 C10.0490889,15.7143898 11.0572753,14.6207536 12.9991198,14.6207536 C14.9409642,14.6207536 15.9491505,15.7143898 16.7601597,16.5928747 C17.4860773,17.3789815 17.376284,18 18.5546533,18 L20,18 L20,8 L24,8 L13.0002934,0 Z M15,12 L11,12 L11,8 L15,8 L15,12 Z" id="fill-01"></path>
            </g>
        </g>
    </g>
</svg>