<?xml version="1.0" encoding="UTF-8"?>
<svg width="50px" height="50px" viewBox="0 0 50 50" version="1.1" xmlns="http://www.w3.org/2000/svg" xmlns:xlink="http://www.w3.org/1999/xlink">
    <!-- Generator: Sketch 47.1 (45422) - http://www.bohemiancoding.com/sketch -->
    <title>icon-lumensyvyys</title>
    <desc>Created with Sketch.</desc>
    <defs></defs>
    <g id="layouts" stroke="none" stroke-width="1" fill="none" fill-rule="evenodd">
        <g id="icon-lumensyvyys">
            <g>
                <circle id="bg" fill="#1A3DB8" cx="25" cy="25" r="25"></circle>
                <g id="hiutale" transform="translate(26.000000, 11.000000)" fill-rule="nonzero" fill="#FFFFFF">
                    <path d="M2.62056282,12.0406565 L12.9653904,6.06969459 C13.5591734,5.72696721 13.7626942,4.96777554 13.4199668,4.37399253 C13.0772394,3.78020953 12.3180478,3.57668874 11.7242648,3.91941612 L1.37943718,9.89037801 C0.785654174,10.2331054 0.582133381,10.9922971 0.924860764,11.5860801 C1.26758815,12.1798631 2.02677982,12.3833839 2.62056282,12.0406565 Z" id="line"></path>
                    <path d="M2.62056282,12.0406565 L12.9653904,6.06969459 C13.5591734,5.72696721 13.7626942,4.96777554 13.4199668,4.37399253 C13.0772394,3.78020953 12.3180478,3.57668874 11.7242648,3.91941612 L1.37943718,9.89037801 C0.785654174,10.2331054 0.582133381,10.9922971 0.924860764,11.5860801 C1.26758815,12.1798631 2.02677982,12.3833839 2.62056282,12.0406565 Z" id="line" transform="translate(7.172414, 7.980036) scale(-1, 1) translate(-7.172414, -7.980036) "></path>
                    <path d="M5.93103448,2.01814537 L5.93103448,13.9419271 C5.93103448,14.627522 6.48681893,15.1833064 7.17241379,15.1833064 C7.85800865,15.1833064 8.4137931,14.627522 8.4137931,13.9419271 L8.4137931,2.01814537 C8.4137931,1.33255051 7.85800865,0.776766057 7.17241379,0.776766057 C6.48681893,0.776766057 5.93103448,1.33255051 5.93103448,2.01814537 Z" id="line"></path>
                </g>
                <g id="mittanauha" transform="translate(13.000000, 12.000000)">
                    <rect id="Rectangle" fill="#FFFFFF" x="5" y="5" width="4" height="2"></rect>
                    <rect id="Rectangle-Copy" fill="#FFFFFF" x="5" y="10" width="4" height="2"></rect>
                    <rect id="Rectangle-Copy" fill="#FFFFFF" x="5" y="15" width="4" height="2"></rect>
                    <rect id="Rectangle-Copy" fill="#FFFFFF" x="5" y="20" width="4" height="2"></rect>
                    <rect id="Rectangle-5" stroke="#FFFFFF" stroke-width="2" x="1" y="1" width="8" height="25"></rect>
                </g>
            </g>
        </g>
    </g>
</svg>