<?xml version="1.0" encoding="UTF-8"?>
<svg width="50px" height="50px" viewBox="0 0 50 50" version="1.1" xmlns="http://www.w3.org/2000/svg" xmlns:xlink="http://www.w3.org/1999/xlink">
    <!-- Generator: Sketch 58 (84663) - https://sketch.com -->
    <title>icon-tykkylumi-1</title>
    <desc>Created with Sketch.</desc>
    <g id="icon-tykkylumi-1" stroke="none" stroke-width="1" fill="none" fill-rule="evenodd">
        <g id="icon-tykkulumi-1">
            <circle id="bg" fill="#F8E200" cx="25" cy="25" r="25"/>
            <g id="puu" transform="translate(16.000000, 12.000000)" fill="#000000">
                <path d="M3.9877162,16.0319606 C3.58480101,15.9156764 3.10497666,16.126817 2.92148472,16.5011693 L0.0693861676,22.319317 C-0.11410577,22.693736 0.0790755108,23 0.498677903,23 L17.5013221,23 C17.9209245,23 18.1141058,22.693736 17.9306138,22.319317 L16.97258,20.3649149 C16.7890208,19.9906294 16.3091964,19.5891085 15.9063485,19.4728243 L3.9877162,16.0319606 Z" id="Fill-7"/>
                <path d="M16.2761892,8.96174042 C16.7357009,9.09545705 17.0575769,8.8672972 16.9913655,8.45465915 L15.6981039,0.386443172 C15.6319703,-0.0261280845 15.2956227,-0.124044462 14.9508722,0.168969963 L8.20797003,5.89807991 C7.86314175,6.19109433 7.95697364,6.54028043 8.41640752,6.67399706 L16.2761892,8.96174042 Z" id="Fill-10"/>
                <path d="M14.2852559,10.6004422 C14.153326,10.183179 13.6912208,9.78942466 13.2583085,9.72556501 L8.41122078,9.01019659 C7.97823833,8.94626676 7.42209798,9.18970536 7.17529096,9.55110887 L5.12715061,12.5501264 C4.88034359,12.9115299 5.00392254,13.356372 5.40181728,13.5386878 L16.1522734,17.4654247 C16.5501682,17.6478106 16.7677822,17.4555299 16.6359225,17.0381966 L14.2852559,10.6004422 Z" id="Fill-12"/>
                <polygon id="Fill-14" points="8 28 11 28 11 23 8 23"/>
            </g>
            <path d="M17.3907512,9.00671369 L17.5,9 C17.9440061,9 18.310411,9.32871724 18.3641537,9.75359059 L18.3709396,9.8616776 L18.3708134,12.5071571 L20.6935341,11.1814051 C21.1101264,10.943508 21.6427679,11.0847777 21.8832221,11.4969399 C22.1051798,11.8773972 22.0005878,12.355685 21.6555222,12.614129 L21.5642957,12.6739761 L19.2420481,13.9998125 L21.5642957,15.326024 C21.9808881,15.563921 22.1236762,16.0908981 21.8832221,16.5030602 C21.6427679,16.9152223 21.1101264,17.0564921 20.6935341,16.818595 L18.3708134,15.4914961 L18.3709396,18.1383224 C18.3709396,18.5776068 18.038689,18.9401151 17.6092488,18.9932863 L17.5,19 C17.0559939,19 16.689589,18.6712828 16.6358463,18.2464094 L16.6290604,18.1383224 L16.628344,15.4914961 L14.3064659,16.818595 C13.9219191,17.0381923 13.4384903,16.9347126 13.1772683,16.5933165 L13.1167779,16.5030602 C12.8948202,16.1226029 12.9994122,15.6443151 13.3444778,15.385871 L13.4357043,15.326024 L15.7571092,13.9998125 L13.4357043,12.6739761 C13.0191119,12.4360791 12.8763238,11.909102 13.1167779,11.4969399 C13.3572321,11.0847777 13.8898736,10.943508 14.3064659,11.1814051 L16.628344,12.5071571 L16.6290604,9.8616776 C16.6290604,9.42239323 16.961311,9.05988489 17.3907512,9.00671369 L17.5,9 L17.3907512,9.00671369 Z" id="hiutale" fill="#000000" fill-rule="nonzero"/>
        </g>
    </g>
</svg>