<?xml version="1.0" encoding="UTF-8"?>
<svg width="50px" height="50px" viewBox="0 0 50 50" version="1.1" xmlns="http://www.w3.org/2000/svg" xmlns:xlink="http://www.w3.org/1999/xlink">
    <!-- Generator: Sketch 50.2 (55047) - http://www.bohemiancoding.com/sketch -->
    <title>icon-vedenlampotila</title>
    <desc>Created with Sketch.</desc>
    <defs></defs>
    <g id="icon-vedenlampotila" stroke="none" stroke-width="1" fill="none" fill-rule="evenodd">
        <g>
            <circle id="bg" fill="#409CEC" cx="25" cy="25" r="25"></circle>
            <g id="aallot" transform="translate(8.000000, 19.000000)" fill="#FFFFFF" fill-rule="nonzero">
                <path d="M0,1 C0,0.44771525 0.44771525,0 1,0 C1.55228475,0 2,0.44771525 2,1 C2,2.1045695 2.8954305,3 4,3 C5.1045695,3 6,2.1045695 6,1 C6,0.44771525 6.44771525,0 7,0 C7.55228475,0 8,0.44771525 8,1 C8,3.209139 6.209139,5 4,5 C1.790861,5 0,3.209139 0,1 Z" id="fill-6"></path>
                <path d="M6,1 C6,0.44771525 6.44771525,0 7,0 C7.55228475,0 8,0.44771525 8,1 C8,2.1045695 8.8954305,3 10,3 C11.1045695,3 12,2.1045695 12,1 C12,0.44771525 12.4477153,0 13,0 C13.5522847,0 14,0.44771525 14,1 C14,3.209139 12.209139,5 10,5 C7.790861,5 6,3.209139 6,1 Z" id="fill-5"></path>
                <path d="M12,1 C12,0.44771525 12.4477153,0 13,0 C13.5522847,0 14,0.44771525 14,1 C14,2.1045695 14.8954305,3 16,3 C17.1045695,3 18,2.1045695 18,1 C18,0.44771525 18.4477153,0 19,0 C19.5522847,0 20,0.44771525 20,1 C20,3.209139 18.209139,5 16,5 C13.790861,5 12,3.209139 12,1 Z" id="fill-4"></path>
                <path d="M0,8 C0,7.44771525 0.44771525,7 1,7 C1.55228475,7 2,7.44771525 2,8 C2,9.1045695 2.8954305,10 4,10 C5.1045695,10 6,9.1045695 6,8 C6,7.44771525 6.44771525,7 7,7 C7.55228475,7 8,7.44771525 8,8 C8,10.209139 6.209139,12 4,12 C1.790861,12 0,10.209139 0,8 Z" id="fill-3"></path>
                <path d="M6,8 C6,7.44771525 6.44771525,7 7,7 C7.55228475,7 8,7.44771525 8,8 C8,9.1045695 8.8954305,10 10,10 C11.1045695,10 12,9.1045695 12,8 C12,7.44771525 12.4477153,7 13,7 C13.5522847,7 14,7.44771525 14,8 C14,10.209139 12.209139,12 10,12 C7.790861,12 6,10.209139 6,8 Z" id="fill-2"></path>
                <path d="M12,8 C12,7.44771525 12.4477153,7 13,7 C13.5522847,7 14,7.44771525 14,8 C14,9.1045695 14.8954305,10 16,10 C17.1045695,10 18,9.1045695 18,8 C18,7.44771525 18.4477153,7 19,7 C19.5522847,7 20,7.44771525 20,8 C20,10.209139 18.209139,12 16,12 C13.790861,12 12,10.209139 12,8 Z" id="fill-1"></path>
            </g>
            <g id="mittari" transform="translate(30.000000, 12.000000)" fill="#FFFFFF">
                <path d="M6.79884468,19.5987667 L6,18.9987311 L6,3 C6,2.44771525 5.55228475,2 5,2 C4.44771525,2 4,2.44771525 4,3 L4,18.9987311 L3.20115532,19.5987667 C2.44901826,20.1637187 2,21.04267 2,22 C2,23.6568542 3.34314575,25 5,25 C6.65685425,25 8,23.6568542 8,22 C8,21.04267 7.55098174,20.1637187 6.79884468,19.5987667 Z M10,22 C10,24.7614237 7.76142375,27 5,27 C2.23857625,27 0,24.7614237 0,22 C0,20.3641822 0.785553298,18.9118401 2,17.9996338 L2,3 C2,1.34314575 3.34314575,3.04359188e-16 5,0 C6.65685425,-3.04359188e-16 8,1.34314575 8,3 L8,17.9996338 C9.2144467,18.9118401 10,20.3641822 10,22 Z" id="Combined-Shape" fill-rule="nonzero"></path>
                <rect id="fill-0" x="3" y="12" width="4" height="2"></rect>
            </g>
        </g>
    </g>
</svg>