<?xml version="1.0" encoding="UTF-8"?>
<svg width="50px" height="50px" viewBox="0 0 50 50" version="1.1" xmlns="http://www.w3.org/2000/svg" xmlns:xlink="http://www.w3.org/1999/xlink">
    <!-- Generator: Sketch 47.1 (45422) - http://www.bohemiancoding.com/sketch -->
    <title>icon-lumisade-2</title>
    <desc>Created with Sketch.</desc>
    <defs></defs>
    <g id="layouts" stroke="none" stroke-width="1" fill="none" fill-rule="evenodd">
        <g id="icon-lumisade-2">
            <g>
                <circle id="bg" fill="#296AC9" cx="25" cy="25" r="25"></circle>
                <g id="hiutale" transform="translate(29.000000, 19.000000)" fill-rule="nonzero" fill="#FFFFFF">
                    <path d="M0.659865134,10.6765647 L11.6598651,4.32744191 C12.2912544,3.96300846 12.5076648,3.15573465 12.1432314,2.52434539 C11.7787979,1.89295613 10.9715241,1.67654569 10.3401349,2.04097914 L-0.659865134,8.39010195 C-1.29125439,8.7545354 -1.50766484,9.56180921 -1.14323139,10.1931985 C-0.778797937,10.8245877 0.0284758733,11.0409982 0.659865134,10.6765647 Z" id="line"></path>
                    <path d="M0.659865134,10.6765647 L11.6598651,4.32744191 C12.2912544,3.96300846 12.5076648,3.15573465 12.1432314,2.52434539 C11.7787979,1.89295613 10.9715241,1.67654569 10.3401349,2.04097914 L-0.659865134,8.39010195 C-1.29125439,8.7545354 -1.50766484,9.56180921 -1.14323139,10.1931985 C-0.778797937,10.8245877 0.0284758733,11.0409982 0.659865134,10.6765647 Z" id="line" transform="translate(5.500000, 6.358772) scale(-1, 1) translate(-5.500000, -6.358772) "></path>
                    <path d="M4.18,0.019294574 L4.18,12.6982491 C4.18,13.427265 4.77098413,14.0182491 5.5,14.0182491 C6.22901587,14.0182491 6.82,13.427265 6.82,12.6982491 L6.82,0.019294574 C6.82,-0.709721296 6.22901587,-1.30070543 5.5,-1.30070543 C4.77098413,-1.30070543 4.18,-0.709721296 4.18,0.019294574 Z" id="line"></path>
                </g>
                <g id="hiutale" transform="translate(10.000000, 19.000000)" fill-rule="nonzero" fill="#FFFFFF">
                    <path d="M0.659865134,10.6765647 L11.6598651,4.32744191 C12.2912544,3.96300846 12.5076648,3.15573465 12.1432314,2.52434539 C11.7787979,1.89295613 10.9715241,1.67654569 10.3401349,2.04097914 L-0.659865134,8.39010195 C-1.29125439,8.7545354 -1.50766484,9.56180921 -1.14323139,10.1931985 C-0.778797937,10.8245877 0.0284758733,11.0409982 0.659865134,10.6765647 Z" id="line"></path>
                    <path d="M0.659865134,10.6765647 L11.6598651,4.32744191 C12.2912544,3.96300846 12.5076648,3.15573465 12.1432314,2.52434539 C11.7787979,1.89295613 10.9715241,1.67654569 10.3401349,2.04097914 L-0.659865134,8.39010195 C-1.29125439,8.7545354 -1.50766484,9.56180921 -1.14323139,10.1931985 C-0.778797937,10.8245877 0.0284758733,11.0409982 0.659865134,10.6765647 Z" id="line" transform="translate(5.500000, 6.358772) scale(-1, 1) translate(-5.500000, -6.358772) "></path>
                    <path d="M4.18,0.019294574 L4.18,12.6982491 C4.18,13.427265 4.77098413,14.0182491 5.5,14.0182491 C6.22901587,14.0182491 6.82,13.427265 6.82,12.6982491 L6.82,0.019294574 C6.82,-0.709721296 6.22901587,-1.30070543 5.5,-1.30070543 C4.77098413,-1.30070543 4.18,-0.709721296 4.18,0.019294574 Z" id="line"></path>
                </g>
            </g>
        </g>
    </g>
</svg>