<?xml version="1.0" encoding="UTF-8"?>
<svg width="50px" height="50px" viewBox="0 0 50 50" version="1.1" xmlns="http://www.w3.org/2000/svg" xmlns:xlink="http://www.w3.org/1999/xlink">
    <!-- Generator: Sketch 43.2 (39069) - http://www.bohemiancoding.com/sketch -->
    <title>icon-sadetta</title>
    <desc>Created with Sketch.</desc>
    <defs></defs>
    <g id="layouts" stroke="none" stroke-width="1" fill="none" fill-rule="evenodd">
        <g id="icon-sadetta">
            <circle id="sadetta-bg" fill="#039EDC" cx="25" cy="25" r="25"></circle>
            <g id="icon" transform="translate(11.000000, 12.000000)" fill-rule="nonzero" fill="#FFFFFF">
                <path d="M21.6602357,23.9617047 C21.7698615,24.2066529 21.8313118,24.4814178 21.8313118,24.7716726 C21.8313118,25.8014706 21.0577961,26.6362869 20.1036163,26.6362869 C19.1494364,26.6362869 18.3759209,25.8014706 18.3759209,24.7716726 C18.3759209,24.4863464 18.4353019,24.2159885 18.5414542,23.9742083 L19.5113102,21.3098568 C19.8381581,20.4119526 20.3679457,20.4115746 20.6949312,21.3098568 L21.6602357,23.9617047 L21.6602357,23.9617047 Z" id="pisara-3"></path>
                <path d="M15.7321498,23.9617047 C15.8417756,24.2066529 15.9032258,24.4814178 15.9032258,24.7716726 C15.9032258,25.8014706 15.1297102,26.6362869 14.1755304,26.6362869 C13.2213505,26.6362869 12.4478349,25.8014706 12.4478349,24.7716726 C12.4478349,24.4863464 12.507216,24.2159885 12.6133683,23.9742083 L13.5832242,21.3098568 C13.9100722,20.4119526 14.4398598,20.4115746 14.7668453,21.3098568 L15.7321498,23.9617047 L15.7321498,23.9617047 Z" id="pisara-2"></path>
                <path d="M9.86134005,23.9617047 C9.9709658,24.2066529 10.0324161,24.4814178 10.0324161,24.7716726 C10.0324161,25.8014706 9.25890047,26.6362869 8.30472063,26.6362869 C7.35054079,26.6362869 6.57702519,25.8014706 6.57702519,24.7716726 C6.57702519,24.4863464 6.6364063,24.2159885 6.74255853,23.9742083 L7.7124145,21.3098568 C8.03926242,20.4119526 8.56905004,20.4115746 8.89603552,21.3098568 L9.86134005,23.9617047 L9.86134005,23.9617047 Z" id="pisara-1"></path>
                <path d="M21.1236877,7.30546628 L19.4645813,7.57178339 L18.9162077,5.98343664 C18.0963769,3.60882249 15.9124033,2 13.4425999,2 C10.4296,2 7.9086296,4.38606559 7.65463324,7.48400348 L7.50405492,9.32057416 L5.21346675,9.32057416 C3.44914171,9.32057416 2,10.8049493 2,12.6602871 C2,14.515716 3.44931282,16 5.21346675,16 L21.7777778,16 C24.0987724,16 26,14.0526387 26,11.6267943 C26,9.20094976 24.0987724,7.25358852 21.7777778,7.25358852 C21.5565196,7.25358852 21.3381666,7.27103847 21.1236877,7.30546628 Z M20.8067086,5.33074497 C21.1231217,5.27995485 21.4474436,5.25358852 21.7777778,5.25358852 C25.2142162,5.25358852 28,8.10696992 28,11.6267943 C28,15.1466186 25.2142162,18 21.7777778,18 L5.21346675,18 C2.33414857,18 0,15.6099775 0,12.6602871 C0,9.71124511 2.33342724,7.32057416 5.21346675,7.32057416 L5.66132171,7.32057416 C5.99749201,3.22037877 9.35313749,0 13.4425999,0 C16.8421311,0 19.7342939,2.22452948 20.8067086,5.33074497 Z" id="pilvi"></path>
            </g>
        </g>
    </g>
</svg>