<?xml version="1.0" encoding="UTF-8"?>
<svg width="50px" height="50px" viewBox="0 0 50 50" version="1.1" xmlns="http://www.w3.org/2000/svg" xmlns:xlink="http://www.w3.org/1999/xlink">
    <!-- Generator: Sketch 58 (84663) - https://sketch.com -->
    <title>icon-puolipilvista</title>
    <desc>Created with Sketch.</desc>
    <g id="icon-puolipilvista" stroke="none" stroke-width="1" fill="none" fill-rule="evenodd">
        <g>
            <circle id="bg" fill="#A8AEBE" cx="25" cy="25" r="25"/>
            <g id="pilvi" transform="translate(15.000000, 17.000000)" fill="#FFFFFF" fill-rule="nonzero">
                <path d="M5.43090733,6.67539204 C6.25896264,2.84157036 9.56178171,0 13.4824142,0 C16.7510838,0 19.6474568,1.98579015 20.9751356,4.9663122 C21.0573134,4.96325502 21.1396852,4.96172249 21.2222222,4.96172249 C24.9748487,4.96172249 28,8.11324653 28,11.9808612 C28,15.848476 24.9748487,19 21.2222222,19 L5.84107627,19 C2.60560367,19 0,16.2859095 0,12.9569378 C0,9.8672773 2.24447697,7.30699274 5.15427414,6.95511337 L5.37939034,6.93242986 L5.43090733,6.67539204 Z M13.4824142,2 C10.2373677,2 7.52654452,4.60961792 7.25370828,7.99422584 L7.1795745,8.9138756 L5.84107627,8.9138756 C3.72864407,8.9138756 2,10.7148166 2,12.9569378 C2,15.1291105 3.62247355,16.8870177 5.64421819,16.9947656 L5.84107627,17 L21.2222222,17 C23.8515529,17 26,14.7618036 26,11.9808612 C26,9.19991888 23.8515529,6.96172249 21.2222222,6.96172249 C20.9721215,6.96172249 20.7248279,6.98182309 20.4816442,7.02152583 L19.645805,7.15798686 L19.3735825,6.35602451 C18.492604,3.76067871 16.1426559,2 13.4824142,2 Z" id="Fill-07"/>
            </g>
            <g id="aurinko" transform="translate(7.000000, 8.000000)" fill="#FFFFFF">
                <g id="lines" transform="translate(11.000000, 0.000000)">
                    <rect id="Fill-06" x="0" y="0" width="2" height="4" rx="1"/>
                </g>
                <g id="lines" transform="translate(2.000000, 12.000000) rotate(90.000000) translate(-2.000000, -12.000000) translate(1.000000, 10.000000)">
                    <rect id="Fill-05" x="0" y="0" width="2" height="4" rx="1"/>
                </g>
                <g id="lines" transform="translate(12.000000, 12.000000) rotate(45.000000) translate(-12.000000, -12.000000) translate(11.000000, 0.000000)">
                    <rect id="Fill-04" x="0" y="0" width="2" height="4" rx="1"/>
                    <rect id="Fill-03" x="0" y="20" width="2" height="4" rx="1"/>
                </g>
                <g id="lines" transform="translate(4.928932, 4.928932) scale(-1, 1) rotate(45.000000) translate(-4.928932, -4.928932) translate(3.928932, 2.928932)">
                    <rect id="Fill-02" x="0" y="0" width="2" height="4" rx="1"/>
                </g>
                <path d="M12,6 C15.2383969,6 17.8775718,8.56557489 17.9958615,11.7750617 L18,12 L16,12 C16,9.790861 14.209139,8 12,8 C9.790861,8 8,9.790861 8,12 C8,14.209139 9.790861,16 12,16 C12.7290322,16 13.4125119,15.8049665 14.0011092,15.4642293 L14.0006859,17.6583461 C13.3749342,17.8796036 12.7015272,18 12,18 C8.6862915,18 6,15.3137085 6,12 C6,8.6862915 8.6862915,6 12,6 Z" id="Fill-01" fill-rule="nonzero"/>
            </g>
        </g>
    </g>
</svg>