<?xml version="1.0" encoding="UTF-8"?>
<svg width="50px" height="50px" viewBox="0 0 50 50" version="1.1" xmlns="http://www.w3.org/2000/svg" xmlns:xlink="http://www.w3.org/1999/xlink">
    <!-- Generator: Sketch 47.1 (45422) - http://www.bohemiancoding.com/sketch -->
    <title>icon-tieliikennehairio</title>
    <desc>Created with Sketch.</desc>
    <defs></defs>
    <g id="layouts" stroke="none" stroke-width="1" fill="none" fill-rule="evenodd">
        <g id="icon-tieliikennehairio">
            <g>
                <circle id="bg" fill="#F8E200" cx="25" cy="25" r="25"></circle>
                <g id="icon" transform="translate(11.111111, 10.000000)" fill="#231F20">
                    <path d="M25.7463938,7.81399741 C26.1351856,7.88271868 26.373299,8.25266221 26.2755268,8.63613411 L24.9756299,13.7315107 C24.8777858,14.1149826 24.4796619,14.3724535 24.0907983,14.3037323 L16.7304587,13.0027774 C16.3416669,12.9340561 16.0010433,12.8738261 15.9736212,12.8690048 C15.9462708,12.8641835 15.6056473,12.8039534 15.2168555,12.7352322 L7.85651581,11.4342773 C7.46765223,11.365556 7.18137054,10.9870493 7.22027843,10.5932152 L7.73735141,5.3594606 C7.7762593,4.96555458 8.12621499,4.69959246 8.51500677,4.76831373 L25.7463938,7.81399741 Z" id="Fill-1"></path>
                    <path d="M13.3763542,7.19594482e-06 C13.0207992,7.19594482e-06 12.6326535,0.211783854 12.4633109,0.515596648 L9.84693451,5.21073481 C9.65440504,5.55628409 9.53638922,6.16038366 9.58470105,6.55313833 C9.58470105,6.55313833 10.0359465,10.2209834 15.9563352,11.336139 C16.7965159,11.4943778 17.5612499,11.5623795 18.2539109,11.5623795 C22.4423958,11.5623795 24.0193141,9.08092986 24.0193141,9.08092986 C24.2315128,8.74718193 24.3535486,8.15437999 24.2905207,7.76371214 L23.4338292,2.45461596 C23.3708013,2.06394811 23.0011045,1.68803195 22.6123127,1.61931068 L13.5203565,0.0123122617 C13.4734086,0.00403692509 13.4251685,7.19594482e-06 13.3763542,7.19594482e-06 M13.9092201,2.20002343 L21.5004228,3.54185127 L22.2207931,8.00607157 C21.9355164,8.33945969 20.7779707,9.47555547 18.2539109,9.47555547 C17.6549303,9.47555547 17.011299,9.41151157 16.3408198,9.28522273 C12.5387577,8.56901034 11.784002,6.72123561 11.6611765,6.30775661 C11.6672783,6.26695561 11.6775437,6.21910257 11.6875219,6.18686474 L13.9092201,2.20002343" id="Fill-4"></path>
                    <path d="M20.2599358,14.9969824 C20.1913804,15.3867148 20.4533985,15.7618394 20.842262,15.8306326 L22.2035358,16.0711931 C22.5923276,16.1399143 22.9665469,15.8772623 23.0351023,15.48753 L23.345504,13.7231562 C23.4140594,13.3333519 23.1519695,12.9582273 22.7631777,12.889506 L21.401904,12.6489456 C21.0130404,12.5802243 20.6388211,12.8428763 20.5702657,13.2326087 L20.2599358,14.9969824 Z" id="Fill-6"></path>
                    <path d="M8.44462082,12.9085825 C8.3760654,13.2983148 8.63808349,13.6734395 9.02694707,13.7422327 L10.3882208,13.9827931 C10.7770126,14.0515144 11.1512319,13.7888624 11.2197873,13.39913 L11.530189,11.6347563 C11.5987444,11.244952 11.3366546,10.8698274 10.9478628,10.8011061 L9.58658902,10.5605457 C9.19772544,10.4918244 8.82350617,10.7544764 8.75495075,11.1442087 L8.44462082,12.9085825 Z" id="Fill-8"></path>
                    <path d="M6.82945511,28.5191847 C6.87022943,28.2813587 6.93404699,28.0184908 7.02751208,27.7337473 C7.15837755,27.3229308 7.34616916,26.8702339 7.56777186,26.3937184 C7.78980528,25.9169871 8.04830588,25.4148541 8.31958434,24.8973217 C8.59172424,24.3782782 8.87628307,23.8433317 9.15115083,23.2937054 C9.42544429,22.7437913 9.69040561,22.1813562 9.91775118,21.6069759 C10.1468196,21.0357618 10.3356162,20.4501558 10.467702,19.8775745 C10.5964857,19.3018989 10.6686304,18.7395358 10.673799,18.2186213 C10.680188,17.6976349 10.6266358,17.2238539 10.5437232,16.819154 C10.4615285,16.4137344 10.3529166,16.0758848 10.2481811,15.8085555 C10.2218357,15.7412734 10.1989361,15.6791724 10.1735957,15.6187984 C10.147035,15.5580646 10.1220535,15.5011447 10.0988667,15.4481825 C10.0755363,15.395868 10.0540006,15.3475113 10.0342595,15.3031843 C10.0145184,15.2659812 9.99657197,15.2321603 9.98049195,15.2017934 C9.91631546,15.0806137 9.88207365,15.0159941 9.88207365,15.0159941 L9.10197757,15.2710184 C9.10197757,15.2710184 9.10944329,15.344417 9.12344152,15.4820035 C9.12695902,15.5164001 9.13083545,15.5548264 9.1351426,15.5971386 C9.13657831,15.6370041 9.13808581,15.6804676 9.13980867,15.7275291 C9.14138796,15.773799 9.14303903,15.823523 9.14483368,15.8765571 C9.14583868,15.9298071 9.14390046,15.9884541 9.14346975,16.0486122 C9.14203403,16.2901081 9.12006758,16.5802486 9.0599111,16.8977337 C9.00068783,17.2152188 8.90155167,17.5592569 8.75137581,17.9094116 C8.6019896,18.26007 8.39539013,18.6159814 8.14536025,18.9699499 C7.89009002,19.3239185 7.59074331,19.6763758 7.24595621,20.0278978 C6.90425589,20.3797795 6.51984303,20.7311574 6.11073587,21.0885081 C5.70105442,21.4457867 5.26402259,21.8098296 4.81435646,22.1896316 C4.36375711,22.5708008 3.90052347,22.967945 3.43786411,23.3983344 C2.97577904,23.8295154 2.51390933,24.2909194 2.07536999,24.8070126 C1.63639994,25.3185004 1.2221242,25.8899303 0.864343871,26.5078461 C0.509578543,27.1300075 0.212816126,27.8004537 0.0114570106,28.4787435 C0.00743700688,28.4922719 0.00399128941,28.5057283 -2.87143118e-05,28.5191847 L6.82945511,28.5191847 Z" id="Fill-10"></path>
                    <path d="M19.0363184,28.5191847 C19.070991,28.3169067 19.125261,28.0933287 19.2047997,27.8511851 C19.3160676,27.50175 19.475791,27.116695 19.6642287,26.7114194 C19.8531688,26.3059279 20.0729769,25.8788486 20.3036964,25.4386726 C20.5351338,24.9972734 20.7771954,24.5422018 21.0110017,24.0747532 C21.2443055,23.6070168 21.469641,23.1287024 21.6629602,22.6401697 C21.8578586,22.1543714 22.0183716,21.6562681 22.1307881,21.1693185 C22.2402614,20.6796345 22.3016382,20.20132 22.3060172,19.7582657 C22.3114729,19.3152114 22.2658889,18.9122385 22.1953953,18.5679845 C22.1254759,18.2231548 22.0331594,17.9358207 21.9440015,17.7085008 C21.9216043,17.6512211 21.9021504,17.5984028 21.8806146,17.5470238 C21.8580021,17.4954289 21.8367535,17.4470002 21.8170124,17.4019535 C21.7971996,17.3574826 21.7788942,17.3163218 21.7620963,17.278687 C21.7452984,17.2469529 21.7300081,17.2181691 21.7163688,17.1924076 C21.6617398,17.0893617 21.6326666,17.0343847 21.6326666,17.0343847 L20.9691506,17.2512705 C20.9691506,17.2512705 20.9754677,17.3136593 20.9873842,17.4307373 C20.9903992,17.4600248 20.9937013,17.4926944 20.9973624,17.5286022 C20.9985828,17.562567 20.9998749,17.5995542 21.0013106,17.6395636 C21.0026745,17.6789255 21.0041103,17.7211657 21.0056178,17.7662842 C21.0064074,17.8115467 21.0048281,17.8614866 21.0044692,17.9126497 C21.0032488,18.118022 20.9845127,18.3648429 20.9334013,18.6348348 C20.8830076,18.9048986 20.7986594,19.1974857 20.6709525,19.4953259 C20.5438916,19.7935258 20.36816,20.0962592 20.1555305,20.3973376 C19.9384503,20.6984159 19.6838262,20.998127 19.3905095,21.2971185 C19.0999924,21.5963979 18.7730082,21.8952455 18.4249907,22.1992022 C18.0766143,22.5030869 17.7049076,22.8127284 17.3224329,23.1357544 C16.9391686,23.4599317 16.5452083,23.7977094 16.1516786,24.1637671 C15.7587233,24.5304724 15.3658397,24.9229393 14.9928408,25.3618919 C14.6194829,25.7969587 14.2671583,26.2829009 13.9628584,26.8084927 C13.661071,27.3376105 13.4086722,27.9078892 13.2374631,28.4847881 C13.2340174,28.4963016 13.2310741,28.5077431 13.2277002,28.5191847 L19.0363184,28.5191847 Z" id="Fill-13"></path>
                </g>
            </g>
        </g>
    </g>
</svg>