<?xml version="1.0" encoding="UTF-8" standalone="no"?>
<svg width="45px" height="45px" viewBox="0 0 45 45" version="1.1" xmlns="http://www.w3.org/2000/svg" xmlns:xlink="http://www.w3.org/1999/xlink">
    <!-- Generator: Sketch 3.8.2 (29753) - http://www.bohemiancoding.com/sketch -->
    <title>loading-spinner</title>
    <desc>Created with Sketch.</desc>
    <defs></defs>
    <g stroke="none" stroke-width="1" fill="none" fill-rule="evenodd">
        <g transform="translate(-165.000000, -999.000000)" fill="#8AB6D7">
            <g transform="translate(165.000000, 999.000000)">
                <path d="M23.5714286,7.46945317 L23.5714286,1.1731096 C23.5714286,0.541927031 23.059754,0.0302524596 22.4285714,0.0302524596 C21.7973889,0.0302524596 21.2857143,0.541927031 21.2857143,1.1731096 L21.2857143,7.46945317 C21.2857143,8.10063574 21.7973889,8.61231031 22.4285714,8.61231031 C23.059754,8.61231031 23.5714286,8.10063574 23.5714286,7.46945317 L23.5714286,7.46945317 Z"></path>
                <path d="M23.5714286,43.6983909 L23.5714286,37.4020473 C23.5714286,36.7708648 23.059754,36.2591902 22.4285714,36.2591902 C21.7973889,36.2591902 21.2857143,36.7708648 21.2857143,37.4020473 L21.2857143,43.6983909 C21.2857143,44.3295735 21.7973889,44.841248 22.4285714,44.841248 C23.059754,44.841248 23.5714286,44.3295735 23.5714286,43.6983909 L23.5714286,43.6983909 Z"></path>
                <path d="M12.6084919,11.0636764 L8.15630464,6.61148914 C7.70999117,6.16517567 6.98637405,6.16517567 6.54006057,6.61148914 C6.09374709,7.05780262 6.09374709,7.78141974 6.54006057,8.22773321 L10.9922478,12.6799204 C11.4385613,13.1262339 12.1621784,13.1262339 12.6084919,12.6799204 C13.0548053,12.233607 13.0548053,11.5099898 12.6084919,11.0636764 L12.6084919,11.0636764 Z"></path>
                <path d="M38.2262194,36.6814039 L33.7740322,32.2292167 C33.3277187,31.7829032 32.6041016,31.7829032 32.1577881,32.2292167 C31.7114746,32.6755302 31.7114746,33.3991473 32.1577881,33.8454608 L36.6099753,38.297648 C37.0562888,38.7439615 37.7799059,38.7439615 38.2262194,38.297648 C38.6725329,37.8513345 38.6725329,37.1277174 38.2262194,36.6814039 L38.2262194,36.6814039 Z"></path>
                <path d="M33.8648951,12.6799204 L38.3170823,8.22773321 C38.7633958,7.78141974 38.7633958,7.05780262 38.3170823,6.61148914 C37.8707688,6.16517567 37.1471517,6.16517567 36.7008382,6.61148914 L32.248651,11.0636764 C31.8023375,11.5099898 31.8023375,12.233607 32.248651,12.6799204 C32.6949645,13.1262339 33.4185816,13.1262339 33.8648951,12.6799204 L33.8648951,12.6799204 Z"></path>
                <path d="M8.24716751,38.297648 L12.6993547,33.8454608 C13.1456682,33.3991473 13.1456682,32.6755302 12.6993547,32.2292167 C12.2530413,31.7829032 11.5294241,31.7829032 11.0831107,32.2292167 L6.63092344,36.6814039 C6.18460996,37.1277174 6.18460996,37.8513345 6.63092344,38.297648 C7.07723692,38.7439615 7.80085404,38.7439615 8.24716751,38.297648 L8.24716751,38.297648 Z"></path>
                <path d="M37.5305468,23.5714286 L43.8268904,23.5714286 C44.458073,23.5714286 44.9697475,23.059754 44.9697475,22.4285714 C44.9697475,21.7973889 44.458073,21.2857143 43.8268904,21.2857143 L37.5305468,21.2857143 C36.8993643,21.2857143 36.3876897,21.7973889 36.3876897,22.4285714 C36.3876897,23.059754 36.8993643,23.5714286 37.5305468,23.5714286 L37.5305468,23.5714286 Z"></path>
                <path d="M1.24483255,23.5714286 L7.54117611,23.5714286 C8.17235868,23.5714286 8.68403325,23.059754 8.68403325,22.4285714 C8.68403325,21.7973889 8.17235868,21.2857143 7.54117611,21.2857143 L1.24483255,21.2857143 C0.613649977,21.2857143 0.101975406,21.7973889 0.101975406,22.4285714 C0.101975406,23.059754 0.613649977,23.5714286 1.24483255,23.5714286 L1.24483255,23.5714286 Z"></path>
                <path d="M30.3864976,8.76639977 L30.3864976,2.47005621 C30.3864976,1.83887364 29.874823,1.32719906 29.2436404,1.32719906 C28.6124579,1.32719906 28.1007833,1.83887364 28.1007833,2.47005621 L28.1007833,8.76639977 C28.1007833,9.39758234 28.6124579,9.90925691 29.2436404,9.90925691 C29.874823,9.90925691 30.3864976,9.39758234 30.3864976,8.76639977 L30.3864976,8.76639977 Z" transform="translate(29.243640, 5.618228) rotate(22.000000) translate(-29.243640, -5.618228) "></path>
                <path d="M16.8148986,42.3572859 L16.8148986,36.0609423 C16.8148986,35.4297598 16.3032241,34.9180852 15.6720415,34.9180852 C15.0408589,34.9180852 14.5291843,35.4297598 14.5291843,36.0609423 L14.5291843,42.3572859 C14.5291843,42.9884685 15.0408589,43.500143 15.6720415,43.500143 C16.3032241,43.500143 16.8148986,42.9884685 16.8148986,42.3572859 L16.8148986,42.3572859 Z" transform="translate(15.672041, 39.209114) rotate(22.000000) translate(-15.672041, -39.209114) "></path>
                <path d="M18.364997,7.15761525 L13.9128098,2.70542802 C13.4664963,2.25911454 12.7428792,2.25911454 12.2965657,2.70542802 C11.8502522,3.1517415 11.8502522,3.87535861 12.2965657,4.32167209 L16.7487529,8.77385932 C17.1950664,9.2201728 17.9186835,9.2201728 18.364997,8.77385932 C18.8113105,8.32754585 18.8113105,7.60392873 18.364997,7.15761525 L18.364997,7.15761525 Z" transform="translate(15.330781, 5.739644) rotate(22.000000) translate(-15.330781, -5.739644) "></path>
                <path d="M32.5207707,40.5065283 L28.0685835,36.054341 C27.62227,35.6080276 26.8986529,35.6080276 26.4523394,36.054341 C26.0060259,36.5006545 26.0060259,37.2242716 26.4523394,37.6705851 L30.9045266,42.1227723 C31.3508401,42.5690858 32.0744572,42.5690858 32.5207707,42.1227723 C32.9670842,41.6764589 32.9670842,40.9528417 32.5207707,40.5065283 L32.5207707,40.5065283 Z" transform="translate(29.486555, 39.088557) rotate(22.000000) translate(-29.486555, -39.088557) "></path>
                <path d="M37.7493997,18.4044668 L42.2015869,13.9522796 C42.6479004,13.5059661 42.6479004,12.782349 42.2015869,12.3360355 C41.7552735,11.889722 41.0316564,11.889722 40.5853429,12.3360355 L36.1331556,16.7882227 C35.6868422,17.2345362 35.6868422,17.9581533 36.1331556,18.4044668 C36.5794691,18.8507803 37.3030862,18.8507803 37.7493997,18.4044668 L37.7493997,18.4044668 Z" transform="translate(39.167371, 15.370251) rotate(22.000000) translate(-39.167371, -15.370251) "></path>
                <path d="M4.4004867,32.5602405 L8.85267393,28.1080533 C9.29898741,27.6617398 9.29898741,26.9381227 8.85267393,26.4918092 C8.40636046,26.0454957 7.68274334,26.0454957 7.23642986,26.4918092 L2.78424263,30.9439964 C2.33792916,31.3903099 2.33792916,32.113927 2.78424263,32.5602405 C3.23055611,33.006554 3.95417323,33.006554 4.4004867,32.5602405 L4.4004867,32.5602405 Z" transform="translate(5.818458, 29.526025) rotate(22.000000) translate(-5.818458, -29.526025) "></path>
                <path d="M36.2336002,30.3864976 L42.5299438,30.3864976 C43.1611264,30.3864976 43.6728009,29.874823 43.6728009,29.2436404 C43.6728009,28.6124579 43.1611264,28.1007833 42.5299438,28.1007833 L36.2336002,28.1007833 C35.6024177,28.1007833 35.0907431,28.6124579 35.0907431,29.2436404 C35.0907431,29.874823 35.6024177,30.3864976 36.2336002,30.3864976 L36.2336002,30.3864976 Z" transform="translate(39.381772, 29.243640) rotate(22.000000) translate(-39.381772, -29.243640) "></path>
                <path d="M2.59007179,16.7936298 L8.88641536,16.7936298 C9.51759793,16.7936298 10.0292725,16.2819552 10.0292725,15.6507726 C10.0292725,15.01959 9.51759793,14.5079155 8.88641536,14.5079155 L2.59007179,14.5079155 C1.95888922,14.5079155 1.44721465,15.01959 1.44721465,15.6507726 C1.44721465,16.2819552 1.95888922,16.7936298 2.59007179,16.7936298 L2.59007179,16.7936298 Z" transform="translate(5.738244, 15.650773) rotate(22.000000) translate(-5.738244, -15.650773) "></path>
            </g>
        </g>
    </g>
</svg>