<?xml version="1.0" encoding="UTF-8"?>
<svg width="36px" height="36px" viewBox="0 0 36 36" version="1.1" xmlns="http://www.w3.org/2000/svg" xmlns:xlink="http://www.w3.org/1999/xlink">
    <!-- Generator: Sketch 41.2 (35397) - http://www.bohemiancoding.com/sketch -->
    <title>pause-button</title>
    <desc>Created with Sketch.</desc>
    <defs></defs>
    <g id="layouts" stroke="none" stroke-width="1" fill="none" fill-rule="evenodd">
        <g id="etusivu-mobile-portrait-copy" transform="translate(-12.000000, -1158.000000)" fill="#FFFFFF">
            <g id="sadetutka" transform="translate(0.000000, 762.000000)">
                <g transform="translate(0.000000, 21.000000)" id="slider-blue">
                    <g transform="translate(0.000000, 333.000000)">
                        <g id="pause-button" transform="translate(12.000000, 42.000000)">
                            <path d="M18,34 C26.836556,34 34,26.836556 34,18 C34,9.163444 26.836556,2 18,2 C9.163444,2 2,9.163444 2,18 C2,26.836556 9.163444,34 18,34 Z M18,36 C8.0588745,36 0,27.9411255 0,18 C0,8.0588745 8.0588745,0 18,0 C27.9411255,0 36,8.0588745 36,18 C36,27.9411255 27.9411255,36 18,36 Z" id="oval"></path>
                            <path d="M14,14 L14,22 C14,22.5522847 14.4477153,23 15,23 C15.5522847,23 16,22.5522847 16,22 L16,14 C16,13.4477153 15.5522847,13 15,13 C14.4477153,13 14,13.4477153 14,14 Z" id="Line"></path>
                            <path d="M20,14 L20,22 C20,22.5522847 20.4477153,23 21,23 C21.5522847,23 22,22.5522847 22,22 L22,14 C22,13.4477153 21.5522847,13 21,13 C20.4477153,13 20,13.4477153 20,14 Z" id="Line"></path>
                        </g>
                    </g>
                </g>
            </g>
        </g>
    </g>
</svg>