<?xml version="1.0" encoding="UTF-8" standalone="no"?>
<svg width="80px" height="80px" viewBox="0 0 80 80" version="1.1" xmlns="http://www.w3.org/2000/svg" xmlns:xlink="http://www.w3.org/1999/xlink">
    <!-- Generator: Sketch 3.8.2 (29753) - http://www.bohemiancoding.com/sketch -->
    <title>kaamos</title>
    <desc>Created with Sketch.</desc>
    <defs></defs>
    <g id="Page-1" stroke="none" stroke-width="1" fill="none" fill-rule="evenodd">
        <g id="kaamos" fill="#FFFFFF">
            <g transform="translate(15.000000, 17.000000)">
                <g id="Group-3" transform="translate(0.000000, 8.135237)">
                    <path d="M31.0442822,3.28793208 C30.9390842,3.28793208 30.8326485,3.27467351 30.7259653,3.24719212 C28.8507178,2.76241065 26.9056683,2.51652447 24.9455198,2.51652447 L24.907401,2.51652447 C24.2237376,2.51652447 23.6697772,1.97702128 23.6697772,1.31120008 C23.6697772,0.645619956 24.2237376,0.105875694 24.907401,0.105875694 L24.9455198,0.105875694 C27.1200248,0.105875694 29.2784406,0.379002201 31.3611139,0.917300073 C32.0217574,1.08821507 32.4150743,1.74800964 32.2398267,2.3914118 C32.0925495,2.93139713 31.5918069,3.28793208 31.0442822,3.28793208 M13.062599,5.62312755 C12.6356188,5.62312755 12.2205198,5.40785662 11.9908168,5.02239388 C11.6477475,4.44673095 11.8487376,3.70931349 12.4400743,3.3749565 C14.3269554,2.30824442 16.3499752,1.4881417 18.452203,0.937549523 C19.1133416,0.764947071 19.7913119,1.14558851 19.9687871,1.78826748 C20.1465099,2.43118751 19.7551733,3.09242847 19.0952723,3.26551305 C17.202698,3.76114244 15.3816584,4.49952416 13.682401,5.45992663 C13.4868564,5.57033435 13.2732426,5.62312755 13.062599,5.62312755 M4.39428218,14.0847458 C4.18438119,14.0847458 3.97175743,14.0326758 3.77695545,13.9232324 C3.18487624,13.5903218 2.98190594,12.8533864 3.3234901,12.2767592 C4.41061881,10.4415323 5.74279703,8.74829263 7.28289604,7.24404779 C7.76532178,6.77276596 8.54923267,6.77131957 9.03314356,7.24163714 C9.51730198,7.71171366 9.51829208,8.47492506 9.03586634,8.9462069 C7.64774752,10.3019558 6.44700495,11.8278964 5.4675495,13.4813604 C5.23834158,13.8682696 4.82200495,14.0847458 4.39428218,14.0847458 M47.8380941,19.5831946 C47.292302,19.5831946 46.7925495,19.2288293 46.6435396,18.6910135 C46.1338861,16.8483136 45.3749752,15.0750404 44.387599,13.4210942 C44.0442822,12.8456724 44.2447772,12.1077728 44.8358663,11.7734158 C45.427203,11.4385767 46.1841337,11.6343213 46.5279455,12.2099843 C47.6239851,14.0468986 48.467302,16.0166398 49.0338861,18.0640038 C49.2116089,18.7066827 48.8207673,19.3681648 48.1606188,19.5412493 C48.0529455,19.569695 47.9445297,19.5831946 47.8380941,19.5831946 M1.23759901,25.6307892 C0.553935644,25.6307892 -2.47524758e-05,25.091045 -2.47524758e-05,24.4254648 L-2.47524758e-05,24.4006352 C-2.47524758e-05,22.2780589 0.281658416,20.171634 0.836608911,18.1396981 C1.01259901,17.496296 1.68982673,17.1144492 2.35096535,17.2848821 C3.01136139,17.4560382 3.40443069,18.1163149 3.22868812,18.759717 C2.72868812,20.5893994 2.47522277,22.4873032 2.47522277,24.4006352 L2.47522277,24.4254648 C2.47522277,25.091045 1.92126238,25.6307892 1.23759901,25.6307892 M47.852698,31.5809936 C47.747005,31.5809936 47.6395792,31.567735 47.532401,31.5397715 C46.872005,31.3678923 46.4799257,30.7071334 46.6564109,30.0642134 C47.1603713,28.227058 47.4160644,26.3214401 47.4160644,24.4006352 L47.4160644,24.3509758 C47.4160644,23.6853957 47.9700248,23.1456514 48.6536881,23.1456514 C49.337104,23.1456514 49.8913119,23.6853957 49.8913119,24.3509758 L49.8913119,24.4006352 C49.8913119,26.5314076 49.607401,28.6462698 49.0475,30.6864018 C48.8999752,31.2251818 48.3994802,31.5809936 47.852698,31.5809936 M4.42175743,37.1696007 C3.99477723,37.1696007 3.57943069,36.9543297 3.34997525,36.5686259 C2.25542079,34.7300241 1.41457921,32.7595598 0.850470297,30.7119547 C0.673242574,30.0687936 1.06482673,29.4077937 1.72497525,29.2354323 C2.38537129,29.0623478 3.06383663,29.4441945 3.24106436,30.0871146 C3.74898515,31.9302966 4.50591584,33.7042931 5.49131188,35.3596856 C5.83413366,35.9355896 5.63264851,36.673007 5.04131188,37.0068819 C4.84601485,37.1172896 4.63240099,37.1696007 4.42175743,37.1696007 M41.7135891,41.9289446 C41.3967574,41.9289446 41.0801733,41.8113049 40.8385891,41.5762666 C40.3551733,41.1054669 40.3549257,40.3422555 40.8380941,39.8714558 C42.227698,38.5176355 43.4299257,36.9929001 44.4116089,35.3399182 C44.7539356,34.7637732 45.5108663,34.5665821 46.1024505,34.9002159 C46.6942822,35.2333676 46.8965099,35.970785 46.5541832,36.5469301 C45.4648267,38.3814338 44.1306683,40.0734682 42.5888366,41.5757845 C42.3472525,41.8110638 42.0304208,41.9289446 41.7135891,41.9289446 M13.1034406,45.6136212 C12.8932921,45.6136212 12.6806683,45.5615512 12.4853713,45.4518667 C10.6009653,44.3916633 8.86334158,43.0932879 7.32002475,41.592418 C6.83636139,41.1218593 6.83586634,40.358889 7.31878713,39.8878482 C7.80195545,39.4165664 8.58537129,39.4163253 9.06928218,39.8866429 C10.4598762,41.2392579 12.0257178,42.4091458 13.7234901,43.3644859 C14.3155693,43.6973965 14.5180446,44.4345729 14.1762129,45.010959 C13.947005,45.3976271 13.5309158,45.6136212 13.1034406,45.6136212 M31.0925495,47.9116927 C30.5460149,47.9116927 30.0460149,47.5566041 29.8977475,47.0178241 C29.7210149,46.3749041 30.1128465,45.7141453 30.772995,45.5417839 C32.6663119,45.048083 34.4880941,44.3116298 36.1878465,43.3529148 C36.7801733,43.019281 37.5368564,43.216231 37.8791832,43.792135 C38.2217574,44.3682801 38.0200248,45.1056975 37.4284406,45.4390902 C35.5403218,46.5038738 33.5165594,47.3218069 31.4135891,47.8702295 C31.3064109,47.8984341 31.1984901,47.9116927 31.0925495,47.9116927 M24.9581436,48.6951535 L24.9455198,48.6951535 C22.7623515,48.6951535 20.5950248,48.4198575 18.5041832,47.8772204 C17.8435396,47.7058233 17.4509653,47.0455466 17.6269554,46.4021444 C17.8029455,45.7592244 18.4814109,45.3771366 19.1413119,45.5478105 C21.0247277,46.0366901 22.9774505,46.2845048 24.9455198,46.2845048 C25.6291832,46.2845048 26.1895792,46.824249 26.1895792,47.4898292 C26.1895792,48.1554093 25.6418069,48.6951535 24.9581436,48.6951535" id="Fill-1"></path>
                </g>
                <path d="M32.1537129,31.2106184 C30.235396,31.2106184 28.6809406,29.696731 28.6809406,27.8284781 C28.6809406,27.497255 28.7443069,27.1829064 28.8371287,26.8801289 C29.5972772,27.8617451 30.7928218,28.5049062 32.1537129,28.5049062 C33.514604,28.5049062 34.7101485,27.8617451 35.470297,26.8801289 C35.5631188,27.1829064 35.6264851,27.497255 35.6264851,27.8284781 C35.6264851,29.696731 34.0720297,31.2106184 32.1537129,31.2106184 M24.9455446,44.5658537 C23.4537129,44.5658537 22.2445545,42.8352489 22.2445545,40.7006194 C22.2445545,38.5657489 23.4537129,36.8353852 24.9455446,36.8353852 C26.4373762,36.8353852 27.6465347,38.5657489 27.6465347,40.7006194 C27.6465347,42.8352489 26.4373762,44.5658537 24.9455446,44.5658537 M17.7373762,31.2106184 C15.8190594,31.2106184 14.264604,29.696731 14.264604,27.8284781 C14.264604,27.497255 14.3279703,27.1829064 14.4207921,26.8801289 C15.1809406,27.8617451 16.3764851,28.5049062 17.7373762,28.5049062 C19.0982673,28.5049062 20.2938119,27.8617451 21.0539604,26.8801289 C21.1467822,27.1829064 21.2101485,27.497255 21.2101485,27.8284781 C21.2101485,29.696731 19.6556931,31.2106184 17.7373762,31.2106184 M24.9455446,14.6236673 C14.7878713,14.6236673 6.55346535,22.6431726 6.55346535,32.535752 C6.55346535,42.4283314 14.7878713,50.4478367 24.9455446,50.4478367 C35.1032178,50.4478367 43.3376238,42.4283314 43.3376238,32.535752 C43.3376238,22.6431726 35.1032178,14.6236673 24.9455446,14.6236673" id="Fill-4"></path>
                <path d="M42.9998648,15.9996215 L38.0001352,15.9996215 C37.596157,15.9996215 37.2301768,15.7556347 37.0761851,15.3826549 C36.9211935,15.0086751 37.0071889,14.5786983 37.2931734,14.2927138 L40.5859953,10.9998919 L38.0001352,10.9998919 C37.4471651,10.9998919 37.0001892,10.5519161 37.0001892,9.99994593 C37.0001892,9.44797578 37.4471651,9 38.0001352,9 L42.9998648,9 C43.403843,9 43.7688232,9.24398681 43.9238149,9.61696664 C44.0788065,9.99094642 43.9928111,10.4209232 43.7068266,10.7069077 L40.4140047,13.9997296 L42.9998648,13.9997296 C43.5528349,13.9997296 43.9998108,14.4477054 43.9998108,14.9996756 C43.9998108,15.5516457 43.5528349,15.9996215 42.9998648,15.9996215" id="Fill-1"></path>
                <path d="M55.8421053,11.0526316 L48.1052632,11.0526316 C47.6708947,11.0526316 47.2785263,10.7984211 47.0994737,10.4038421 C46.9193158,10.0092632 46.9878421,9.54615789 47.273,9.219 L53.4061053,2.21052632 L48.1052632,2.21052632 C47.4940526,2.21052632 47,1.71536842 47,1.10526316 C47,0.495157895 47.4940526,0 48.1052632,0 L55.8421053,0 C56.2764737,0 56.6688421,0.253105263 56.8478947,0.648789474 C57.0280526,1.04336842 56.9595263,1.50647368 56.6743684,1.83363158 L50.5412632,8.84210526 L55.8421053,8.84210526 C56.4533158,8.84210526 56.9473684,9.33726316 56.9473684,9.94736842 C56.9473684,10.5574737 56.4533158,11.0526316 55.8421053,11.0526316" id="Fill-3"></path>
            </g>
        </g>
    </g>
</svg>