<?xml version="1.0" encoding="UTF-8"?>
<svg width="36px" height="39px" viewBox="0 0 36 39" version="1.1" xmlns="http://www.w3.org/2000/svg" xmlns:xlink="http://www.w3.org/1999/xlink">
    <!-- Generator: Sketch 41.2 (35397) - http://www.bohemiancoding.com/sketch -->
    <title>time-button</title>
    <desc>Created with Sketch.</desc>
    <defs></defs>
    <g id="layouts" stroke="none" stroke-width="1" fill="none" fill-rule="evenodd">
        <g id="etusivu-mobile-portrait-copy" transform="translate(-327.000000, -1158.000000)" fill="#FFFFFF">
            <g id="sadetutka" transform="translate(0.000000, 762.000000)">
                <g transform="translate(0.000000, 21.000000)" id="slider-blue">
                    <g transform="translate(0.000000, 333.000000)">
                        <g id="time-button" transform="translate(327.000000, 42.000000)">
                            <g>
                                <path d="M36,18 C36,8.0592 27.9408,0 18,0 C8.0592,0 0,8.0592 0,18 C0,27.9408 8.0592,36 18,36 C19.7737208,36 21.4875376,35.7434218 23.1063583,35.2653577 L22.5399099,33.3472502 C21.0795249,33.7785257 19.5556527,34 18,34 C9.1637695,34 2,26.8362305 2,18 C2,9.1637695 9.1637695,2 18,2 C26.8362305,2 34,9.1637695 34,18 C34,21.3623434 32.9625911,24.5637276 31.0594629,27.246188 L32.690636,28.4034582 C34.7748227,25.4657957 36,21.8759203 36,18 Z" id="oval-large"></path>
                                <path d="M33.5,32 C33.5,35.0374576 31.0374576,37.5 28,37.5 C24.9625424,37.5 22.5,35.0374576 22.5,32 C22.5,28.9625424 24.9625424,26.5 28,26.5 C31.0374576,26.5 33.5,28.9625424 33.5,32 Z M34.5,32 C34.5,28.4102576 31.5897424,25.5 28,25.5 C24.4102576,25.5 21.5,28.4102576 21.5,32 C21.5,35.5897424 24.4102576,38.5 28,38.5 C31.5897424,38.5 34.5,35.5897424 34.5,32 Z" id="oval-small"></path>
                                <path d="M28.5,29 C28.5,28.7238576 28.2761424,28.5 28,28.5 C27.7238576,28.5 27.5,28.7238576 27.5,29 L27.5,32.5 C27.5,32.7761424 27.7238576,33 28,33 L30.6199999,33 C30.8961423,33 31.1199999,32.7761424 31.1199999,32.5 C31.1199999,32.2238576 30.8961423,32 30.6199999,32 L28.5,32 L28.5,29 Z" id="lines"></path>
                            </g>
                        </g>
                    </g>
                </g>
            </g>
        </g>
    </g>
</svg>