<?xml version="1.0" encoding="UTF-8" standalone="no"?>
<svg width="80px" height="80px" viewBox="0 0 80 80" version="1.1" xmlns="http://www.w3.org/2000/svg" xmlns:xlink="http://www.w3.org/1999/xlink">
    <!-- Generator: Sketch 3.7.1 (28215) - http://www.bohemiancoding.com/sketch -->
    <title>varoitukset-off</title>
    <desc>Created with Sketch.</desc>
    <defs></defs>
    <g id="Page-1" stroke="none" stroke-width="1" fill="none" fill-rule="evenodd" opacity="0.5">
        <g id="varoitukset-off" fill="#FFFFFF">
            <path d="M37.948177,34.329238 L38.6177196,46.3888576 C38.6177196,47.2720678 39.3363709,47.9884203 40.2251482,47.9884203 L40.8245358,47.9884203 C41.7128747,47.9884203 42.431526,47.2720678 42.431526,46.3888576 L43.0984378,34.329238 C43.0984378,33.4464646 42.3806635,32.7305489 41.494517,32.7305489 L39.5556056,32.7305489 C38.6685821,32.7305489 37.948177,33.4464646 37.948177,34.329238 L37.948177,34.329238 L37.948177,34.329238 Z M19.2433372,59.0382667 L40.5243116,22.3163306 L61.805788,59.0382667 L19.2433372,59.0382667 L19.2433372,59.0382667 Z M43.3289718,20.1540689 C42.7530775,19.1587183 41.6786105,18.5395001 40.5223032,18.5395001 C39.3659959,18.5395001 38.2910268,19.1597186 37.7196514,20.1525684 L15.961694,57.6987949 C15.3797747,58.6951459 15.3792726,59.9350827 15.956171,60.9244312 C16.5300569,61.9212824 17.605026,62.5395001 18.7608312,62.5395001 L62.2877919,62.5395001 C63.4400825,62.5395001 64.5135454,61.9227829 65.0884354,60.9314337 C65.6698526,59.9340823 65.6688485,58.6951459 65.0904438,57.7037967 L43.3289718,20.1540689 L43.3289718,20.1540689 Z M40.521901,50.67569 C39.1775967,50.67569 38.0878825,51.7618248 38.0878825,53.1032867 C38.0878825,54.4430425 39.1775967,55.5325893 40.521901,55.5325893 C41.870772,55.5325893 42.9604862,54.4430425 42.9604862,53.1032867 C42.9604862,51.7618248 41.870772,50.67569 40.521901,50.67569 L40.521901,50.67569 L40.521901,50.67569 Z" id="Fill-1"></path>
        </g>
    </g>
</svg>