<?xml version="1.0" encoding="UTF-8" standalone="no"?>
<svg width="9px" height="13px" viewBox="0 0 9 13" version="1.1" xmlns="http://www.w3.org/2000/svg">
    <g stroke="none" stroke-width="1" fill="none" fill-rule="evenodd">
        <g transform="translate(-163.000000, -19.000000)" fill="#FFFFFF">
            <g>
                <g transform="translate(163.000000, 19.000000)">
                    <path d="M4.50982563,6.88311528 C3.2181697,6.88311528 2.16707332,5.82733487 2.16707332,4.52992289 C2.16707332,3.23251091 3.2181697,2.17673051 4.50982563,2.17673051 C5.80163828,2.17673051 6.85273466,3.23251091 6.85273466,4.52992289 C6.85273466,5.82733487 5.80163828,6.88311528 4.50982563,6.88311528 M4.50982563,0 C2.02320773,0 0,2.03222381 0,4.52992289 C0,5.18177718 0.132895442,5.80403749 0.394298269,6.37954565 C1.52187221,8.85756789 3.68408732,11.4745873 4.32004216,12.2174273 C4.36721378,12.2733095 4.43695254,12.3052647 4.50982563,12.3052647 C4.58332559,12.3052647 4.6525942,12.2733095 4.70023596,12.2174273 C5.33572065,11.4745873 7.49793576,8.85819755 8.62550971,6.37954565 C8.8875394,5.80403749 9.02043484,5.18177718 9.02043484,4.52992289 C9.01980798,2.03222381 6.99660025,0 4.50982563,0"/>
                </g>
            </g>
        </g>
    </g>
</svg>
