<?xml version="1.0" encoding="UTF-8"?>
<svg width="36px" height="36px" viewBox="0 0 36 36" version="1.1" xmlns="http://www.w3.org/2000/svg">
    <g id="layouts" stroke="none" stroke-width="1" fill="none" fill-rule="evenodd">
        <g id="etusivu-mobile-portrait-copy" transform="translate(-12.000000, -1158.000000)" fill="#FFFFFF">
            <g id="sadetutka" transform="translate(0.000000, 762.000000)">
                <g transform="translate(0.000000, 21.000000)" id="slider-blue">
                    <g transform="translate(0.000000, 333.000000)">
                        <g id="play-button" transform="translate(12.000000, 42.000000)">
                            <path d="M18,34 C26.836556,34 34,26.836556 34,18 C34,9.163444 26.836556,2 18,2 C9.163444,2 2,9.163444 2,18 C2,26.836556 9.163444,34 18,34 Z M18,36 C8.0588745,36 0,27.9411255 0,18 C0,8.0588745 8.0588745,0 18,0 C27.9411255,0 36,8.0588745 36,18 C36,27.9411255 27.9411255,36 18,36 Z"
                                  id="oval"/>
                            <path d="M15.6741689,22.970838 C14.8284488,23.4064254 14.1428571,22.9859139 14.1428571,22.0351524 L14.1428571,13.9657565 C14.1428571,13.0134044 14.8254858,12.5929576 15.6741689,13.030071 L23.7931697,17.2117539 C24.6388898,17.6473413 24.6418529,18.3520417 23.7931697,18.7891551 L15.6741689,22.970838 L15.6741689,22.970838 Z"
                                  id="play"/>
                        </g>
                    </g>
                </g>
            </g>
        </g>
    </g>
</svg>
