<?xml version="1.0" standalone="no"?>
<!DOCTYPE svg PUBLIC "-//W3C//DTD SVG 20010904//EN"
 "http://www.w3.org/TR/2001/REC-SVG-20010904/DTD/svg10.dtd">
<svg version="1.0" xmlns="http://www.w3.org/2000/svg"
 width="3140.000000pt" height="3140.000000pt" viewBox="0 0 3140.000000 3140.000000"
 preserveAspectRatio="xMidYMid meet">
<metadata>
Created by potrace 1.14, written by Peter Selinger 2001-2017
</metadata>
<g transform="translate(0.000000,3140.000000) scale(0.100000,-0.100000)"
fill="#000000" stroke="none">
<path d="M12718 18255 c-2 -2 -30 -6 -63 -9 -238 -23 -453 -76 -690 -169 -96
-37 -369 -174 -373 -188 -2 -5 -8 -9 -13 -9 -9 0 -87 -48 -99 -60 -3 -3 -31
-23 -62 -44 -32 -21 -65 -46 -75 -55 -10 -9 -31 -27 -48 -39 -93 -72 -227
-203 -335 -328 -46 -53 -155 -198 -180 -239 -13 -22 -27 -42 -30 -45 -4 -3
-17 -25 -31 -50 -13 -25 -27 -47 -30 -50 -8 -6 -150 -295 -153 -312 -2 -7 -9
-26 -15 -43 -17 -39 -72 -205 -77 -228 -2 -10 -6 -27 -9 -37 -3 -10 -8 -27
-10 -37 -2 -10 -9 -40 -15 -68 -14 -61 -16 -69 -25 -125 -26 -158 -29 -206
-29 -430 1 -223 4 -278 25 -395 6 -33 12 -69 13 -80 2 -11 6 -29 9 -40 4 -11
8 -36 11 -57 2 -20 9 -45 15 -57 6 -11 10 -24 9 -28 -2 -9 28 -116 42 -148 4
-11 27 -69 50 -130 140 -365 374 -700 680 -975 52 -47 129 -110 170 -140 41
-30 77 -58 78 -62 2 -5 9 -8 16 -8 7 0 21 -8 32 -18 10 -9 30 -23 44 -30 14
-7 45 -25 70 -40 72 -45 200 -113 200 -106 0 4 7 0 16 -7 9 -7 30 -19 48 -25
62 -24 141 -55 161 -64 30 -13 176 -59 205 -64 14 -3 26 -5 28 -7 2 -2 -3 -1
92 -21 41 -9 91 -19 110 -22 19 -3 45 -8 57 -10 111 -22 418 -34 558 -21 109
9 177 17 198 21 12 2 60 11 107 19 47 8 110 22 140 31 30 8 66 17 80 20 14 2
75 23 135 45 61 22 115 41 120 42 6 2 25 11 43 20 17 10 32 16 32 14 0 -5 157
74 245 123 73 41 231 148 305 207 110 88 191 165 344 326 39 41 171 215 214
282 82 127 92 144 92 154 0 5 3 11 8 13 7 3 53 94 106 208 27 60 86 215 91
243 2 9 6 20 9 25 6 9 57 199 62 232 2 14 6 39 9 55 3 17 9 55 15 85 38 214
40 556 6 760 -9 50 -18 106 -21 125 -6 41 -56 232 -82 310 -47 145 -156 389
-207 460 -11 17 -20 31 -18 33 3 3 -70 121 -95 152 -13 15 -23 33 -23 39 0 6
-4 11 -8 11 -4 0 -15 12 -24 28 -9 15 -25 37 -35 48 -10 12 -34 41 -53 64 -19
24 -51 60 -70 81 -19 21 -42 46 -51 56 -27 32 -162 156 -219 203 -30 25 -57
47 -60 50 -3 3 -21 17 -40 30 -19 13 -37 27 -40 30 -8 10 -229 150 -236 150
-4 0 -28 13 -53 28 -25 15 -73 40 -106 54 -33 15 -82 37 -110 49 -27 12 -54
23 -60 25 -5 2 -50 17 -100 35 -83 29 -201 64 -250 74 -19 3 -50 10 -105 20
-48 10 -65 13 -115 20 -27 4 -61 9 -75 11 -28 5 -477 14 -482 9z m411 -1129
c75 -13 251 -58 257 -67 3 -5 14 -9 25 -9 10 0 27 -4 37 -10 9 -5 51 -26 92
-45 160 -76 269 -153 403 -288 78 -78 187 -216 187 -236 0 -6 4 -11 9 -11 15
0 140 -267 161 -345 1 -5 4 -14 5 -20 2 -5 7 -28 13 -50 34 -130 50 -325 38
-465 -8 -85 -13 -124 -28 -190 -14 -65 -11 -55 -28 -110 -7 -25 -14 -48 -14
-52 -1 -3 -4 -10 -8 -14 -5 -4 -8 -14 -8 -21 0 -15 -87 -196 -121 -253 -150
-248 -429 -483 -704 -590 -35 -14 -60 -23 -70 -26 -5 -1 -30 -9 -55 -17 -110
-38 -259 -56 -430 -53 -91 2 -178 7 -195 11 -16 4 -39 8 -50 10 -65 11 -210
51 -230 63 -5 4 -15 7 -22 8 -48 8 -313 157 -313 177 0 6 -3 7 -6 4 -8 -8 -37
14 -137 105 -66 60 -108 107 -210 238 -22 27 -93 154 -124 220 -55 115 -100
268 -121 410 -9 61 -8 343 2 405 62 388 258 712 576 954 70 54 222 139 305
171 22 9 57 22 65 25 3 1 12 4 20 8 25 9 86 27 109 32 11 2 24 6 29 8 4 3 27
8 52 11 25 4 68 10 95 15 53 8 336 6 394 -3z"/>
<path d="M3524 17898 c-3 -5 -8 -30 -10 -56 -2 -26 -6 -65 -8 -87 -3 -22 -8
-65 -11 -95 -3 -30 -8 -75 -11 -100 -3 -25 -5 -52 -6 -60 0 -8 -4 -44 -8 -80
-11 -82 -21 -173 -25 -219 -2 -20 -4 -36 -5 -36 -1 0 -4 -24 -14 -119 -3 -33
-8 -71 -11 -85 -5 -34 -15 -115 -20 -165 -4 -42 -15 -130 -20 -157 -2 -8 -6
-40 -9 -70 -3 -30 -8 -63 -10 -74 -2 -11 -7 -47 -11 -80 -4 -33 -9 -71 -10
-85 -2 -14 -6 -47 -10 -75 -3 -27 -11 -79 -16 -115 -12 -72 -18 -125 -24 -185
-2 -22 -4 -40 -5 -40 -2 0 -9 -36 -14 -80 -3 -22 -8 -56 -11 -75 -3 -19 -7
-54 -10 -78 -2 -23 -9 -68 -14 -100 -5 -31 -12 -75 -15 -97 -3 -22 -9 -69 -15
-105 -5 -36 -12 -83 -16 -105 -3 -22 -10 -67 -15 -100 -8 -55 -15 -99 -25
-172 -5 -36 -15 -101 -21 -133 -2 -14 -7 -44 -10 -66 -2 -23 -7 -53 -10 -65
-3 -13 -6 -31 -6 -39 0 -8 -5 -37 -10 -65 -5 -27 -11 -63 -13 -80 -2 -16 -6
-43 -9 -60 -11 -67 -15 -92 -21 -135 -14 -98 -23 -151 -30 -190 -6 -31 -12
-72 -19 -130 -3 -25 -8 -56 -11 -70 -3 -14 -10 -54 -15 -90 -11 -73 -18 -116
-24 -145 -4 -18 -15 -101 -19 -150 -1 -13 3 -19 12 -17 32 7 299 9 348 2 29
-3 56 -4 60 -1 5 3 9 53 10 111 1 103 9 280 18 390 9 116 16 207 20 255 3 28
7 79 10 115 3 36 7 90 10 120 3 30 8 80 10 110 7 72 11 122 19 195 4 33 9 87
12 120 2 33 6 74 8 90 2 17 7 64 10 105 4 41 10 89 12 105 3 17 7 53 9 80 2
28 6 77 10 110 4 33 9 71 10 85 2 14 5 45 8 70 3 25 9 74 13 110 3 36 8 76 9
90 2 14 6 48 9 75 3 28 8 66 10 85 3 19 8 60 11 90 4 30 8 66 10 80 2 14 6 54
9 90 4 36 8 76 11 90 2 14 7 52 10 85 3 33 8 74 10 90 6 43 15 123 20 173 3
24 7 47 10 52 6 10 235 -435 235 -457 0 -6 3 -13 8 -15 4 -1 56 -100 116 -218
247 -488 496 -973 507 -984 5 -6 9 -18 9 -27 0 -10 3 -19 8 -21 4 -1 18 -25
31 -53 14 -27 30 -57 37 -65 7 -8 13 -18 13 -23 1 -4 70 -143 153 -310 84
-166 155 -309 158 -317 3 -8 54 -113 113 -233 59 -119 107 -222 107 -227 0 -6
5 -10 10 -10 6 0 10 -4 10 -10 0 -19 84 -189 96 -194 24 -9 50 6 63 37 31 70
162 358 206 452 26 55 63 134 82 175 41 88 292 595 327 660 13 25 27 52 30 60
4 8 19 38 34 65 26 47 61 112 197 370 32 61 62 112 67 113 4 2 8 11 8 21 0 9
4 21 9 27 5 5 23 34 39 64 16 30 48 91 72 135 55 100 98 182 143 265 19 36 47
88 62 115 15 28 45 84 67 125 23 41 52 95 66 120 13 25 40 74 60 110 19 36 49
90 66 120 17 30 40 72 51 93 23 44 40 48 41 10 0 -16 4 -57 8 -93 5 -36 9 -76
11 -90 1 -14 6 -52 10 -85 16 -134 26 -217 39 -345 4 -30 9 -77 12 -105 3 -27
7 -70 9 -95 4 -45 13 -126 20 -190 3 -19 7 -62 10 -95 3 -33 7 -76 9 -95 3
-19 8 -71 11 -115 4 -44 9 -98 11 -120 2 -22 6 -76 9 -120 3 -44 8 -93 10
-110 2 -16 7 -61 10 -100 3 -38 8 -97 11 -130 3 -33 7 -82 10 -110 2 -27 6
-72 8 -100 5 -52 12 -132 21 -250 4 -38 8 -92 11 -120 10 -112 17 -202 29
-347 3 -35 8 -90 11 -123 9 -98 11 -128 13 -171 l1 -40 52 6 c71 9 510 6 526
-4 9 -6 11 -1 8 16 -8 33 -13 68 -21 134 -4 33 -9 70 -11 84 -2 14 -7 43 -10
65 -3 22 -7 54 -10 70 -2 17 -7 50 -10 75 -2 25 -6 56 -9 70 -9 62 -23 169
-31 250 -3 25 -7 56 -9 70 -2 14 -7 50 -11 80 -3 30 -7 66 -9 80 -2 14 -6 54
-10 90 -4 36 -9 79 -12 95 -3 17 -6 48 -8 70 -2 22 -6 60 -10 85 -3 25 -8 65
-11 90 -2 25 -7 65 -10 90 -3 25 -7 59 -9 75 -2 17 -6 53 -9 80 -4 28 -9 69
-11 93 -8 70 -16 135 -20 167 -2 17 -7 57 -10 90 -4 33 -9 76 -11 95 -3 19 -7
54 -9 76 -2 23 -6 61 -9 85 -3 24 -8 65 -11 92 -3 26 -7 66 -10 90 -3 23 -7
63 -10 90 -3 26 -7 68 -10 95 -3 26 -7 65 -10 87 -3 22 -7 61 -10 88 -10 91
-14 132 -19 177 -13 112 -16 142 -22 202 -3 35 -7 77 -9 93 -2 17 -6 55 -10
85 -6 59 -11 109 -20 180 -4 25 -8 65 -10 90 -1 25 -6 66 -9 93 -15 120 -23
188 -31 273 -2 28 -6 64 -9 80 -2 16 -7 56 -11 89 -18 168 -16 164 -68 160
-26 -2 -35 -11 -65 -66 -20 -35 -40 -67 -46 -71 -6 -4 -7 -8 -3 -8 5 0 0 -15
-11 -32 -19 -32 -35 -62 -117 -213 -21 -38 -55 -101 -77 -138 -21 -38 -38 -73
-38 -77 0 -5 -3 -10 -7 -12 -5 -1 -21 -30 -38 -63 -16 -33 -32 -62 -35 -65 -3
-3 -14 -23 -25 -45 -11 -22 -36 -69 -56 -105 -35 -64 -67 -122 -164 -305 -27
-49 -69 -128 -94 -175 -25 -47 -55 -103 -66 -125 -11 -22 -23 -42 -26 -45 -3
-3 -14 -24 -24 -47 -11 -24 -23 -43 -29 -43 -5 0 -7 -3 -4 -6 3 -3 -14 -41
-38 -85 -24 -43 -62 -114 -84 -156 -67 -127 -119 -224 -270 -503 -78 -146
-159 -294 -178 -330 -19 -36 -47 -87 -62 -115 -45 -82 -89 -164 -140 -260 -27
-49 -67 -124 -89 -165 -23 -41 -51 -94 -63 -118 l-21 -43 -24 43 c-14 24 -45
81 -70 128 -26 47 -57 105 -71 130 -14 25 -39 72 -57 105 -18 33 -44 80 -57
105 -14 25 -47 86 -73 135 -62 116 -98 184 -145 270 -21 39 -57 106 -80 150
-24 44 -55 103 -70 130 -15 28 -51 95 -79 150 -29 55 -69 132 -90 170 -65 123
-166 316 -241 460 -40 77 -103 199 -140 270 -72 139 -324 641 -486 970 l-99
199 -48 2 c-26 0 -50 -3 -53 -8z"/>
<path d="M22550 17895 c-4 -5 -27 -55 -50 -110 -23 -55 -47 -106 -54 -114 -6
-8 -10 -15 -8 -15 5 -1 -10 -40 -47 -120 -17 -38 -31 -75 -31 -82 0 -8 -4 -14
-10 -14 -5 0 -10 -6 -10 -13 0 -8 -6 -27 -14 -43 -19 -38 -38 -82 -141 -319
-48 -110 -99 -225 -113 -255 -14 -30 -26 -60 -27 -65 -2 -6 -18 -44 -37 -85
-19 -41 -43 -95 -54 -120 -10 -25 -21 -47 -24 -50 -3 -3 -6 -11 -8 -18 -2 -11
-24 -63 -55 -132 -7 -14 -16 -28 -22 -32 -5 -4 -7 -8 -3 -8 6 0 -15 -50 -74
-180 -11 -25 -38 -85 -60 -135 -22 -49 -47 -108 -57 -130 -10 -22 -25 -56 -34
-75 -8 -19 -27 -62 -42 -95 -78 -172 -79 -174 -119 -267 -8 -18 -30 -68 -50
-111 -20 -43 -36 -80 -36 -82 0 -2 -20 -45 -44 -96 -24 -52 -50 -110 -59 -129
-8 -19 -26 -60 -40 -90 -14 -30 -35 -77 -47 -105 -27 -61 -65 -144 -114 -248
-20 -43 -36 -80 -36 -82 0 -1 -20 -45 -44 -96 -24 -52 -54 -116 -66 -144 -12
-27 -31 -68 -41 -89 -11 -22 -19 -46 -19 -53 0 -7 -3 -13 -8 -13 -4 0 -18 -28
-31 -62 -14 -35 -31 -70 -38 -79 -7 -8 -13 -20 -13 -25 0 -6 -9 -28 -19 -50
-10 -21 -37 -79 -60 -129 -22 -49 -49 -107 -60 -127 -18 -36 -15 -45 14 -38
26 5 307 6 363 0 l62 -6 26 86 c51 171 195 587 214 622 6 10 10 26 10 36 0 9
8 29 17 42 10 14 17 26 16 27 -6 7 48 151 219 580 l100 252 96 3 c71 2 1177 1
1450 -2 20 0 35 -21 47 -65 1 -5 9 -26 18 -45 36 -82 87 -215 87 -227 0 -7 5
-13 10 -13 6 0 10 -6 10 -14 0 -8 14 -47 31 -87 43 -106 50 -121 66 -151 8
-16 12 -28 8 -28 -3 0 1 -12 9 -27 7 -16 39 -91 70 -168 31 -77 61 -150 66
-162 27 -63 105 -267 121 -318 7 -22 17 -44 21 -50 4 -5 8 -15 8 -21 0 -7 5
-25 12 -41 6 -15 12 -30 13 -33 1 -3 4 -12 8 -20 3 -8 13 -40 22 -70 34 -112
30 -107 85 -100 68 9 573 5 588 -4 21 -13 14 5 -57 149 -37 77 -110 235 -161
350 -51 116 -101 228 -111 250 -20 44 -42 94 -101 230 -21 50 -43 99 -48 110
-5 11 -35 79 -65 150 -31 72 -62 144 -70 160 -57 131 -95 224 -95 234 0 6 -4
11 -10 11 -5 0 -10 7 -10 15 0 8 -11 38 -24 67 -14 29 -48 109 -77 178 -28 69
-57 139 -65 155 -7 17 -21 50 -32 75 -11 25 -26 61 -34 80 -14 31 -38 89 -84
198 -8 17 -21 47 -28 65 -8 17 -31 73 -51 122 -35 85 -45 108 -79 188 -8 17
-38 88 -66 157 -29 69 -60 143 -70 165 -22 51 -35 88 -32 98 1 4 -3 7 -8 7 -5
0 -10 5 -10 10 0 6 -8 29 -19 53 -10 23 -32 76 -49 117 -17 41 -49 120 -72
175 -50 122 -60 145 -71 168 -5 9 -20 46 -34 82 -13 36 -31 80 -39 98 -8 17
-43 100 -76 182 -34 83 -70 170 -81 195 l-20 45 -55 0 c-30 0 -59 -4 -64 -10z
m-60 -882 c0 -10 21 -56 57 -125 8 -16 11 -28 7 -28 -3 0 -2 -6 4 -12 5 -7 31
-62 57 -123 26 -60 61 -139 77 -175 17 -36 34 -75 39 -87 5 -13 63 -148 130
-300 67 -153 153 -350 191 -438 38 -88 76 -175 85 -193 8 -19 13 -36 10 -38
-4 -4 -580 -16 -682 -14 -27 0 -124 2 -215 4 -91 2 -231 5 -312 6 l-146 2 38
91 c21 51 48 113 59 140 11 26 21 51 22 55 0 4 5 13 11 20 6 6 7 12 2 12 -5 0
-4 4 1 8 6 4 21 34 34 67 13 33 34 83 46 110 25 57 32 76 33 89 0 5 4 12 9 15
5 3 22 40 38 81 16 41 32 80 36 85 4 6 19 39 34 75 15 36 33 79 40 95 8 17 26
59 41 95 14 36 34 83 44 105 58 130 68 154 62 159 -3 3 0 6 6 6 7 0 12 5 12
11 0 6 6 25 14 42 34 74 56 126 56 130 0 3 7 21 16 42 14 35 16 36 29 19 8
-11 15 -24 15 -31z"/>
<path d="M29314 17840 c-15 -36 -41 -94 -57 -130 -96 -214 -179 -408 -177
-416 1 -4 -2 -10 -7 -13 -5 -3 -16 -24 -25 -46 -18 -42 -237 -541 -268 -610
-10 -22 -59 -134 -110 -250 -51 -115 -102 -232 -115 -260 -37 -80 -166 -371
-170 -385 -1 -3 -18 -40 -38 -84 -20 -43 -37 -80 -37 -82 0 -2 -15 -36 -34
-76 -53 -114 -86 -188 -86 -192 0 -2 -17 -42 -39 -88 -21 -45 -66 -146 -101
-223 -34 -77 -65 -144 -68 -150 -4 -5 -7 -12 -7 -15 -1 -3 -8 -21 -17 -40 -50
-109 -84 -184 -125 -274 -25 -56 -48 -105 -52 -111 -4 -5 -15 -28 -23 -50 -9
-22 -32 -74 -51 -115 -19 -41 -45 -97 -57 -125 -12 -27 -38 -84 -57 -125 -20
-41 -47 -100 -60 -130 -14 -30 -45 -97 -69 -148 -24 -51 -47 -104 -50 -119 -6
-23 -5 -25 17 -18 29 9 259 13 356 5 59 -4 73 -2 76 10 23 79 100 319 107 335
8 18 19 52 26 80 5 17 74 209 83 230 5 11 19 49 32 85 12 36 26 69 31 75 4 5
8 15 8 22 0 10 72 203 99 268 5 11 42 103 81 205 40 102 80 203 90 225 9 22
23 55 30 73 12 32 13 32 84 34 143 3 1314 3 1403 0 l91 -3 18 -42 c10 -23 18
-44 19 -47 1 -3 5 -14 10 -25 4 -11 32 -78 60 -150 29 -71 99 -242 155 -380
57 -137 111 -270 121 -295 9 -25 43 -110 74 -190 31 -80 58 -149 60 -155 1 -5
5 -17 9 -25 3 -8 31 -86 60 -173 30 -88 56 -161 58 -163 3 -2 18 0 34 4 28 8
527 8 589 0 l30 -4 -55 111 c-31 60 -69 139 -84 175 -30 67 -85 188 -114 250
-9 19 -16 37 -17 40 0 3 -8 21 -17 41 -9 19 -32 71 -51 115 -19 43 -44 102
-57 129 -24 54 -24 54 -100 230 -29 66 -60 138 -70 160 -10 22 -48 110 -84
195 -37 85 -71 164 -76 175 -5 11 -57 133 -115 270 -59 138 -112 264 -120 280
-7 17 -30 71 -50 120 -21 50 -45 108 -55 130 -10 22 -34 81 -55 130 -20 50
-46 110 -57 134 -10 24 -28 67 -39 95 -11 28 -26 65 -34 81 -7 17 -25 59 -40
95 -15 36 -32 76 -38 90 -6 14 -11 27 -12 30 0 3 -11 27 -23 54 -12 27 -22 51
-22 53 0 5 -10 28 -50 118 -12 28 -23 55 -25 60 -1 6 -12 32 -23 58 -12 27
-22 51 -22 53 0 2 -9 23 -19 47 -18 40 -33 77 -36 87 0 3 -11 27 -23 54 -12
27 -22 50 -22 51 0 1 -8 20 -17 41 -9 22 -17 41 -18 44 -1 3 -6 16 -12 30 -20
46 -80 194 -127 310 -26 63 -57 135 -69 160 l-23 45 -56 0 -57 1 -27 -66z
m-44 -800 c0 -8 68 -166 134 -315 8 -16 35 -79 61 -140 26 -60 61 -138 76
-173 16 -34 29 -64 29 -67 0 -2 18 -43 40 -90 22 -47 40 -93 40 -101 0 -8 5
-14 10 -14 6 0 10 -8 10 -18 0 -10 6 -26 14 -37 7 -11 14 -23 14 -28 1 -4 11
-29 22 -55 12 -26 58 -130 102 -232 44 -102 89 -205 100 -228 11 -24 17 -46
15 -48 -3 -4 -621 -16 -722 -15 -5 0 -95 2 -200 5 -104 3 -245 6 -312 6 -121
1 -122 1 -113 23 14 35 41 99 61 144 10 23 19 44 19 47 0 3 12 31 26 63 53
117 58 128 60 138 2 8 145 340 193 450 40 90 52 118 75 175 15 36 39 90 53
120 14 30 34 80 46 110 11 30 27 66 36 80 9 13 14 24 12 25 -1 0 4 16 12 35 9
19 28 63 43 97 15 34 31 60 36 57 4 -3 8 -9 8 -14z"/>
<path d="M85 17718 c3 -62 7 -169 10 -238 13 -301 15 -354 22 -510 9 -201 9
-2387 0 -2590 -4 -80 -9 -185 -11 -235 -9 -154 -19 -416 -20 -500 l-1 -79 40
2 c69 4 406 6 485 2 l75 -3 -1 64 c-1 35 -4 120 -8 189 -3 69 -8 181 -11 250
-3 69 -8 179 -10 245 -3 66 -8 221 -10 344 -2 123 -6 226 -8 228 -3 2 -1 20 3
39 4 18 5 34 1 34 -3 0 -6 36 -6 80 0 44 4 80 8 80 4 0 4 8 -1 18 -4 9 -7 49
-5 87 2 39 3 76 3 83 0 17 0 159 0 175 0 6 -1 53 -2 102 l-2 90 409 -1 c384
-1 652 -7 875 -20 151 -9 191 -12 256 -18 l61 -7 -12 64 c-7 36 -11 98 -9 139
2 63 5 87 17 151 2 14 -41 14 -178 3 -160 -14 -178 -15 -300 -21 -222 -12
-298 -14 -704 -21 -284 -4 -405 -3 -410 5 -8 12 -8 1431 -1 1446 3 6 5 38 4
73 0 71 -18 64 151 62 254 -4 414 -9 820 -25 112 -4 245 -12 370 -21 39 -3 97
-7 130 -9 76 -5 180 -14 222 -19 l32 -4 -4 58 c-2 33 -5 63 -7 67 -5 10 -1
130 7 201 4 30 2 52 -3 49 -4 -3 -107 -9 -228 -12 -120 -4 -266 -9 -324 -11
-58 -3 -118 -4 -135 -3 -16 0 -34 0 -40 0 -38 -6 -867 -6 -893 0 -17 4 -35 3
-38 -2 -3 -5 -10 -7 -15 -3 -5 3 -56 7 -112 9 -304 10 -483 17 -490 22 -4 2
-5 -46 -2 -109z"/>
<path d="M16525 17715 c2 -60 7 -171 10 -245 3 -74 8 -175 10 -225 17 -348 19
-584 19 -1570 0 -981 -3 -1230 -19 -1543 -6 -123 -18 -421 -19 -497 l-1 -70
105 4 c123 5 880 5 1360 0 295 -3 419 1 510 15 14 2 46 7 71 10 205 29 476 99
619 162 19 8 44 19 55 23 109 43 289 152 435 264 59 45 234 216 286 280 199
242 374 608 419 877 3 19 8 42 10 50 3 8 7 31 9 50 3 19 7 55 11 80 17 132 22
236 19 435 -1 121 -4 238 -7 260 -3 22 -9 67 -12 100 -13 114 -23 176 -41 255
-9 36 -17 72 -19 80 -2 8 -10 42 -19 75 -9 33 -18 67 -20 75 -22 90 -129 311
-211 435 -102 154 -307 345 -470 440 -194 113 -445 204 -655 239 -19 3 -46 8
-60 10 -250 44 -608 50 -1080 19 -117 -8 -717 -7 -900 1 -143 6 -320 15 -383
19 l-37 2 5 -110z m1765 -159 c89 -5 160 -12 220 -22 19 -2 49 -7 65 -9 28 -4
211 -40 245 -49 133 -34 379 -153 437 -212 8 -8 18 -14 22 -14 14 0 165 -154
212 -215 45 -58 159 -248 159 -263 0 -5 9 -26 19 -49 11 -22 30 -69 41 -104
12 -35 24 -71 27 -79 7 -17 9 -25 17 -60 3 -14 7 -35 10 -48 3 -13 7 -31 10
-40 4 -15 10 -48 22 -122 23 -143 29 -259 28 -510 -1 -232 -7 -365 -19 -429
-2 -13 -7 -49 -11 -80 -3 -31 -8 -59 -10 -62 -2 -4 -6 -24 -10 -44 -8 -54 -10
-59 -44 -180 -18 -60 -35 -114 -39 -120 -4 -5 -16 -32 -26 -60 -42 -114 -186
-356 -265 -445 -102 -116 -192 -196 -296 -267 -74 -50 -228 -133 -248 -133 -8
0 -16 -4 -18 -8 -4 -9 -181 -67 -248 -81 -266 -57 -450 -76 -715 -74 -153 1
-406 11 -470 18 -16 2 -55 6 -85 9 -90 10 -133 17 -171 27 -34 8 -37 12 -37
47 0 20 -3 91 -7 157 -31 555 -38 2521 -10 3075 2 47 7 144 11 215 4 72 6 138
6 147 -1 30 10 34 127 43 40 3 76 7 80 9 3 2 44 7 91 10 47 3 112 8 145 11 33
3 104 7 158 9 55 3 100 6 102 8 5 5 378 0 475 -6z"/>
<path d="M24379 17820 c-7 -5 -8 -16 -3 -31 20 -60 27 -193 13 -261 -6 -29
-12 -63 -15 -75 -3 -17 0 -21 13 -19 165 31 653 59 1048 60 l260 1 2 -45 c23
-515 22 -2643 -2 -3215 -3 -71 -8 -173 -10 -225 -2 -52 -4 -95 -5 -95 0 0 -9
-200 -12 -300 -2 -49 1 -54 30 -49 40 8 416 11 495 4 45 -4 71 -2 78 6 5 6 7
13 5 15 -2 2 -7 63 -10 134 -19 381 -19 385 -33 790 -9 259 -8 2266 1 2630 4
154 6 297 6 319 l-1 38 328 -6 c180 -4 351 -8 378 -10 28 -3 95 -7 150 -10
187 -11 432 -33 445 -41 3 -2 12 0 20 5 10 6 11 12 3 22 -6 7 -10 20 -10 28
-1 8 -4 29 -7 45 -14 65 -8 153 18 263 3 13 0 22 -7 23 -33 1 -137 -1 -277 -6
-85 -3 -259 -7 -387 -9 -128 -3 -236 -6 -240 -8 -11 -6 -1305 -1 -1573 6 -258
6 -577 16 -642 20 -26 1 -53 -1 -59 -4z"/>
<path d="M8695 17744 c2 -43 7 -146 10 -228 4 -83 8 -196 11 -251 11 -261 15
-366 19 -565 6 -264 6 -1775 0 -2030 -7 -285 -26 -775 -40 -1021 l-5 -86 27 4
c47 7 427 9 489 3 99 -9 95 -14 89 103 -8 167 -16 326 -20 422 -2 50 -7 180
-12 290 -10 263 -10 2368 0 2605 5 102 10 228 12 280 2 52 7 151 10 220 3 69
8 172 10 228 l4 104 -57 -7 c-31 -4 -75 -10 -97 -12 -82 -10 -347 -4 -371 9
-5 2 -26 6 -46 7 l-38 3 5 -78z"/>
</g>
</svg>
