<svg width="512" height="512" viewBox="25 25 462 462" xmlns="http://www.w3.org/2000/svg"><g fill="none" fill-rule="evenodd"><path d="M112.247 255.617C86.525 246.957 68 222.642 68 194c0-35.899 29.101-65 65-65 28.168 0 52.151 17.917 61.174 42.977L170 206l-5 31h-37l-15.753 18.617z" fill="#4CD7FF" fill-rule="nonzero"/><path d="M194.174 171.977l-11.29 4.065C175.376 155.19 155.532 141 133 141c-29.271 0-53 23.729-53 53 0 22.929 14.695 43.046 36.076 50.244l-3.829 11.373C86.525 246.957 68 222.642 68 194c0-35.899 29.101-65 65-65 28.168 0 52.151 17.917 61.174 42.977z" fill="#78EBFF"/><path d="M249.87 156c-40.542 0-74.223 31.123-77.593 71.255L171.122 241h-19.119C126.039 241 105 262.04 105 288c0 25.962 21.04 47 47.003 47H349c32.585 0 59-26.415 59-59s-26.415-59-59-59c-3.117 0-6.198.24-9.226.715l-12.31 1.93-4.155-11.748C312.4 177.046 283.137 156 249.871 156zm0-15c40.431 0 74.827 25.83 87.581 61.896A74.52 74.52 0 0 1 349 202c40.87 0 74 33.13 74 74s-33.13 74-74 74H152.003C117.76 350 90 322.25 90 288c0-34.242 27.751-62 62.003-62h5.326c3.998-47.608 43.907-85 92.542-85z" fill-rule="nonzero" fill="#FFF"/><path d="M222 437.014C222 452.47 209.464 465 194 465s-28-12.53-28-27.986c0-4.282.962-8.34 2.683-11.969l15.68-39.894c5.318-13.53 13.936-13.54 19.257 0l15.607 39.706A27.863 27.863 0 0 1 222 437.014zm-76-20.671c0 10.304-8.507 18.657-19 18.657s-19-8.353-19-18.657c0-2.855.653-5.56 1.82-7.98l10.641-26.596c3.608-9.02 9.456-9.026 13.067 0l10.59 26.471a18.306 18.306 0 0 1 1.882 8.105z" fill="#00D7FF"/><path d="M380.667 395.667l13.328-7.945c2.552-1.486 5.816-.604 7.29 1.97 1.473 2.575.598 5.867-1.954 7.354L386 405l13.33 7.954c2.553 1.487 3.428 4.779 1.954 7.354-1.473 2.574-4.737 3.456-7.29 1.97l-13.327-7.945v15.392c0 2.913-2.388 5.275-5.334 5.275-2.945 0-5.333-2.362-5.333-5.275v-15.392l-13.995 7.945c-2.552 1.486-5.816.604-7.29-1.97-1.473-2.575-.598-5.867 1.954-7.354L364 405l-13.33-7.954c-2.553-1.487-3.428-4.779-1.954-7.354 1.473-2.574 4.737-3.456 7.29-1.97L370 395.667v-15.392c0-2.913 2.388-5.275 5.333-5.275 2.946 0 5.334 2.362 5.334 5.275v15.392zM296 406l19.992-11.917c3.828-2.23 8.724-.906 10.934 2.956 2.21 3.861.899 8.8-2.93 11.03L304 420l19.996 11.932c3.829 2.23 5.14 7.168 2.93 11.03-2.21 3.861-7.106 5.185-10.934 2.955L296 434v23.088c0 4.37-3.582 7.912-8 7.912s-8-3.542-8-7.912V434l-20.992 11.917c-3.828 2.23-8.724.906-10.934-2.956-2.21-3.861-.899-8.8 2.93-11.03L271 420l-19.996-11.932c-3.829-2.23-5.14-7.168-2.93-11.03 2.21-3.861 7.106-5.185 10.934-2.955L280 406v-23.088c0-4.37 3.582-7.912 8-7.912s8 3.542 8 7.912V406z" fill="#FFF" fill-rule="nonzero"/></g></svg>