<svg width="512" height="512" viewBox="25 25 462 462" xmlns="http://www.w3.org/2000/svg"><g fill="none" fill-rule="evenodd"><path d="M112.247 255.617C86.525 246.957 68 222.642 68 194c0-35.899 29.101-65 65-65 28.168 0 52.151 17.917 61.174 42.977L170 206l-5 31h-37l-15.753 18.617z" fill="#4CD7FF" fill-rule="nonzero"/><path d="M194.174 171.977l-11.29 4.065C175.376 155.19 155.532 141 133 141c-29.271 0-53 23.729-53 53 0 22.929 14.695 43.046 36.076 50.244l-3.829 11.373C86.525 246.957 68 222.642 68 194c0-35.899 29.101-65 65-65 28.168 0 52.151 17.917 61.174 42.977z" fill="#78EBFF"/><path d="M408 276c0-32.585-26.415-59-59-59-3.117 0-6.198.24-9.226.715l-12.31 1.93-4.155-11.748C312.4 177.046 283.137 156 249.871 156c-40.543 0-74.224 31.123-77.594 71.255L171.122 241h-19.119C126.039 241 105 262.04 105 288c0 25.962 21.04 47 47.003 47H209c3.909.274 7 3.526 7 7.5a7.5 7.5 0 0 1-7 7.484l-56.997.016C117.76 350 90 322.25 90 288c0-34.242 27.751-62 62.003-62h5.326c3.998-47.608 43.907-85 92.542-85 40.43 0 74.826 25.83 87.58 61.896A74.52 74.52 0 0 1 349 202c40.87 0 74 33.13 74 74 0 39.864-31.522 72.366-71 73.94-4.642-.04-8-3.398-8-7.54a7.5 7.5 0 0 1 7.5-7.5c31.81-1.576 56.5-27.433 56.5-58.9z" fill-rule="nonzero" fill="#FFF"/><path fill="#FED731" d="M258 247l-29 103h50l-28 125 98-163h-53l29-65z"/><path d="M309.588 257h-44.015l-23.369 83h49.284l-17.226 76.902L331.32 322h-50.732l29-65zM279 350h-50l29-103h67l-29 65h53l-98 163 28-125z" fill="#FEEA39" fill-rule="nonzero"/></g></svg>