<svg width="512" height="512" viewBox="25 25 462 462" xmlns="http://www.w3.org/2000/svg"><g fill="none" fill-rule="evenodd"><path d="M178.267 203.313c-4.432 3.575-7.267 9.05-7.267 15.187 0 .847.054 1.682.159 2.501C162.738 233.66 148.343 242 132 242c-25.957 0-47-21.043-47-47s21.043-47 47-47 47 21.043 47 47a47.24 47.24 0 0 1-.733 8.313z" fill="#FED731" fill-rule="nonzero"/><path d="M132 230c19.33 0 35-15.67 35-35s-15.67-35-35-35-35 15.67-35 35 15.67 35 35 35zm46.267-26.687c-4.432 3.575-7.267 9.05-7.267 15.187 0 .847.054 1.682.159 2.501C162.738 233.66 148.343 242 132 242c-25.957 0-47-21.043-47-47s21.043-47 47-47 47 21.043 47 47a47.24 47.24 0 0 1-.733 8.313z" fill="#FEEA39" fill-rule="nonzero"/><rect width="45" height="16" rx="8" transform="translate(25 187)" fill="#FEEA39"/><g transform="rotate(-45 345.229 71.322)" fill="#FEEA39"><rect width="45" height="16" rx="8"/><rect x="169" width="45" height="16" rx="8"/></g><rect width="45" height="16" rx="8" transform="rotate(45 -106.229 131.678)" fill="#FEEA39"/><rect width="16" height="45" rx="8" transform="translate(124 88)" fill="#FEEA39"/><path d="M249.87 156c-40.542 0-74.223 31.123-77.593 71.255L171.122 241h-19.119C126.039 241 105 262.04 105 288c0 25.962 21.04 47 47.003 47H349c32.585 0 59-26.415 59-59s-26.415-59-59-59c-3.117 0-6.198.24-9.226.715l-12.31 1.93-4.155-11.748C312.4 177.046 283.137 156 249.871 156zm0-15c40.431 0 74.827 25.83 87.581 61.896A74.52 74.52 0 0 1 349 202c40.87 0 74 33.13 74 74s-33.13 74-74 74H152.003C117.76 350 90 322.25 90 288c0-34.242 27.751-62 62.003-62h5.326c3.998-47.608 43.907-85 92.542-85z" fill-rule="nonzero" fill="#FFF"/><path d="M346.52 389.225a9.33 9.33 0 0 0-17.534-6.381l-11.913 32.729a9.33 9.33 0 0 0 17.534 6.381l11.912-32.729zm-24.251 66.627a9.33 9.33 0 0 0-17.533-6.382l-4.255 11.69a9.33 9.33 0 1 0 17.534 6.38l4.254-11.688zM265.77 467.54a9.33 9.33 0 1 1-17.533-6.38l11.913-32.73a9.33 9.33 0 0 1 17.533 6.382l-11.912 32.729zm24.25-66.626a9.33 9.33 0 0 1-17.533-6.381l4.255-11.69a9.33 9.33 0 1 1 17.533 6.382l-4.254 11.69zm-47.989-11.689a9.33 9.33 0 0 0-17.533-6.381l-11.912 32.729a9.33 9.33 0 0 0 17.533 6.381l11.912-32.729zm-24.25 66.627a9.33 9.33 0 0 0-17.533-6.382l-4.254 11.69a9.33 9.33 0 1 0 17.533 6.38l4.254-11.688zm-56.498 11.688a9.33 9.33 0 0 1-17.533-6.38l11.912-32.73a9.33 9.33 0 0 1 17.533 6.382l-11.912 32.729zm24.25-66.626A9.33 9.33 0 0 1 168 394.533l4.254-11.69a9.33 9.33 0 1 1 17.533 6.382l-4.254 11.69z" fill="#00D7FF" fill-rule="nonzero"/></g></svg>