<svg width="512" height="512" viewBox="25 25 462 462" xmlns="http://www.w3.org/2000/svg"><g fill="none" fill-rule="evenodd"><path d="M97.8 246.94A46.78 46.78 0 0 1 90 221c0-25.957 21.043-47 47-47a46.782 46.782 0 0 1 24.01 6.587L150 196l-11 38-27 3-14.2 9.94z" fill="#FED731" fill-rule="nonzero"/><path d="M106.367 237.947C103.52 232.82 102 227.035 102 221c0-19.33 15.67-35 35-35a34.813 34.813 0 0 1 15.443 3.58l8.566-8.993A46.782 46.782 0 0 0 137 174c-25.957 0-47 21.043-47 47a46.78 46.78 0 0 0 7.8 25.94l8.567-8.993z" fill="#FEEA39"/><rect width="45" height="16" rx="8" transform="translate(30 213)" fill="#FEEA39"/><rect width="45" height="16" rx="8" transform="rotate(45 -135.114 150.713)" fill="#FEEA39"/><rect width="16" height="45" rx="8" transform="translate(129 114)" fill="#FEEA39"/><g fill="#FFF"><path d="M310.975 196.63l-13.74 6.02C284.92 174.54 257.098 156 225.871 156c-40.543 0-74.224 31.123-77.594 71.255L147.122 241h-19.119C102.039 241 81 262.04 81 288c0 25.962 21.04 47 47.003 47h143.853v15H128.003C93.76 350 66 322.25 66 288c0-34.242 27.751-62 62.003-62h5.326c3.998-47.608 43.907-85 92.542-85 38.048 0 70.752 22.875 85.104 55.63z"/><path d="M321.904 205c-29.377 0-53.76 22.437-56.196 51.332l-1.16 13.74h-17.882c-18.06 0-32.666 14.546-32.666 32.464C214 320.455 228.609 335 246.666 335h151.445C421.26 335 440 316.338 440 293.35c0-22.99-18.74-41.651-41.889-41.651-2.22 0-4.412.17-6.565.506l-12.287 1.917-4.161-11.718C367.205 220.178 346.012 205 321.904 205zm0-15c31.081 0 57.524 19.774 67.329 47.384a57.552 57.552 0 0 1 8.878-.685c31.419 0 56.889 25.363 56.889 56.65C455 324.637 429.53 350 398.111 350H246.666C220.341 350 199 328.755 199 302.536c0-26.214 21.334-47.464 47.666-47.464h4.095C253.834 218.626 284.514 190 321.904 190z" fill-rule="nonzero"/></g><path d="M198 439.014C198 454.47 185.464 467 170 467s-28-12.53-28-27.986c0-4.282.962-8.34 2.683-11.969l15.68-39.894c5.318-13.53 13.936-13.54 19.257 0l15.607 39.706A27.863 27.863 0 0 1 198 439.014zm86 0C284 454.47 271.464 467 256 467s-28-12.53-28-27.986c0-4.282.962-8.34 2.683-11.969l15.68-39.894c5.318-13.53 13.936-13.54 19.257 0l15.607 39.706A27.863 27.863 0 0 1 284 439.014zm86 0C370 454.47 357.464 467 342 467s-28-12.53-28-27.986c0-4.282.962-8.34 2.683-11.969l15.68-39.894c5.318-13.53 13.936-13.54 19.257 0l15.607 39.706A27.863 27.863 0 0 1 370 439.014z" fill="#00D7FF"/></g></svg>