<svg width="512" height="512" viewBox="25 25 462 462" xmlns="http://www.w3.org/2000/svg"><g fill="none" fill-rule="evenodd"><g fill="#FFF"><path d="M310.975 196.63l-13.74 6.02C284.92 174.54 257.098 156 225.871 156c-40.543 0-74.224 31.123-77.594 71.255L147.122 241h-19.119C102.039 241 81 262.04 81 288c0 25.962 21.04 47 47.003 47h143.853v15H128.003C93.76 350 66 322.25 66 288c0-34.242 27.751-62 62.003-62h5.326c3.998-47.608 43.907-85 92.542-85 38.048 0 70.752 22.875 85.104 55.63z"/><path d="M321.904 205c-29.377 0-53.76 22.437-56.196 51.332l-1.16 13.74h-17.882c-18.06 0-32.666 14.546-32.666 32.464C214 320.455 228.609 335 246.666 335h151.445C421.26 335 440 316.338 440 293.35c0-22.99-18.74-41.651-41.889-41.651-2.22 0-4.412.17-6.565.506l-12.287 1.917-4.161-11.718C367.205 220.178 346.012 205 321.904 205zm0-15c31.081 0 57.524 19.774 67.329 47.384a57.552 57.552 0 0 1 8.878-.685c31.419 0 56.889 25.363 56.889 56.65C455 324.637 429.53 350 398.111 350H246.666C220.341 350 199 328.755 199 302.536c0-26.214 21.334-47.464 47.666-47.464h4.095C253.834 218.626 284.514 190 321.904 190z" fill-rule="nonzero"/></g><path d="M222 437.014C222 452.47 209.464 465 194 465s-28-12.53-28-27.986c0-4.282.962-8.34 2.683-11.969l15.68-39.894c5.318-13.53 13.936-13.54 19.257 0l15.607 39.706A27.863 27.863 0 0 1 222 437.014zm-76-20.671c0 10.304-8.507 18.657-19 18.657s-19-8.353-19-18.657c0-2.855.653-5.56 1.82-7.98l10.641-26.596c3.608-9.02 9.456-9.026 13.067 0l10.59 26.471a18.306 18.306 0 0 1 1.882 8.105z" fill="#00D7FF"/><path d="M380.667 395.667l13.328-7.945c2.552-1.486 5.816-.604 7.29 1.97 1.473 2.575.598 5.867-1.954 7.354L386 405l13.33 7.954c2.553 1.487 3.428 4.779 1.954 7.354-1.473 2.574-4.737 3.456-7.29 1.97l-13.327-7.945v15.392c0 2.913-2.388 5.275-5.334 5.275-2.945 0-5.333-2.362-5.333-5.275v-15.392l-13.995 7.945c-2.552 1.486-5.816.604-7.29-1.97-1.473-2.575-.598-5.867 1.954-7.354L364 405l-13.33-7.954c-2.553-1.487-3.428-4.779-1.954-7.354 1.473-2.574 4.737-3.456 7.29-1.97L370 395.667v-15.392c0-2.913 2.388-5.275 5.333-5.275 2.946 0 5.334 2.362 5.334 5.275v15.392zM296 406l19.992-11.917c3.828-2.23 8.724-.906 10.934 2.956 2.21 3.861.899 8.8-2.93 11.03L304 420l19.996 11.932c3.829 2.23 5.14 7.168 2.93 11.03-2.21 3.861-7.106 5.185-10.934 2.955L296 434v23.088c0 4.37-3.582 7.912-8 7.912s-8-3.542-8-7.912V434l-20.992 11.917c-3.828 2.23-8.724.906-10.934-2.956-2.21-3.861-.899-8.8 2.93-11.03L271 420l-19.996-11.932c-3.829-2.23-5.14-7.168-2.93-11.03 2.21-3.861 7.106-5.185 10.934-2.955L280 406v-23.088c0-4.37 3.582-7.912 8-7.912s8 3.542 8 7.912V406z" fill="#FFF" fill-rule="nonzero"/></g></svg>