<?xml version="1.0" standalone="no"?>
<!DOCTYPE svg PUBLIC "-//W3C//DTD SVG 20010904//EN"
        "http://www.w3.org/TR/2001/REC-SVG-20010904/DTD/svg10.dtd">
<svg version="1.0" xmlns="http://www.w3.org/2000/svg"
     width="965.000000pt" height="964.000000pt" viewBox="0 0 965.000000 964.000000"
     preserveAspectRatio="xMidYMid meet">

    <g transform="translate(0.000000,964.000000) scale(0.100000,-0.100000)"
       fill="#FFFFFF" stroke="none">
        <path d="M7529 8793 l-47 -24 -22 -142 c-12 -78 -26 -160 -31 -182 -21 -90
-59 -307 -59 -339 0 -24 5 -36 18 -40 26 -8 176 -46 184 -46 6 0 20 56 37 150
6 30 31 156 57 280 47 230 52 280 33 337 -10 32 -12 33 -67 32 -40 0 -71 -8
-103 -26z" fill="orange"/>
        <path d="M6180 8672 c-43 -23 -73 -76 -65 -117 6 -31 83 -220 141 -343 19 -40
34 -76 34 -80 0 -20 76 -195 86 -199 11 -4 156 60 192 85 11 7 5 30 -28 108
-23 54 -52 128 -66 164 -14 36 -29 72 -33 81 -5 8 -23 51 -41 95 -72 182 -90
207 -156 219 -18 4 -41 -1 -64 -13z" fill="orange"/>
        <path d="M8900 7993 c-8 -3 -37 -22 -65 -43 -27 -20 -62 -45 -76 -56 -15 -10
-80 -59 -145 -109 -65 -49 -136 -103 -158 -119 -75 -52 -96 -77 -96 -113 0
-69 41 -128 96 -138 33 -7 69 10 141 67 27 21 107 80 178 133 275 202 275 202
275 274 0 43 -12 62 -60 90 -35 21 -61 25 -90 14z" fill="orange"/>
        <path d="M6940 7980 c-389 -48 -735 -246 -963 -551 -148 -199 -257 -495 -257
-700 l0 -56 58 -12 c31 -6 104 -34 161 -61 57 -28 104 -50 106 -50 1 0 5 46 8
103 13 215 91 416 228 582 60 73 136 149 179 178 159 109 209 132 400 180 209
54 382 43 637 -41 109 -36 259 -131 348 -220 61 -62 125 -135 125 -145 0 -2
25 -42 55 -87 67 -102 124 -276 139 -425 6 -52 -5 -210 -17 -255 -2 -8 -7 -33
-11 -55 -23 -125 -82 -252 -183 -392 -73 -103 -94 -125 -183 -192 -231 -173
-356 -217 -650 -228 -69 -3 -126 -6 -128 -7 -1 -2 11 -34 27 -72 63 -152 74
-180 78 -206 3 -16 9 -28 13 -28 5 0 42 -5 84 -10 191 -27 472 53 699 198 52
33 181 139 248 202 50 49 168 216 212 302 75 148 133 341 158 526 33 247 -50
626 -185 847 -102 167 -298 366 -460 468 -58 37 -313 144 -381 161 -184 46
-398 64 -545 46z" fill="orange"/>
        <path d="M5150 7813 c-52 -19 -95 -90 -85 -140 7 -40 65 -108 99 -117 23 -6
238 -123 455 -250 63 -36 118 -66 122 -66 4 0 25 30 46 68 22 37 47 79 56 93
l17 26 -52 35 c-29 19 -84 52 -123 73 -38 22 -122 70 -185 108 -276 167 -312
184 -350 170z" fill="orange"/>
        <path d="M6931 7450 c-67 -14 -200 -60 -249 -86 -64 -34 -171 -116 -222 -171
-79 -83 -110 -131 -162 -244 -64 -141 -92 -268 -85 -394 4 -80 7 -91 28 -105
90 -59 314 -245 368 -305 14 -16 36 -40 49 -53 19 -20 114 -145 187 -247 12
-16 31 -51 44 -76 12 -26 29 -49 39 -51 53 -14 235 -8 329 11 261 51 426 154
580 361 99 133 158 324 156 510 -1 221 -78 413 -233 584 -53 59 -188 160 -251
189 -139 63 -214 79 -379 83 -85 1 -175 -1 -199 -6z" fill="yellow"/>
        <path d="M8661 6671 c-25 -25 -33 -68 -29 -151 l3 -65 350 -3 c227 -2 363 1
387 8 51 15 88 61 88 111 0 31 -7 47 -34 77 l-34 37 -356 3 c-343 3 -356 2
-375 -17z" fill="orange"/>
        <path d="M4900 6533 c-330 -41 -597 -142 -885 -334 -161 -108 -198 -161 -212
-304 l-6 -62 65 -30 c101 -48 319 -196 421 -286 131 -117 203 -199 261 -299
15 -27 31 -48 37 -48 14 0 131 -244 170 -354 l33 -93 161 -6 c218 -9 330 -24
520 -74 123 -32 384 -158 445 -215 14 -13 47 -39 74 -57 115 -79 298 -279 379
-412 39 -66 56 -103 98 -217 6 -18 31 -47 58 -66 58 -43 208 -195 257 -261 21
-27 41 -52 45 -55 3 -3 21 -33 39 -68 17 -34 36 -65 41 -67 12 -8 64 -188 84
-290 24 -120 26 -168 17 -291 -16 -192 -34 -270 -86 -376 -25 -50 -46 -95 -46
-100 0 -24 382 11 515 47 422 115 805 373 1009 680 180 271 247 478 246 761 0
225 -39 388 -138 574 -83 157 -154 253 -282 379 -168 166 -396 312 -630 404
-128 50 -479 121 -644 129 l-49 3 -23 99 c-26 113 -29 121 -105 281 -56 120
-140 257 -174 285 -10 8 -23 27 -29 42 -19 45 -251 273 -341 335 -134 92 -277
169 -294 158 -6 -3 -11 0 -11 8 0 13 -57 43 -145 77 -52 21 -206 60 -315 82
-81 15 -153 21 -315 23 -115 2 -226 1 -245 -2z"/>
        <path d="M3006 5819 c-137 -14 -313 -54 -373 -84 -16 -8 -60 -27 -100 -43 -39
-16 -91 -41 -115 -56 -24 -15 -65 -41 -93 -57 -170 -105 -370 -310 -475 -489
-92 -155 -131 -246 -174 -401 l-16 -56 -182 -6 c-101 -2 -208 -10 -238 -17
-288 -62 -424 -118 -620 -251 -264 -180 -449 -462 -490 -744 -13 -92 -13 -343
1 -425 54 -339 294 -660 624 -836 176 -94 363 -154 545 -176 82 -10 680 -13
2770 -13 l2664 0 20 50 c82 213 106 321 106 477 0 161 -16 250 -72 391 -29 73
-62 148 -75 167 -13 19 -34 51 -47 70 -30 46 -202 223 -245 252 -28 20 -38 40
-71 136 -59 177 -172 356 -298 473 -147 136 -176 160 -272 215 -318 183 -538
238 -925 232 l-189 -3 -9 35 c-47 176 -146 392 -241 525 -105 146 -235 270
-398 378 -191 128 -321 184 -525 227 -143 30 -356 43 -487 29z"/>
        <path d="M8436 5680 c-78 -83 -60 -126 95 -233 42 -28 114 -81 160 -117 46
-36 116 -87 154 -114 39 -27 85 -62 103 -78 61 -52 114 -32 153 58 34 82 29
96 -66 165 -33 24 -146 107 -251 185 -217 162 -251 184 -280 184 -13 0 -40
-20 -68 -50z" fill="orange"/>
        <path d="M4980 1611 c-63 -20 -150 -68 -205 -115 -124 -105 -261 -255 -355
-390 -149 -213 -216 -363 -208 -462 5 -56 36 -124 75 -166 56 -59 181 -88 292
-68 97 17 166 57 252 147 137 142 208 295 299 653 30 114 38 282 17 332 -26
63 -94 91 -167 69z m-265 -1131 c-3 -5 -10 -10 -16 -10 -5 0 -9 5 -9 10 0 6 7
10 16 10 8 0 12 -4 9 -10z" fill="lightblue"/>
        <path d="M6214 1576 c-90 -45 -101 -54 -229 -175 -152 -143 -288 -328 -389
-528 -69 -136 -81 -183 -67 -251 19 -85 70 -155 140 -189 49 -24 67 -28 146
-28 83 1 97 4 165 37 205 99 338 305 436 672 28 104 36 158 41 262 7 166 2
199 -40 224 -52 32 -103 26 -203 -24z" fill="lightblue"/>
        <path d="M3650 1604 c-96 -32 -161 -78 -290 -205 -244 -241 -436 -549 -447
-719 -11 -151 86 -257 252 -276 205 -24 421 148 543 431 33 79 49 127 86 270
15 55 31 115 37 133 17 52 29 256 18 297 -14 50 -58 75 -129 74 -30 0 -62 -3
-70 -5z" fill="lightblue"/>
    </g>
</svg>
