<?xml version="1.0" encoding="UTF-8" standalone="no"?>
<svg width="80px" height="80px" viewBox="0 0 80 80" version="1.1" xmlns="http://www.w3.org/2000/svg" xmlns:xlink="http://www.w3.org/1999/xlink">
    <!-- Generator: Sketch 3.7.1 (28215) - http://www.bohemiancoding.com/sketch -->
    <title>wind-symbol-windless</title>
    <desc>Created with Sketch.</desc>
    <defs></defs>
    <g id="Page-1" stroke="none" stroke-width="1" fill="none" fill-rule="evenodd">
        <g id="wind-symbol-windless">
            <circle id="oval" stroke="#009FEA" stroke-width="4" cx="40" cy="40" r="20"></circle>
            <path d="M40,2 L51,24 C51,24 43.6701596,21 40,21 C36.3368263,21 29,24 29,24 L40,2 Z" id="arrow" fill="#009FEA"></path>
            <path d="M40,56 L51,78 C51,78 43.6701596,75 40,75 C36.3368263,75 29,78 29,78 L40,56 Z" id="arrow" fill="#009FEA" transform="translate(40.000000, 67.000000) scale(1, -1) translate(-40.000000, -67.000000) "></path>
            <path d="M67,29 L78,51 C78,51 70.6701596,48 67,48 C63.3368263,48 56,51 56,51 L67,29 Z" id="arrow" fill="#009FEA" transform="translate(67.000000, 40.000000) rotate(-270.000000) translate(-67.000000, -40.000000) "></path>
            <path d="M13,29 L24,51 C24,51 16.6701596,48 13,48 C9.33682627,48 2,51 2,51 L13,29 Z" id="arrow" fill="#009FEA" transform="translate(13.000000, 40.000000) scale(1, -1) rotate(270.000000) translate(-13.000000, -40.000000) "></path>
        </g>
    </g>
</svg>