<?xml version="1.0" encoding="UTF-8"?>
<svg width="50px" height="50px" viewBox="0 0 50 50" version="1.1" xmlns="http://www.w3.org/2000/svg" xmlns:xlink="http://www.w3.org/1999/xlink">
    <!-- Generator: Sketch 49.3 (51167) - http://www.bohemiancoding.com/sketch -->
    <title>close-large</title>
    <desc>Created with Sketch.</desc>
    <defs></defs>
    <g id="close-large" stroke="none" stroke-width="1" fill="none" fill-rule="evenodd">
        <g id="poista" transform="translate(5.000000, 5.000000)">
            <circle id="Oval-4" fill="#EEF4F9" cx="20" cy="20" r="20"></circle>
            <path d="M21.0526316,18.9473684 L28.4210526,18.9473684 C29.002405,18.9473684 29.4736842,19.4186476 29.4736842,20 C29.4736842,20.5813524 29.002405,21.0526316 28.4210526,21.0526316 L21.0526316,21.0526316 L21.0526316,28.4210526 C21.0526316,29.002405 20.5813524,29.4736842 20,29.4736842 C19.4186476,29.4736842 18.9473684,29.002405 18.9473684,28.4210526 L18.9473684,21.0526316 L11.5789474,21.0526316 C10.997595,21.0526316 10.5263158,20.5813524 10.5263158,20 C10.5263158,19.4186476 10.997595,18.9473684 11.5789474,18.9473684 L18.9473684,18.9473684 L18.9473684,11.5789474 C18.9473684,10.997595 19.4186476,10.5263158 20,10.5263158 C20.5813524,10.5263158 21.0526316,10.997595 21.0526316,11.5789474 L21.0526316,18.9473684 Z" id="Combined-Shape" fill="#3559B9" transform="translate(20.000000, 20.000000) rotate(-315.000000) translate(-20.000000, -20.000000) "></path>
        </g>
    </g>
</svg>