<?xml version="1.0" encoding="UTF-8"?>
<svg width="34px" height="34px" viewBox="0 0 34 34" version="1.1" xmlns="http://www.w3.org/2000/svg" xmlns:xlink="http://www.w3.org/1999/xlink">
    <!-- Generator: Sketch 43.2 (39069) - http://www.bohemiancoding.com/sketch -->
    <title>edit-icon</title>
    <desc>Created with Sketch.</desc>
    <defs></defs>
    <g id="layouts" stroke="none" stroke-width="1" fill="none" fill-rule="evenodd">
        <g id="lisaa-havainto-tuulivahinko-5" transform="translate(-309.000000, -283.000000)">
            <g id="havainto-1" transform="translate(15.000000, 114.000000)">
                <g id="edit-icon" transform="translate(294.000000, 169.000000)">
                    <circle id="bg" fill="#EEF4F9" cx="17" cy="17" r="17"></circle>
                    <g id="icon" transform="translate(8.000000, 8.000000)" fill-rule="nonzero" fill="#3559B9">
                        <path d="M16.1184163,4.81724206 C16.6273663,4.30829209 16.6273663,3.48329882 16.1184163,2.97434885 L15.0257799,1.88171248 C14.51683,1.37276251 13.6918367,1.37276251 13.1828867,1.88171248 L3.43922133,11.6253779 L2.26476041,15.7353684 L6.37475091,14.5609075 L16.1184163,4.81724206 Z M0.80863353,17.1914953 L2.54889988,11.1014858 L12.4757799,1.1746057 C13.3752542,0.275131433 14.8334125,0.275131433 15.7328867,1.1746057 L16.8255231,2.26724206 C17.7249974,3.16671633 17.7249974,4.62487458 16.8255231,5.52434885 L6.89864302,15.4512289 L0.80863353,17.1914953 Z M15.3681595,6.2746057 L14.6610527,6.98171248 L11.0184163,3.33907612 L11.7255231,2.63196934 L15.3681595,6.2746057 Z M7.36815945,14.2746057 L6.66105267,14.9817125 L3.01841631,11.3390761 L3.72552309,10.6319693 L7.36815945,14.2746057 Z" id="Path"></path>
                    </g>
                </g>
            </g>
        </g>
    </g>
</svg>