<?xml version="1.0" encoding="UTF-8"?>
<svg width="46px" height="46px" viewBox="0 0 46 46" version="1.1" xmlns="http://www.w3.org/2000/svg" xmlns:xlink="http://www.w3.org/1999/xlink">
    <!-- Generator: Sketch 55.2 (78181) - https://sketchapp.com -->
    <title>filter-icon-square-blue</title>
    <desc>Created with Sketch.</desc>
    <g id="filter-icon-square-blue" stroke="none" stroke-width="1" fill="none" fill-rule="evenodd">
        <g id="icon">
            <rect id="icon-bg" fill="#EEF4F9" x="0" y="0" width="46" height="46" rx="2"></rect>
            <rect id="Rectangle" fill="#3559B9" x="16" y="15" width="19" height="2" rx="1"></rect>
            <path d="M15,19 C16.6568542,19 18,17.6568542 18,16 C18,14.3431458 16.6568542,13 15,13 C13.3431458,13 12,14.3431458 12,16 C12,17.6568542 13.3431458,19 15,19 Z M15,17 C14.4477153,17 14,16.5522847 14,16 C14,15.4477153 14.4477153,15 15,15 C15.5522847,15 16,15.4477153 16,16 C16,16.5522847 15.5522847,17 15,17 Z" id="Oval" fill="#3559B9" fill-rule="nonzero"></path>
            <path d="M32,33 C33.6568542,33 35,31.6568542 35,30 C35,28.3431458 33.6568542,27 32,27 C30.3431458,27 29,28.3431458 29,30 C29,31.6568542 30.3431458,33 32,33 Z M32,31 C31.4477153,31 31,30.5522847 31,30 C31,29.4477153 31.4477153,29 32,29 C32.5522847,29 33,29.4477153 33,30 C33,30.5522847 32.5522847,31 32,31 Z" id="Oval" fill="#3559B9" fill-rule="nonzero"></path>
            <path d="M23,26 C24.6568542,26 26,24.6568542 26,23 C26,21.3431458 24.6568542,20 23,20 C21.3431458,20 20,21.3431458 20,23 C20,24.6568542 21.3431458,26 23,26 Z M23,24 C22.4477153,24 22,23.5522847 22,23 C22,22.4477153 22.4477153,22 23,22 C23.5522847,22 24,22.4477153 24,23 C24,23.5522847 23.5522847,24 23,24 Z" id="Oval" fill="#3559B9" fill-rule="nonzero"></path>
            <rect id="Rectangle" fill="#3559B9" x="12" y="22" width="9" height="2" rx="1"></rect>
            <rect id="Rectangle" fill="#3559B9" x="25" y="22" width="10" height="2" rx="1"></rect>
            <rect id="Rectangle" fill="#3559B9" x="12" y="29" width="19" height="2" rx="1"></rect>
        </g>
    </g>
</svg>