<?xml version="1.0" encoding="UTF-8"?>
<svg width="50px" height="50px" viewBox="0 0 50 50" version="1.1" xmlns="http://www.w3.org/2000/svg" xmlns:xlink="http://www.w3.org/1999/xlink">
    <!-- Generator: Sketch 43.2 (39069) - http://www.bohemiancoding.com/sketch -->
    <title>filter-icon-square</title>
    <desc>Created with Sketch.</desc>
    <defs></defs>
    <g id="layouts" stroke="none" stroke-width="1" fill="none" fill-rule="evenodd">
        <g id="filter-icon-square">
            <rect id="icon-bg" fill="#FFFFFF" x="0" y="0" width="50" height="50" rx="2"></rect>
            <g id="icon" transform="translate(13.000000, 14.000000)">
                <rect id="line" fill="#3559B9" x="0" y="2" width="25" height="2" rx="1"></rect>
                <rect id="line" fill="#3559B9" x="0" y="10" width="25" height="2" rx="1"></rect>
                <rect id="line" fill="#3559B9" x="0" y="18" width="25" height="2" rx="1"></rect>
                <path d="M3,6 C1.34314575,6 0,4.65685425 0,3 C0,1.34314575 1.34314575,0 3,0 C4.65685425,0 6,1.34314575 6,3 C6,4.65685425 4.65685425,6 3,6 Z" id="Oval-2" fill="#3559B9" fill-rule="nonzero"></path>
                <path d="M12,14 C10.3431458,14 9,12.6568542 9,11 C9,9.34314575 10.3431458,8 12,8 C13.6568542,8 15,9.34314575 15,11 C15,12.6568542 13.6568542,14 12,14 Z" id="Oval-2" fill="#3559B9" fill-rule="nonzero"></path>
                <path d="M22,22 C20.3431458,22 19,20.6568542 19,19 C19,17.3431458 20.3431458,16 22,16 C23.6568542,16 25,17.3431458 25,19 C25,20.6568542 23.6568542,22 22,22 Z" id="Oval-2" fill="#3559B9" fill-rule="nonzero"></path>
                <path d="M22,20 C22.5522847,20 23,19.5522847 23,19 C23,18.4477153 22.5522847,18 22,18 C21.4477153,18 21,18.4477153 21,19 C21,19.5522847 21.4477153,20 22,20 Z" id="Path" fill="#FFFFFF"></path>
                <path d="M12,12 C12.5522847,12 13,11.5522847 13,11 C13,10.4477153 12.5522847,10 12,10 C11.4477153,10 11,10.4477153 11,11 C11,11.5522847 11.4477153,12 12,12 Z" id="Path" fill="#FFFFFF"></path>
                <path d="M3,4 C3.55228475,4 4,3.55228475 4,3 C4,2.44771525 3.55228475,2 3,2 C2.44771525,2 2,2.44771525 2,3 C2,3.55228475 2.44771525,4 3,4 Z" id="Path" fill="#FFFFFF"></path>
            </g>
        </g>
    </g>
</svg>