<?xml version="1.0" encoding="UTF-8" standalone="no"?>
<svg width="35px" height="35px" viewBox="0 0 35 35" version="1.1" xmlns="http://www.w3.org/2000/svg" xmlns:xlink="http://www.w3.org/1999/xlink">
    <!-- Generator: Sketch 3.7.1 (28215) - http://www.bohemiancoding.com/sketch -->
    <title>fullscreen-icon-1</title>
    <desc>Created with Sketch.</desc>
    <defs>
        <polyline id="path-1" points="26 19 26 26 9 26 9 9 9 9 16 9"></polyline>
        <mask id="mask-2" maskContentUnits="userSpaceOnUse" maskUnits="objectBoundingBox" x="0" y="0" width="17" height="17" fill="white">
            <use xlink:href="#path-1"></use>
        </mask>
    </defs>
    <g id="layouts" stroke="none" stroke-width="1" fill="none" fill-rule="evenodd">
        <g id="etusivu-mobile-portrait" transform="translate(-71.000000, -843.000000)">
            <g id="sadetutka" transform="translate(0.000000, 762.000000)">
                <g id="fullscreen-icon-1" transform="translate(71.000000, 81.000000)">
                    <circle id="Oval-208" fill="#FFFFFF" cx="17.5" cy="17.5" r="17.5"></circle>
                    <use id="Rectangle-499" stroke="#009FEA" mask="url(#mask-2)" stroke-width="4" xlink:href="#path-1"></use>
                    <path d="M24,12.4142136 L15.193958,21.220256 C14.8034337,21.6107803 14.1702688,21.6107803 13.7797445,21.2202561 C13.3892202,20.8297318 13.3892201,20.1965668 13.7797444,19.8060425 L22.5857865,11 L20,11 C19.4477153,11 19,10.5522847 19,10 C19,9.44771525 19.4477153,9 20,9 L25,9 L26,9 L26,10 L26,15 C26,15.5522847 25.5522847,16 25,16 C24.4477153,16 24,15.5522847 24,15 L24,12.4142136 Z" id="Combined-Shape" fill="#009FEA"></path>
                </g>
            </g>
        </g>
    </g>
</svg>