<?xml version="1.0" encoding="UTF-8"?>
<svg width="50px" height="50px" viewBox="0 0 50 50" version="1.1" xmlns="http://www.w3.org/2000/svg" xmlns:xlink="http://www.w3.org/1999/xlink">
    <!-- Generator: Sketch 47.1 (45422) - http://www.bohemiancoding.com/sketch -->
    <title>icon-jalankulkuliukkaus-1</title>
    <desc>Created with Sketch.</desc>
    <defs></defs>
    <g id="layouts" stroke="none" stroke-width="1" fill="none" fill-rule="evenodd">
        <g id="icon-jalankulkuliukkaus-1">
            <g>
                <circle id="bg" fill="#F9BF2E" cx="25" cy="25" r="25"></circle>
                <g id="icon" transform="translate(13.000000, 10.000000)" fill="#231F20">
                    <g id="Page-1">
                        <path d="M9.86110784,1.57775132 L9.27421479,6.55884542 L9.27421479,6.55884542 C9.22015925,7.01762702 9.48739209,7.45372647 9.92070526,7.61385847 L11.6117176,8.23877647 L8.75430588,10.0740706 L4.67303228,9.01999818 L4.67303228,9.01999818 C4.21605132,8.9019735 3.73876648,9.11953245 3.52810428,9.54188641 L0.134070588,16.3465412 L1.57265882,17.0947765 L4.89605277,12.9308023 L4.89605277,12.9308023 C5.20323362,12.5459267 5.74488497,12.4419664 6.17272899,12.6857671 L8.08795294,13.7771294 L5.18750643,16.8660438 L5.18750643,16.8660438 C4.91669397,17.1544533 4.84137408,17.5754066 4.99537764,17.9398272 L7.66724706,24.2623059 L9.00842353,23.7738353 L7.752009,19.1351479 L7.752009,19.1351479 C7.64676337,18.7465806 7.78477908,18.3327904 8.10220823,18.0852022 L16.6233476,11.4388886 L16.6233476,11.4388886 C16.9651559,11.1722852 17.439811,11.1562632 17.7988193,11.3992105 L19.2098353,12.3540706 L17.6950118,17.1992471 L18.8441882,17.6961882 L21.4918826,12.4784885 L21.4918826,12.4784885 C21.6910876,12.0859237 21.6101478,11.6092615 21.2925256,11.3044568 L18.415995,8.54400582 L18.415995,8.54400582 C17.1001889,7.2812979 15.4641356,6.40244822 13.6848507,6.00254548 L11.5114824,5.51407059 L11.5185412,0.627952941 L10.7607023,0.69915009 L10.7607023,0.69915009 C10.2911805,0.743260538 9.91629071,1.10940178 9.86110784,1.57775132 Z" id="Fill-2"></path>
                        <path d="M16.4760941,5.55670588 C17.7904471,5.65129412 18.9283294,4.63058824 19.0215059,3.27529412 C19.1132706,1.92 18.1236235,0.745411765 16.8092706,0.649411765 C15.4977412,0.554823529 14.3570353,1.57694118 14.2652706,2.93082353 C14.1720941,4.28611765 15.1631529,5.46211765 16.4760941,5.55670588" id="Fill-3"></path>
                    </g>
                    <g id="Group" transform="translate(2.000000, 19.000000)">
                        <polygon id="Rectangle-3" transform="translate(12.500000, 7.000000) rotate(-9.000000) translate(-12.500000, -7.000000) " points="1 6 24 7 1 8"></polygon>
                        <polygon id="Rectangle-3-Copy" transform="translate(16.500000, 3.000000) rotate(-9.000000) translate(-16.500000, -3.000000) " points="9 2 24 3 9 4"></polygon>
                    </g>
                </g>
            </g>
        </g>
    </g>
</svg>