<?xml version="1.0" encoding="UTF-8"?>
<svg width="50px" height="50px" viewBox="0 0 50 50" version="1.1" xmlns="http://www.w3.org/2000/svg" xmlns:xlink="http://www.w3.org/1999/xlink">
    <!-- Generator: Sketch 55.2 (78181) - https://sketchapp.com -->
    <title>icon-ei-tuulivahinkoa</title>
    <desc>Created with Sketch.</desc>
    <g id="icon-ei-tuulivahinkoa" stroke="none" stroke-width="1" fill="none" fill-rule="evenodd">
        <g id="icon-tuulivahinko">
            <circle id="bg" fill="#364BFA" cx="25" cy="25" r="25"></circle>
            <g id="icon" transform="translate(10.000000, 16.000000)" fill="#FFFFFF" fill-rule="nonzero">
                <path d="M13.4184783,15.3703704 C13.4184783,17.7791998 15.337377,19.7407407 17.7155797,19.7407407 C20.0937824,19.7407407 22.0126812,17.7791998 22.0126812,15.3703704 C22.0126812,12.961541 20.0937824,11 17.7155797,11 L7,11 C6.44771525,11 6,11.4477153 6,12 C6,12.5522847 6.44771525,13 7,13 L17.7155797,13 C18.9792547,13 20.0126812,14.0563915 20.0126812,15.3703704 C20.0126812,16.6843493 18.9792547,17.7407407 17.7155797,17.7407407 C16.4519047,17.7407407 15.4184783,16.6843493 15.4184783,15.3703704 C15.4184783,14.8180856 14.970763,14.3703704 14.4184783,14.3703704 C13.8661935,14.3703704 13.4184783,14.8180856 13.4184783,15.3703704 Z" id="path-2"></path>
                <path d="M12.0061802,6.94067797 C13.2692373,6.94067796 14.3021583,5.85295285 14.3021583,4.5 C14.3021583,3.14704714 13.2692373,2.05932203 12.0061802,2.05932203 C10.7431231,2.05932203 9.71020208,3.14704714 9.71020208,4.5 C9.71020208,5.06866608 9.26270577,5.52966102 8.7106911,5.52966102 C8.15867643,5.52966102 7.71118012,5.06866608 7.71118012,4.5 C7.71118012,2.01972226 9.62914051,0 12.0061802,0 C14.3832199,0 16.3011803,2.01972226 16.3011803,4.5 C16.3011803,5.39876262 16.0493378,6.23705088 15.6150679,6.94067797 L22.7709984,6.94067797 C24.0146469,6.94067797 25.0316957,5.85295286 25.0316957,4.5 C25.0316957,3.14704714 24.0146469,2.05932203 22.7709984,2.05932203 C21.5273499,2.05932203 20.5103011,3.14704714 20.5103011,4.5 C20.5103011,5.06866608 20.0696812,5.52966102 19.526149,5.52966102 C18.9826168,5.52966102 18.5419968,5.06866608 18.5419968,4.5 C18.5419968,2.01972226 20.4304852,0 22.7709984,0 C25.1115117,0 27,2.01972226 27,4.5 C27,6.98027774 25.1115117,9 22.7709984,9 L0.984152139,9 C0.440619921,9 -1.31115404e-15,8.53900506 0,7.97033898 C1.42041687e-15,7.40167291 0.440619921,6.94067797 0.984152139,6.94067797 L12.0061805,6.94067797 Z" id="path-1"></path>
            </g>
            <g id="ruksi" transform="translate(4.000000, 4.000000)" fill-rule="nonzero">
                <polygon id="Path" fill="#364BFA" points="7.5 39.7426407 39.6348749 7.60776574 35.3922343 3.36512505 3.25735931 35.5"></polygon>
                <polygon id="Path" fill="#FFFFFF" points="7.5 36.9142136 6.08578644 35.5 35.3922343 6.19355218 36.8064478 7.60776574"></polygon>
                <path d="M21,42 C32.5979797,42 42,32.5979797 42,21 C42,9.40202025 32.5979797,0 21,0 C9.40202025,0 0,9.40202025 0,21 C0,32.5979797 9.40202025,42 21,42 Z M21,40 C10.5065898,40 2,31.4934102 2,21 C2,10.5065898 10.5065898,2 21,2 C31.4934102,2 40,10.5065898 40,21 C40,31.4934102 31.4934102,40 21,40 Z" id="Oval" fill="#FFFFFF"></path>
            </g>
        </g>
    </g>
</svg>