<?xml version="1.0" encoding="UTF-8"?>
<svg width="50px" height="50px" viewBox="0 0 50 50" version="1.1" xmlns="http://www.w3.org/2000/svg" xmlns:xlink="http://www.w3.org/1999/xlink">
    <!-- Generator: Sketch 53.2 (72643) - https://sketchapp.com -->
    <title>icon-tulva-04</title>
    <desc>Created with Sketch.</desc>
    <g id="icon-tulva-04" stroke="none" stroke-width="1" fill="none" fill-rule="evenodd">
        <g>
            <circle id="bg" fill="#F9BF2E" cx="25" cy="25" r="25"></circle>
            <g id="icon" transform="translate(12.000000, 13.000000)" fill="#231F20">
                <path d="M25.1437694,20.0003072 L25.1437694,20 C23.2546316,20 22.2722435,21.058126 21.4827549,21.9083257 C20.7765113,22.6690015 20.2186847,23.2697389 19.0719364,23.2697389 C17.9251272,23.2697389 17.3673007,22.6690015 16.6611179,21.9083257 C15.8716902,21.058126 14.8892412,20 13.0001034,20 C11.1110874,20 10.1286992,21.0581874 9.33933234,21.9083257 C8.63314959,22.6690015 8.07532302,23.2697389 6.92863557,23.2697389 C5.78194812,23.2697389 5.2241824,22.6690015 4.51799965,21.9083257 C3.72863276,21.0581874 2.74630547,20 0.857289415,20 L0.857289415,20.0002458 C0.383803157,20.0002458 1.21495323e-05,20.3878341 1.21495323e-05,20.8658679 C1.21495323e-05,21.3439017 0.383803157,21.73149 0.857289415,21.73149 C0.863374575,21.73149 0.869216328,21.7306912 0.875301487,21.7305069 C2.00963606,21.7368971 2.56545453,22.3351152 3.26786449,23.0916743 C4.05723137,23.9418126 5.03961952,25 6.92863557,25 C8.81771247,25 9.80010062,23.9418126 10.5894675,23.0916743 C11.2956503,22.3310599 11.8534768,21.7301997 13.0001034,21.7301997 C14.1469126,21.7301997 14.7047391,22.3310599 15.4109828,23.0916743 C16.2003496,23.9418126 17.1827986,25 19.0719364,25 C20.9610742,25 21.9434623,23.941874 22.73289,23.0916743 C23.4352391,22.3352381 23.9910576,21.7372043 25.1249054,21.7305684 C25.1309297,21.7306912 25.1367714,21.73149 25.1427349,21.73149 C25.6162211,21.73149 26.0000121,21.3439017 26.0000121,20.8658679 C26.0000121,20.3881413 25.616708,20.0008602 25.1437694,20.0003072" id="fill-04"></path>
                <path d="M25.1437694,15.0000614 L25.1437694,15 L25.1429783,15 L25.1427349,15 L25.1422481,15 C23.2540839,15.0006144 22.2720609,16.0583233 21.4827549,16.9083491 C20.7765113,17.6690343 20.2186847,18.269779 19.0719364,18.269779 C17.9251272,18.269779 17.3673007,17.6690343 16.6611179,16.9082877 C15.8716902,16.0580775 14.8892412,15 13.0001034,15 C11.1110874,15 10.1286992,16.058139 9.33933234,16.9083491 C8.63314959,17.6690343 8.07532302,18.269779 6.92863557,18.269779 C5.78194812,18.269779 5.2241824,17.6690343 4.51799965,16.9083491 C3.72863276,16.058139 2.74630547,15 0.857289415,15 C0.383803157,15 1.21495323e-05,15.3875931 1.21495323e-05,15.8656328 C1.21495323e-05,16.3436724 0.383803157,16.7312655 0.857289415,16.7312655 C0.862279246,16.7312655 0.867086522,16.7305896 0.872076353,16.7304667 C2.00860159,16.7356895 2.56478516,17.3343451 3.26786449,18.0916509 C4.05723137,18.941861 5.03961952,20 6.92863557,20 C8.81771247,20 9.80010062,18.941861 10.5894675,18.0916509 C11.2956503,17.3310886 11.8534768,16.730221 13.0001034,16.730221 C14.1469126,16.730221 14.7047391,17.3310886 15.4109828,18.0916509 C16.2003496,18.941861 17.1827986,20 19.0719364,20 C20.9610742,20 21.9434623,18.9419225 22.73289,18.0916509 C23.4359085,17.3345295 23.9920312,16.7359968 25.1281305,16.7304667 C25.1330595,16.7305896 25.1378059,16.7312655 25.1427349,16.7312655 C25.6162211,16.7312655 26.0000121,16.3436724 26.0000121,15.8656328 C26.0000121,15.3879003 25.616708,15.0006144 25.1437694,15.0000614" id="fill-03"></path>
                <path d="M25.1437694,10.0000614 L25.1437694,10 L25.1429783,10 L25.1427349,10 C25.1425523,10 25.1424306,10.0000614 25.1422481,10.0000614 C23.2540839,10.0006144 22.2720609,11.0583103 21.4827549,11.9083257 C20.7765113,12.6689401 20.2186847,13.2697389 19.0719364,13.2697389 C17.9251272,13.2697389 17.3673007,12.6689401 16.6611179,11.9082642 C15.8716902,11.0580645 14.8892412,10 13.0001034,10 C11.1110874,10 10.1286992,11.058126 9.33933234,11.9083257 C8.63314959,12.6689401 8.07532302,13.2697389 6.92863557,13.2697389 C5.78194812,13.2697389 5.2241824,12.6689401 4.51799965,11.9083257 C3.72863276,11.058126 2.74630547,10 0.857289415,10 C0.383803157,10 1.21495323e-05,10.3875269 1.21495323e-05,10.8656221 C1.21495323e-05,11.3436559 0.383803157,11.7312442 0.857289415,11.7312442 C0.862279246,11.7312442 0.867086522,11.7305684 0.872076353,11.7305069 C2.00860159,11.7357296 2.56478516,12.3343779 3.26786449,13.0916743 C4.05723137,13.941874 5.03961952,15 6.92863557,15 C8.81771247,15 9.80010062,13.941874 10.5894675,13.0916743 C11.2956503,12.3309985 11.8534768,11.7302611 13.0001034,11.7302611 C14.1469126,11.7302611 14.7047391,12.3309985 15.4109828,13.0916743 C16.2003496,13.941874 17.1827986,15 19.0719364,15 C20.9610742,15 21.9434623,13.9419355 22.73289,13.0916743 C23.4359085,12.3345622 23.9920312,11.7359754 25.1281305,11.7305069 C25.1330595,11.7305684 25.1378059,11.7312442 25.1427349,11.7312442 C25.6162211,11.7312442 26.0000121,11.3436559 26.0000121,10.8656221 C26.0000121,10.3878955 25.616708,10.0006144 25.1437694,10.0000614" id="fill-02"></path>
                <path d="M13.0002934,0 L2,8 L6,8 L6,14.4115236 L7.03148762,14.4115236 C8.20985677,14.4115236 8.51216224,13.7905051 9.23807989,13.0043983 C10.0490889,12.1259134 11.0572753,11.0322772 12.9991198,11.0322772 C14.9409642,11.0322772 15.9491505,12.1259134 16.7601597,13.0043983 C17.4860773,13.7905051 17.376284,14.4115236 18.5546533,14.4115236 L20,14.4115236 L20,8 L24,8 L13.0002934,0 Z M15,10.7752166 L11,10.7752166 L11,8 L15,8 L15,10.7752166 Z" id="fill-01" fill-rule="nonzero"></path>
            </g>
        </g>
    </g>
</svg>