<?xml version="1.0" encoding="UTF-8"?>
<svg width="50px" height="50px" viewBox="0 0 50 50" version="1.1" xmlns="http://www.w3.org/2000/svg" xmlns:xlink="http://www.w3.org/1999/xlink">
    <!-- Generator: Sketch 47.1 (45422) - http://www.bohemiancoding.com/sketch -->
    <title>icon-trombi</title>
    <desc>Created with Sketch.</desc>
    <defs></defs>
    <g id="layouts" stroke="none" stroke-width="1" fill="none" fill-rule="evenodd">
        <g id="icon-trombi">
            <g>
                <circle id="bg" fill="#851BE3" cx="25" cy="25" r="25"></circle>
                <g id="icon" transform="translate(13.000000, 18.000000)" fill-rule="nonzero" fill="#FFFFFF">
                    <path d="M9,14 L15,14 C15.5522847,14 16,13.5522847 16,13 C16,12.4477153 15.5522847,12 15,12 L9,12 C8.44771525,12 8,12.4477153 8,13 C8,13.5522847 8.44771525,14 9,14 Z" id="Line"></path>
                    <path d="M7,18 L11,18 C11.5522847,18 12,17.5522847 12,17 C12,16.4477153 11.5522847,16 11,16 L7,16 C6.44771525,16 6,16.4477153 6,17 C6,17.5522847 6.44771525,18 7,18 Z" id="Line"></path>
                    <path d="M9,10 L19,10 C19.5522847,10 20,9.55228475 20,9 C20,8.44771525 19.5522847,8 19,8 L9,8 C8.44771525,8 8,8.44771525 8,9 C8,9.55228475 8.44771525,10 9,10 Z" id="Line"></path>
                    <path d="M6,6 L20,6 C20.5522847,6 21,5.55228475 21,5 C21,4.44771525 20.5522847,4 20,4 L6,4 C5.44771525,4 5,4.44771525 5,5 C5,5.55228475 5.44771525,6 6,6 Z" id="Line"></path>
                    <path d="M1,2 L22,2 C22.5522847,2 23,1.55228475 23,1 C23,0.44771525 22.5522847,0 22,0 L1,0 C0.44771525,0 0,0.44771525 0,1 C0,1.55228475 0.44771525,2 1,2 Z" id="Line"></path>
                </g>
            </g>
        </g>
    </g>
</svg>