<?xml version="1.0" encoding="UTF-8"?>
<svg width="50px" height="50px" viewBox="0 0 50 50" version="1.1" xmlns="http://www.w3.org/2000/svg" xmlns:xlink="http://www.w3.org/1999/xlink">
    <!-- Generator: Sketch 47.1 (45422) - http://www.bohemiancoding.com/sketch -->
    <title>icon-lumisade-1</title>
    <desc>Created with Sketch.</desc>
    <defs></defs>
    <g id="layouts" stroke="none" stroke-width="1" fill="none" fill-rule="evenodd">
        <g id="icon-lumisade-1">
            <g>
                <circle id="bg" fill="#327BE3" cx="25" cy="25" r="25"></circle>
                <g id="hiutale" transform="translate(18.000000, 16.000000)" fill-rule="nonzero" fill="#FFFFFF">
                    <path d="M0.899816092,14.5589519 L15.8998161,5.90105715 C16.7608014,5.40410245 17.0559066,4.30327453 16.5589519,3.44228917 C16.0619972,2.58130382 14.9611693,2.28619867 14.1001839,2.78315337 L-0.899816092,11.4410481 C-1.76080145,11.9380028 -2.0559066,13.0388307 -1.55895189,13.8998161 C-1.06199719,14.7608014 0.0388307364,15.0559066 0.899816092,14.5589519 Z" id="line"></path>
                    <path d="M0.899816092,14.5589519 L15.8998161,5.90105715 C16.7608014,5.40410245 17.0559066,4.30327453 16.5589519,3.44228917 C16.0619972,2.58130382 14.9611693,2.28619867 14.1001839,2.78315337 L-0.899816092,11.4410481 C-1.76080145,11.9380028 -2.0559066,13.0388307 -1.55895189,13.8998161 C-1.06199719,14.7608014 0.0388307364,15.0559066 0.899816092,14.5589519 Z" id="line" transform="translate(7.500000, 8.671053) scale(-1, 1) translate(-7.500000, -8.671053) "></path>
                    <path d="M5.7,0.0263107827 L5.7,17.3157943 C5.7,18.3099068 6.50588745,19.1157943 7.5,19.1157943 C8.49411255,19.1157943 9.3,18.3099068 9.3,17.3157943 L9.3,0.0263107827 C9.3,-0.967801767 8.49411255,-1.77368922 7.5,-1.77368922 C6.50588745,-1.77368922 5.7,-0.967801767 5.7,0.0263107827 Z" id="line"></path>
                </g>
            </g>
        </g>
    </g>
</svg>