<?xml version="1.0" encoding="UTF-8"?>
<svg width="50px" height="50px" viewBox="0 0 50 50" version="1.1" xmlns="http://www.w3.org/2000/svg" xmlns:xlink="http://www.w3.org/1999/xlink">
    <!-- Generator: Sketch 47.1 (45422) - http://www.bohemiancoding.com/sketch -->
    <title>icon-vesisade-3</title>
    <desc>Created with Sketch.</desc>
    <defs></defs>
    <g id="layouts" stroke="none" stroke-width="1" fill="none" fill-rule="evenodd">
        <g id="icon-vesisade-3">
            <g>
                <circle id="bg" fill="#028DC5" cx="25" cy="25" r="25"></circle>
                <path d="M18.5049012,20.4220171 C18.8221612,21.116037 19,21.8945376 19,22.7169262 C19,25.6346873 16.7614237,28 14,28 C11.2385762,28 9,25.6346873 9,22.7169262 C9,21.9085019 9.17185063,21.1424879 9.47905822,20.4574439 L12.2858491,12.908448 C13.2317563,10.3643861 14.7649769,10.3633153 15.7112822,12.908448 L18.5049012,20.4220171 L18.5049012,20.4220171 Z" id="pisara-2" fill="#FFFFFF" fill-rule="nonzero"></path>
                <path d="M40.5049012,20.4220171 C40.8221612,21.116037 41,21.8945376 41,22.7169262 C41,25.6346873 38.7614237,28 36,28 C33.2385762,28 31,25.6346873 31,22.7169262 C31,21.9085019 31.1718506,21.1424879 31.4790582,20.4574439 L34.2858491,12.908448 C35.2317563,10.3643861 36.7649769,10.3633153 37.7112822,12.908448 L40.5049012,20.4220171 L40.5049012,20.4220171 Z" id="pisara-2" fill="#FFFFFF" fill-rule="nonzero"></path>
                <path d="M29.5049012,34.4220171 C29.8221612,35.116037 30,35.8945376 30,36.7169262 C30,39.6346873 27.7614237,42 25,42 C22.2385762,42 20,39.6346873 20,36.7169262 C20,35.9085019 20.1718506,35.1424879 20.4790582,34.4574439 L23.2858491,26.908448 C24.2317563,24.3643861 25.7649769,24.3633153 26.7112822,26.908448 L29.5049012,34.4220171 L29.5049012,34.4220171 Z" id="pisara-2" fill="#FFFFFF" fill-rule="nonzero"></path>
            </g>
        </g>
    </g>
</svg>