<?xml version="1.0" encoding="UTF-8"?>
<svg width="30px" height="30px" viewBox="0 0 30 30" version="1.1" xmlns="http://www.w3.org/2000/svg" xmlns:xlink="http://www.w3.org/1999/xlink">
    <!-- Generator: Sketch 55.2 (78181) - https://sketchapp.com -->
    <title>images-nega-icon</title>
    <desc>Created with Sketch.</desc>
    <g id="images-nega-icon" stroke="none" stroke-width="1" fill="none" fill-rule="evenodd">
        <g transform="translate(1.000000, 5.000000)">
            <polygon id="fill" fill-opacity="0.2" fill="#000000" points="5 4 0 4 0 24 20 24 20 19 5 19"></polygon>
            <rect id="fill" fill-opacity="0.3" fill="#000000" x="4" y="0" width="20" height="20"></rect>
            <path d="M4,0 L24,0 L24,20 L4,20 L4,0 Z M5,1 L5,19 L23,19 L23,1 L5,1 Z" id="line-02" fill="#FFFFFF" fill-rule="nonzero"></path>
            <polygon id="line-01" fill="#FFFFFF" fill-rule="nonzero" points="20 23 1 23 1 5 4.5 5 4.5 4 0 4 0 24 21 24 21 19.5 20 19.5"></polygon>
        </g>
    </g>
</svg>