<?xml version="1.0" encoding="UTF-8" standalone="no"?>
<svg width="9px" height="13px" viewBox="0 0 9 13" version="1.1" xmlns="http://www.w3.org/2000/svg" xmlns:xlink="http://www.w3.org/1999/xlink">
    <!-- Generator: Sketch 3.7.2 (28276) - http://www.bohemiancoding.com/sketch -->
    <title>icon</title>
    <desc>Created with Sketch.</desc>
    <defs>
        <polyline id="path-1" points="0 0 9 0 9 13.3773066 0 13.3773066"></polyline>
    </defs>
    <g stroke="none" stroke-width="1" fill="none" fill-rule="evenodd">
        <g transform="translate(-217.000000, -712.000000)">
            <g transform="translate(0.000000, 380.000000)">
                <g transform="translate(0.000000, 140.000000)">
                    <g transform="translate(201.000000, 0.000000)">
                        <g transform="translate(3.000000, 192.000000)">
                            <g transform="translate(13.000000, 0.000000)">
                                <mask id="mask-2" fill="white">
                                    <use xlink:href="#path-1"></use>
                                </mask>
                                <g></g>
                                <path d="M5.00110466,1.20791957 C4.80226099,0.84031983 4.47943243,0.842107394 4.2840362,1.21149469 C4.2840362,1.21149469 1.73378909,5.87486571 1.37463924,6.72625683 C1.01450441,7.57994625 0.9,7.93745901 0.9,8.62784171 C0.9,10.7927092 2.59232591,12.5475862 4.67987671,12.5475862 C6.76755063,12.5475862 8.45999966,10.7927092 8.45999966,8.62784171 C8.45999966,7.92252009 8.33884661,7.61901728 7.96504512,6.68961177 C7.59136675,5.76046162 5.00110466,1.20791957 5.00110466,1.20791957 Z" fill="#63B9E9" mask="url(#mask-2)"></path>
                            </g>
                        </g>
                    </g>
                </g>
            </g>
        </g>
    </g>
</svg>