<?xml version="1.0" encoding="UTF-8"?>
<svg width="20px" height="20px" viewBox="0 0 20 20" version="1.1" xmlns="http://www.w3.org/2000/svg" xmlns:xlink="http://www.w3.org/1999/xlink">
    <!-- Generator: Sketch 43.2 (39069) - http://www.bohemiancoding.com/sketch -->
    <title>lisaa-havainto-icon</title>
    <desc>Created with Sketch.</desc>
    <defs></defs>
    <g id="layouts" stroke="none" stroke-width="1" fill="none" fill-rule="evenodd">
        <g id="havaintokartta-etusivu-copy" transform="translate(-178.000000, -617.000000)" fill="#F3F3F3">
            <g id="bottom-menu-etusivu" transform="translate(0.000000, 607.000000)">
                <g id="Group-2" transform="translate(139.000000, 10.000000)">
                    <g id="lisaa-havainto-icon" transform="translate(39.000000, 0.000000)">
                        <path d="M0,10 C0,4.4771525 4.47593818,0 10,0 L10,0 C15.5228475,0 20,4.47593818 20,10 L20,10 C20,15.5228475 15.5240618,20 10,20 L10,20 C4.4771525,20 0,15.5240618 0,10 L0,10 Z M9,9 L5,9 C4.44771525,9 4,9.44771525 4,10 C4,10.5522847 4.44771525,11 5,11 L9,11 L9,15 C9,15.5522847 9.44771525,16 10,16 C10.5522847,16 11,15.5522847 11,15 L11,11 L15,11 C15.5522847,11 16,10.5522847 16,10 C16,9.44771525 15.5522847,9 15,9 L11,9 L11,5 C11,4.44771525 10.5522847,4 10,4 C9.44771525,4 9,4.44771525 9,5 L9,9 Z" id="bg"></path>
                    </g>
                </g>
            </g>
        </g>
    </g>
</svg>