<?xml version="1.0" encoding="UTF-8" standalone="no"?>
<svg width="99px" height="100px" viewBox="0 0 99 100" version="1.1" xmlns="http://www.w3.org/2000/svg" xmlns:xlink="http://www.w3.org/1999/xlink">
    <!-- Generator: Sketch 3.8.3 (29802) - http://www.bohemiancoding.com/sketch -->
    <title>merkki</title>
    <desc>Created with Sketch.</desc>
    <defs>
        <polygon id="path-1" points="0 100 99.1837442 100 99.1837442 0 0 0"></polygon>
    </defs>
    <g stroke="none" stroke-width="1" fill="none" fill-rule="evenodd">
        <g transform="translate(-138.000000, -136.000000)">
            <g transform="translate(138.000000, 136.000000)">
                <path d="M49.4978978,4.57075 C24.6405934,4.57075 4.42001306,24.95825 4.42001306,50.01575 C4.42001306,75.08075 24.6405934,95.47075 49.4978978,95.47075 C74.3552023,95.47075 94.5782621,75.08075 94.5782621,50.01575 C94.5782621,24.95825 74.3552023,4.57075 49.4978978,4.57075 L49.4978978,4.57075 Z M49.4978978,99.44075 C22.4710032,99.44075 0.482516852,77.26825 0.482516852,50.01575 C0.482516852,22.76825 22.4710032,0.60075 49.4978978,0.60075 C76.5247924,0.60075 98.5132788,22.76825 98.5132788,50.01575 C98.5132788,77.26825 76.5247924,99.44075 49.4978978,99.44075 L49.4978978,99.44075 Z" fill="#FFFFFF"></path>
                <path d="M4.58713349,61.54025 L4.20776515,61.53525 L4.20776515,58.18275 L4.58713349,58.18775 C9.02797461,58.18775 12.6406522,54.54525 12.6406522,50.06525 C12.6406522,45.58775 9.02797461,41.94275 4.58713349,41.94275 C4.39868909,41.94275 4.21024468,41.95275 4.02675934,41.96525 L3.82343775,38.61775 C4.07387044,38.60275 4.3292622,38.59025 4.58713349,38.59025 C10.8603485,38.59025 15.9657041,43.73775 15.9657041,50.06525 C15.9657041,56.39275 10.8603485,61.54025 4.58713349,61.54025 L4.58713349,61.54025 Z M94.4924704,61.54025 C88.2167758,61.54025 83.1138998,56.39275 83.1138998,50.06525 C83.1138998,43.73775 88.2167758,38.59025 94.4924704,38.59025 C94.7503416,38.59025 95.0032539,38.60275 95.2561661,38.61775 L95.0528445,41.96525 C94.8668796,41.95275 94.6809148,41.94275 94.4924704,41.94275 C90.0516292,41.94275 86.4389517,45.58775 86.4389517,50.06525 C86.4389517,54.54525 90.0516292,58.18775 94.4924704,58.18775 L94.8718387,58.18275 L94.8718387,61.53525 L94.4924704,61.54025 Z M9.11971728,68.14525 C7.8898696,68.14525 6.67489911,68.02275 5.50703972,67.77775 L6.17899279,64.49525 C7.12617386,64.69275 8.11550698,64.79275 9.11971728,64.79275 C17.1757155,64.79275 23.7315971,58.18525 23.7315971,50.06525 C23.7315971,41.94275 17.1757155,35.33525 9.11971728,35.33525 C8.07583447,35.33525 7.03939026,35.44525 6.03270042,35.66525 L5.33099297,32.38775 C6.56579972,32.12025 7.84027897,31.98275 9.11971728,31.98275 C19.0080894,31.98275 27.0541695,40.09525 27.0541695,50.06525 C27.0541695,60.03525 19.0080894,68.14525 9.11971728,68.14525 L9.11971728,68.14525 Z M89.957407,68.14525 C80.0690349,68.14525 72.0229548,60.03525 72.0229548,50.06525 C72.0229548,40.09525 80.0690349,31.98275 89.957407,31.98275 C91.2368453,31.98275 92.5138041,32.12025 93.7461313,32.39025 L93.0419444,35.66525 C92.0402136,35.44525 91.0012898,35.33525 89.957407,35.33525 C81.9014088,35.33525 75.3480067,41.94275 75.3480067,50.06525 C75.3480067,58.18525 81.9014088,64.79275 89.957407,64.79275 C90.9591378,64.79275 91.9509504,64.69275 92.9030906,64.49525 L93.5725641,67.77775 C92.3997457,68.02275 91.1847752,68.14525 89.957407,68.14525 L89.957407,68.14525 Z M44.6142124,29.96775 C46.823475,33.25025 48.5045975,36.91775 49.5385622,40.84525 C50.5725268,36.91775 52.2536493,33.25025 54.4629119,29.97025 C53.0718947,27.37525 51.4205267,24.93525 49.5385622,22.68525 C47.6541181,24.93275 46.0027501,27.37525 44.6142124,29.96775 L44.6142124,29.96775 Z M56.1589116,33.52275 C53.3099297,38.36525 51.6783979,44.01275 51.6783979,50.02275 C51.6783979,56.01775 53.3173683,61.66525 56.1713092,66.51275 C58.3260222,61.40025 59.5037997,55.81525 59.5037997,50.02275 C59.5037997,44.23275 58.3210631,38.64025 56.1589116,33.52275 L56.1589116,33.52275 Z M42.9157332,33.52025 C40.7535816,38.64025 39.5708451,44.23275 39.5708451,50.02275 C39.5708451,55.81525 40.7486226,61.40275 42.9033356,66.51525 C45.759756,61.66775 47.3962468,56.02025 47.3962468,50.02275 C47.3962468,44.01275 45.764715,38.36525 42.9157332,33.52025 L42.9157332,33.52025 Z M44.5968556,70.06525 C45.9903524,72.67025 47.6466795,75.12025 49.5385622,77.37525 C51.4279652,75.12025 53.0867719,72.67025 54.4777891,70.06525 C52.2610879,66.77775 50.5750064,63.10275 49.5385622,59.17525 C48.5021179,63.10275 46.8135569,66.77775 44.5968556,70.06525 L44.5968556,70.06525 Z M29.6204847,94.05525 L28.7352919,90.82525 C35.9259336,88.82025 42.2561778,84.96775 47.2772293,79.86275 C45.4498145,77.72525 43.8207622,75.42275 42.4099088,72.98275 C36.389606,80.20775 27.5847892,85.02775 17.6220312,85.68775 L17.4038324,82.34275 C26.9153157,81.71525 35.2589396,76.90275 40.7163887,69.76275 C39.1418861,66.46275 37.9517109,62.95775 37.1954538,59.31275 C33.4786359,69.08775 24.0737725,76.04525 13.0869679,76.04525 C11.762898,76.04525 10.4388281,75.94275 9.15195119,75.73775 L9.66521424,72.42775 C10.783483,72.60275 11.9339857,72.69275 13.0869679,72.69275 C25.4846259,72.69275 35.5713606,62.52275 35.5713606,50.02275 C35.5713606,37.52025 25.4846259,27.34775 13.0869679,27.34775 C11.9339857,27.34775 10.783483,27.43775 9.66521424,27.61275 L9.15195119,24.30025 C10.4388281,24.09775 11.762898,23.99525 13.0869679,23.99525 C24.076252,23.99525 33.4811154,30.95775 37.1979333,40.73525 C37.95667,37.08775 39.1493247,33.57775 40.7312659,30.27275 C35.2267057,23.06525 26.7789415,18.24275 17.1410021,17.68525 L17.331926,14.33775 C27.4335378,14.92275 36.3548926,19.75525 42.4272655,27.05275 C43.8356394,24.62275 45.4597326,22.32775 47.2797089,20.19525 C42.3156866,15.14025 36.0697464,11.31025 28.9832451,9.28525 L29.8882741,6.06025 C37.490518,8.23275 44.1976511,12.33025 49.5385622,17.73775 C54.8819528,12.33025 61.5890858,8.23275 69.1938093,6.06025 L70.0988383,9.28525 C63.0098574,11.31025 56.7639173,15.14025 51.7974155,20.19775 C53.6149121,22.32775 55.2414849,24.62525 56.6473793,27.05525 C62.7197522,19.75525 71.641107,14.92275 81.7427188,14.33775 L81.9336427,17.68525 C72.2981829,18.24275 63.8479391,23.06525 58.3433789,30.27275 C59.9253201,33.58025 61.1204543,37.09275 61.8767115,40.74525 C65.5910498,30.96025 75.0008723,23.99525 85.992636,23.99525 C87.3142263,23.99525 88.6358167,24.09775 89.9226936,24.30025 L89.4119101,27.61275 C88.2936413,27.43775 87.1431386,27.34775 85.992636,27.34775 C73.5949779,27.34775 63.5082433,37.52025 63.5082433,50.02275 C63.5082433,62.52275 73.5949779,72.69275 85.992636,72.69275 C87.1431386,72.69275 88.2936413,72.60275 89.4119101,72.42775 L89.9226936,75.73775 C88.6358167,75.94275 87.3142263,76.04525 85.992636,76.04525 C75.0033519,76.04525 65.5960089,69.08275 61.879191,59.30525 C61.1254134,62.95275 59.9352382,66.46025 58.3607356,69.76275 C63.8157052,76.90275 72.1593291,81.71525 81.6708124,82.34275 L81.4526136,85.68775 C71.4898556,85.02775 62.6850388,80.21025 56.664736,72.98025 C55.2563621,75.42275 53.6248303,77.72525 51.799895,79.86275 C56.818467,84.96525 63.1511907,88.82025 70.3418324,90.82525 L69.4566396,94.05525 C61.7403372,91.90275 54.9414615,87.78275 49.5385622,82.32025 C44.1356628,87.78275 37.3367871,91.90525 29.6204847,94.05525 L29.6204847,94.05525 Z" fill="#FFFFFF"></path>
                <mask id="mask-2" fill="white">
                    <use xlink:href="#path-1"></use>
                </mask>
                <g></g>
                <polygon fill="#FFFFFF" mask="url(#mask-2)" points="2.46217489 51.9125 96.6273471 51.9125 96.6273471 48.12 2.46217489 48.12"></polygon>
            </g>
        </g>
    </g>
</svg>