<?xml version="1.0" encoding="UTF-8"?>
<svg width="24px" height="30px" viewBox="0 0 24 30" version="1.1" xmlns="http://www.w3.org/2000/svg" xmlns:xlink="http://www.w3.org/1999/xlink">
    <!-- Generator: Sketch 43.2 (39069) - http://www.bohemiancoding.com/sketch -->
    <title>location-icon</title>
    <desc>Created with Sketch.</desc>
    <defs></defs>
    <g id="layouts" stroke="none" stroke-width="1" fill="none" fill-rule="evenodd">
        <g id="lisaa-havainto-tuulivahinko-5" transform="translate(-176.000000, -549.000000)" fill="#F6236C">
            <g id="havainto-1" transform="translate(15.000000, 114.000000)">
                <g id="map" transform="translate(0.000000, 381.000000)">
                    <g id="location-icon" transform="translate(161.000000, 54.000000)">
                        <path d="M11.988,16.7066201 C9.40246154,16.7066201 7.308,14.6064967 7.308,12.015111 C7.308,9.42557566 9.40246154,7.32452714 11.988,7.32452714 C14.5726154,7.32452714 16.668,9.42557566 16.668,12.015111 C16.668,14.6064967 14.5726154,16.7066201 11.988,16.7066201 M11.9926154,0 C5.36953846,0 0,5.38168174 0,12.0215872 C0,14.4834498 0.740307692,16.7695313 2.00769231,18.6772204 C2.03169231,18.7262541 2.02615385,18.7752878 2.06215385,18.8224712 C2.48307692,19.3692434 7.21753846,25.2606908 9.63876923,28.2665502 L9.66553846,28.2665502 C10.2267692,28.9335938 11.0556923,29.3665707 11.9935385,29.3665707 C12.9313846,29.3665707 13.7612308,28.9335938 14.3215385,28.2665502 L14.3446154,28.2665502 C16.8018462,25.2079564 21.6046154,19.2286184 21.9073846,18.8474507 C21.9470769,18.7974918 21.9369231,18.7503084 21.9636923,18.7003495 C23.2393846,16.7898849 23.9861538,14.4927015 23.9861538,12.0215872 C23.9861538,5.38168174 18.6166154,0 11.9926154,0"></path>
                    </g>
                </g>
            </g>
        </g>
    </g>
</svg>