<?xml version="1.0" encoding="UTF-8" standalone="no"?>
<svg width="19px" height="26px" viewBox="0 0 19 26" version="1.1" xmlns="http://www.w3.org/2000/svg" xmlns:xlink="http://www.w3.org/1999/xlink">
    <!-- Generator: Sketch 3.8.2 (29753) - http://www.bohemiancoding.com/sketch -->
    <title>location-icon</title>
    <desc>Created with Sketch.</desc>
    <defs></defs>
    <g id="layouts" stroke="none" stroke-width="1" fill="none" fill-rule="evenodd" fill-opacity="0.900000036">
        <g id="etusivu-mobile-portrait" transform="translate(-176.000000, -986.000000)" fill="#15124E">
            <g id="sadetutka" transform="translate(0.000000, 762.000000)">
                <g transform="translate(0.000000, 21.000000)" id="location-icon">
                    <g transform="translate(174.000000, 202.000000)">
                        <path d="M11.4991748,15.5434496 C8.77852291,15.5434496 6.56456853,13.3126735 6.56456853,10.57135 C6.56456853,7.83002648 8.77852291,5.59925036 11.4991748,5.59925036 C14.2201567,5.59925036 16.4341111,7.83002648 16.4341111,10.57135 C16.4341111,13.3126735 14.2201567,15.5434496 11.4991748,15.5434496 M11.4991748,1 C6.26154033,1 2,5.29391974 2,10.57135 C2,11.9486638 2.27992147,13.2634481 2.83052173,14.4794489 C5.20556299,19.7153036 9.75989854,25.2448478 11.0994284,26.8144069 C11.1987873,26.9324814 11.3456801,27 11.4991748,27 C11.6539898,27 11.7998923,26.9324814 11.9002415,26.8144069 C13.2387811,25.2448478 17.7931166,19.716634 20.1681579,14.4794489 C20.7200785,13.2634481 21,11.9486638 21,10.57135 C20.9986796,5.29391974 16.7371393,1 11.4991748,1" id="location"></path>
                    </g>
                </g>
            </g>
        </g>
    </g>
</svg>