<?xml version="1.0" encoding="UTF-8"?>
<svg width="50px" height="50px" viewBox="0 0 50 50" version="1.1" xmlns="http://www.w3.org/2000/svg" xmlns:xlink="http://www.w3.org/1999/xlink">
    <!-- Generator: Sketch 43.2 (39069) - http://www.bohemiancoding.com/sketch -->
    <title>plus-icon</title>
    <desc>Created with Sketch.</desc>
    <defs></defs>
    <g id="layouts" stroke="none" stroke-width="1" fill="none" fill-rule="evenodd">
        <g id="plus-icon" fill-rule="nonzero" fill="#3559B9">
            <g id="icon" transform="translate(15.000000, 15.000000)">
                <path d="M9,9 L1.66666667,9 C1.11438192,9 0.666666667,9.44771525 0.666666667,10 C0.666666667,10.5522847 1.11438192,11 1.66666667,11 L9,11 L9,18.3333333 C9,18.8856181 9.44771525,19.3333333 10,19.3333333 C10.5522847,19.3333333 11,18.8856181 11,18.3333333 L11,11 L18.3333333,11 C18.8856181,11 19.3333333,10.5522847 19.3333333,10 C19.3333333,9.44771525 18.8856181,9 18.3333333,9 L11,9 L11,1.66666667 C11,1.11438192 10.5522847,0.666666667 10,0.666666667 C9.44771525,0.666666667 9,1.11438192 9,1.66666667 L9,9 Z" id="Line"></path>
            </g>
        </g>
    </g>
</svg>