<?xml version="1.0" encoding="UTF-8"?>
<svg width="40px" height="40px" viewBox="0 0 40 40" version="1.1" xmlns="http://www.w3.org/2000/svg" xmlns:xlink="http://www.w3.org/1999/xlink">
    <!-- Generator: Sketch 55.2 (78181) - https://sketchapp.com -->
    <title>user-icon</title>
    <desc>Created with Sketch.</desc>
    <g id="user-icon" stroke="none" stroke-width="1" fill="none" fill-rule="evenodd">
        <g transform="translate(4.000000, 8.000000)" fill="#3559B9">
            <path d="M22.8469063,14.4735837 L22.8590743,15.7447486 C22.862374,15.8143433 22.8642302,15.8841502 22.8642302,15.9543815 C22.8642302,15.9864205 22.8625803,16.017823 22.8619616,16.0496499 L22.8504123,16.2798642 C22.6887225,18.3587948 20.9936604,20 18.9321151,20 C16.7639453,20 15,18.1852323 15,15.9543815 C15,15.162317 15.2231485,14.4232973 15.607368,13.7984299 C15.6416034,13.7426268 15.6774886,13.6876724 15.714405,13.6335667 L18.4907679,9.35752175 C18.8582822,8.55612137 19.6485825,8 20.5671622,8 C21.8359324,8 22.8642302,9.05813707 22.8642302,10.3632506 C22.8642302,10.5349035 22.8151458,11.1555273 22.8151458,11.1555273 C22.8151458,11.1555273 23.1756427,11.0917523 23.5146428,11.0917523 C23.853643,11.0917523 24.1848542,11.1555273 24.1848542,11.1555273 C24.1848542,11.1555273 24.1355636,10.5349035 24.1355636,10.3632506 C24.1355636,9.05813707 25.1640676,8 26.4326315,8 C27.3512113,8 28.1415115,8.55612137 28.5112945,9.35688521 L31.285595,13.6335667 L31.392632,13.7986421 C31.7766453,14.4232973 32,15.162317 32,15.9543815 C32,18.1852323 30.2360547,20 28.0678849,20 C26.0061334,20 24.3112775,18.3587948 24.1355636,16.3004456 L24.1380384,16.0496499 C24.1372135,16.017823 24.1355636,15.9864205 24.1355636,15.9543815 C24.1355636,15.8841502 24.1374197,15.8143433 24.1409257,15.7447486 L24.1530937,14.4735837 C24.1530937,14.4735837 23.8444442,14.4098087 23.5146428,14.4098087 C23.1848415,14.4098087 22.8469063,14.4735837 22.8469063,14.4735837 Z M19,19 C20.6532791,19 22,17.6532805 22,16.0001059 C22,14.3467439 20.6533036,13 19,13 C17.3466964,13 16,14.3467439 16,16.0001059 C16,17.6532805 17.3467209,19 19,19 Z M28,19 C29.6532791,19 31,17.6532805 31,16.0001059 C31,14.3467439 29.6533036,13 28,13 C26.3466964,13 25,14.3467439 25,16.0001059 C25,17.6532805 26.3467209,19 28,19 Z" id="Combined-Shape"></path>
            <path d="M11,10 C9.61581229,10 8.43644555,9.50774051 7.46186441,8.52320675 C6.48728326,7.538673 6,6.35725021 6,4.97890295 C6,3.62868523 6.48728326,2.461327 7.46186441,1.47679325 C8.43644555,0.492259494 9.61581229,0 11,0 C12.3841877,0 13.5635544,0.492259494 14.5381356,1.47679325 C15.5127167,2.461327 16,3.62868523 16,4.97890295 C16,6.35725021 15.5127167,7.538673 14.5381356,8.52320675 C13.5635544,9.50774051 12.3841877,10 11,10 Z" id="Path" fill-rule="nonzero"></path>
            <path d="M14.1355762,12.4980711 C13.423816,13.4844134 13.0039113,14.6944061 13.0039113,16 C13.0039113,19.3062326 15.6973531,21.9995765 19.0039113,21.9995765 C19.9898956,21.9995765 20.921363,21.7600909 21.743155,21.3362817 C21.9143855,22.1930529 22,23.0809564 22,24 L0,24 C0,22.3389747 0.27965822,20.7796683 0.838983051,19.3220339 C1.42938148,17.8643995 2.22174644,16.5932258 3.21610169,15.5084746 C4.21045695,14.4237234 5.37569953,13.5762742 6.71186441,12.9661017 C8.04802928,12.3220307 9.47739352,12 11,12 C12.0932577,12 13.1384444,12.1660225 14.1355762,12.4980711 L14.1355762,12.4980711 Z" id="Path" fill-rule="nonzero"></path>
        </g>
    </g>
</svg>