<svg width="512" height="512" viewBox="25 25 462 462" xmlns="http://www.w3.org/2000/svg"><g fill="none"><path d="M133 259c-35.899 0-65-29.101-65-65s29.101-65 65-65 65 29.101 65 65-29.101 65-65 65z" fill="#4CD7FF"/><path d="M133 247c29.271 0 53-23.729 53-53s-23.729-53-53-53-53 23.729-53 53 23.729 53 53 53zm0 12c-35.899 0-65-29.101-65-65s29.101-65 65-65 65 29.101 65 65-29.101 65-65 65z" fill="#78EBFF"/><path d="M385 249.707c-1.6 0-4.413.308-7.705.818l-12.314 1.906-4.132-11.755C352.766 217.684 331.389 202 307 202c-29.935 0-54.703 23.118-57.047 52.773l-1.092 13.818H231c-18.802 0-34 14.833-34 33.055C197 319.96 212.279 335 231 335h153c23.708 0 43-19.138 43-42.646 0-23.782-18.565-42.647-42-42.647zm0-15c31.91 0 57 25.773 57 57.647S415.91 350 384 350H231c-26.892 0-49-21.643-49-48.354 0-26.705 22.113-48.055 49-48.055h4C237.931 216.495 268.88 187 307 187c31.67 0 58.12 20.597 68 48.701 2.908-.45 6.966-.994 10-.994z" fill="#FFF"/></g></svg>