<svg width="512" height="512" viewBox="25 25 462 462" xmlns="http://www.w3.org/2000/svg"><g fill="none" fill-rule="evenodd"><path d="M112.247 255.617C86.525 246.957 68 222.642 68 194c0-35.899 29.101-65 65-65 28.168 0 52.151 17.917 61.174 42.977L170 206l-5 31h-37l-15.753 18.617z" fill="#4CD7FF" fill-rule="nonzero"/><path d="M194.174 171.977l-11.29 4.065C175.376 155.19 155.532 141 133 141c-29.271 0-53 23.729-53 53 0 22.929 14.695 43.046 36.076 50.244l-3.829 11.373C86.525 246.957 68 222.642 68 194c0-35.899 29.101-65 65-65 28.168 0 52.151 17.917 61.174 42.977z" fill="#78EBFF"/><path d="M249.87 156c-40.542 0-74.223 31.123-77.593 71.255L171.122 241h-19.119C126.039 241 105 262.04 105 288c0 25.962 21.04 47 47.003 47H349c32.585 0 59-26.415 59-59s-26.415-59-59-59c-3.117 0-6.198.24-9.226.715l-12.31 1.93-4.155-11.748C312.4 177.046 283.137 156 249.871 156zm0-15c40.431 0 74.827 25.83 87.581 61.896A74.52 74.52 0 0 1 349 202c40.87 0 74 33.13 74 74s-33.13 74-74 74H152.003C117.76 350 90 322.25 90 288c0-34.242 27.751-62 62.003-62h5.326c3.998-47.608 43.907-85 92.542-85z" fill-rule="nonzero" fill="#FFF"/><path d="M346.52 389.225a9.33 9.33 0 0 0-17.534-6.381l-11.913 32.729a9.33 9.33 0 0 0 17.534 6.381l11.912-32.729zm-24.251 66.627a9.33 9.33 0 0 0-17.533-6.382l-4.255 11.69a9.33 9.33 0 1 0 17.534 6.38l4.254-11.688zM265.77 467.54a9.33 9.33 0 1 1-17.533-6.38l11.913-32.73a9.33 9.33 0 0 1 17.533 6.382l-11.912 32.729zm24.25-66.626a9.33 9.33 0 0 1-17.533-6.381l4.255-11.69a9.33 9.33 0 1 1 17.533 6.382l-4.254 11.69zm-47.989-11.689a9.33 9.33 0 0 0-17.533-6.381l-11.912 32.729a9.33 9.33 0 0 0 17.533 6.381l11.912-32.729zm-24.25 66.627a9.33 9.33 0 0 0-17.533-6.382l-4.254 11.69a9.33 9.33 0 1 0 17.533 6.38l4.254-11.688zm-56.498 11.688a9.33 9.33 0 0 1-17.533-6.38l11.912-32.73a9.33 9.33 0 0 1 17.533 6.382l-11.912 32.729zm24.25-66.626A9.33 9.33 0 0 1 168 394.533l4.254-11.69a9.33 9.33 0 1 1 17.533 6.382l-4.254 11.69z" fill="#00D7FF" fill-rule="nonzero"/></g></svg>