<svg width="512" height="512" viewBox="25 25 462 462" xmlns="http://www.w3.org/2000/svg"><g fill="#FFF" fill-rule="evenodd"><path d="M310.975 196.63l-13.74 6.02C284.92 174.54 257.098 156 225.871 156c-40.543 0-74.224 31.123-77.594 71.255L147.122 241h-19.119C102.039 241 81 262.04 81 288c0 25.962 21.04 47 47.003 47h143.853v15H128.003C93.76 350 66 322.25 66 288c0-34.242 27.751-62 62.003-62h5.326c3.998-47.608 43.907-85 92.542-85 38.048 0 70.752 22.875 85.104 55.63z"/><path d="M321.904 205c-29.377 0-53.76 22.437-56.196 51.332l-1.16 13.74h-17.882c-18.06 0-32.666 14.546-32.666 32.464C214 320.455 228.609 335 246.666 335h151.445C421.26 335 440 316.338 440 293.35c0-22.99-18.74-41.651-41.889-41.651-2.22 0-4.412.17-6.565.506l-12.287 1.917-4.161-11.718C367.205 220.178 346.012 205 321.904 205zm0-15c31.081 0 57.524 19.774 67.329 47.384a57.552 57.552 0 0 1 8.878-.685c31.419 0 56.889 25.363 56.889 56.65C455 324.637 429.53 350 398.111 350H246.666C220.341 350 199 328.755 199 302.536c0-26.214 21.334-47.464 47.666-47.464h4.095C253.834 218.626 284.514 190 321.904 190zM155 412l24.75-13.994a7.5 7.5 0 0 1 7.499 12.99l-24.252 14.005 24.252 14.005a7.5 7.5 0 0 1-7.498 12.99L155 438v28.5a7.5 7.5 0 0 1-15 0V438l-23.75 13.996a7.5 7.5 0 0 1-7.499-12.99l24.252-14.005-24.252-14.005a7.5 7.5 0 0 1 7.498-12.99L140 412v-27.5a7.5 7.5 0 0 1 15 0V412zm108 0l24.75-13.994a7.5 7.5 0 0 1 7.499 12.99l-24.252 14.005 24.252 14.005a7.5 7.5 0 0 1-7.498 12.99L263 438v28.5a7.5 7.5 0 1 1-15 0V438l-23.75 13.996a7.5 7.5 0 0 1-7.499-12.99l24.252-14.005-24.252-14.005a7.5 7.5 0 0 1 7.498-12.99L248 412v-27.5a7.5 7.5 0 1 1 15 0V412zm108 0l24.75-13.994a7.5 7.5 0 0 1 7.499 12.99l-24.252 14.005 24.252 14.005a7.5 7.5 0 0 1-7.498 12.99L371 438v28.5a7.5 7.5 0 1 1-15 0V438l-23.75 13.996a7.5 7.5 0 0 1-7.499-12.99l24.252-14.005-24.252-14.005a7.5 7.5 0 0 1 7.498-12.99L356 412v-27.5a7.5 7.5 0 1 1 15 0V412z" fill-rule="nonzero"/></g></svg>