<svg width="512" height="512" viewBox="25 25 462 462" xmlns="http://www.w3.org/2000/svg"><g fill="none" fill-rule="evenodd"><g fill="#FFF"><path d="M311.152 197.038l-13.768 5.953C285.15 174.7 257.232 156 225.87 156c-40.543 0-74.224 31.123-77.594 71.255L147.122 241h-19.119C102.039 241 81 262.04 81 288c0 25.962 21.04 47 47.003 47h116.145v15H128.003C93.76 350 66 322.25 66 288c0-34.242 27.751-62 62.003-62h5.326c3.998-47.608 43.907-85 92.542-85 38.205 0 71.023 23.065 85.28 56.038z"/><g transform="translate(199 190)"><path d="M187.755 160v-15h11.356C222.26 145 241 126.338 241 103.35c0-22.99-18.74-41.651-41.889-41.651-2.22 0-4.412.17-6.565.506l-12.287 1.917-4.161-11.718C168.205 30.178 147.012 15 122.904 15c-29.377 0-53.76 22.437-56.196 51.332l-1.16 13.74H47.667C29.606 80.072 15 94.618 15 112.536 15 130.455 29.609 145 47.666 145h4.409v15h-4.409C21.341 160 0 138.755 0 112.536c0-26.214 21.334-47.464 47.666-47.464h4.095C54.834 28.626 85.514 0 122.904 0c31.081 0 57.524 19.774 67.329 47.384a57.552 57.552 0 0 1 8.878-.685c31.419 0 56.889 25.363 56.889 56.65C256 134.637 230.53 160 199.111 160h-11.356zm0 0v-15h11.356C222.26 145 241 126.338 241 103.35c0-22.99-18.74-41.651-41.889-41.651-2.22 0-4.412.17-6.565.506l-12.287 1.917-4.161-11.718C168.205 30.178 147.012 15 122.904 15c-29.377 0-53.76 22.437-56.196 51.332l-1.16 13.74H47.667C29.606 80.072 15 94.618 15 112.536 15 130.455 29.609 145 47.666 145h4.409v15h-4.409C21.341 160 0 138.755 0 112.536c0-26.214 21.334-47.464 47.666-47.464h4.095C54.834 28.626 85.514 0 122.904 0c31.081 0 57.524 19.774 67.329 47.384a57.552 57.552 0 0 1 8.878-.685c31.419 0 56.889 25.363 56.889 56.65C256 134.637 230.53 160 199.111 160h-11.356z" fill-rule="nonzero"/><circle cx="52.5" cy="152.5" r="7.5"/><circle cx="187.5" cy="152.5" r="7.5"/></g></g><path fill="#FED731" d="M297 247l-29 103h50l-28 125 98-163h-53l29-65z"/><path d="M348.588 257h-44.015l-23.369 83h49.284l-17.226 76.902L370.32 322h-50.732l29-65zM318 350h-50l29-103h67l-29 65h53l-98 163 28-125z" fill="#FEEA39" fill-rule="nonzero"/></g></svg>