<svg width="512" height="512" viewBox="25 25 462 462" xmlns="http://www.w3.org/2000/svg"><g fill="none" fill-rule="evenodd"><path d="M97.8 246.94A46.78 46.78 0 0 1 90 221c0-25.957 21.043-47 47-47a46.782 46.782 0 0 1 24.01 6.587L150 196l-11 38-27 3-14.2 9.94z" fill="#FED731" fill-rule="nonzero"/><path d="M106.367 237.947C103.52 232.82 102 227.035 102 221c0-19.33 15.67-35 35-35a34.813 34.813 0 0 1 15.443 3.58l8.566-8.993A46.782 46.782 0 0 0 137 174c-25.957 0-47 21.043-47 47a46.78 46.78 0 0 0 7.8 25.94l8.567-8.993z" fill="#FEEA39"/><rect width="45" height="16" rx="8" transform="translate(30 213)" fill="#FEEA39"/><rect width="45" height="16" rx="8" transform="rotate(45 -135.114 150.713)" fill="#FEEA39"/><rect width="16" height="45" rx="8" transform="translate(129 114)" fill="#FEEA39"/><g transform="translate(66 141)" fill="#FFF"><path d="M227.39 54.026C213.757 30.341 188.273 15 159.87 15c-40.542 0-74.223 31.123-77.593 71.255L81.122 100H62.003C36.039 100 15 121.04 15 147c0 25.962 21.04 47 47.003 47H98v15H62.003C27.76 209 0 181.25 0 147c0-34.242 27.751-62 62.003-62h5.326c3.998-47.608 43.907-85 92.542-85 35.862 0 66.977 20.323 82.451 50.086A85.493 85.493 0 0 1 256 49c31.081 0 57.428 19.774 67.233 47.384a57.552 57.552 0 0 1 8.878-.685c31.419 0 56.889 25.363 56.889 56.65C389 183.637 363.53 209 332.111 209H282.17v-15h49.942C355.26 194 374 175.338 374 152.35c0-22.99-18.74-41.651-41.889-41.651-2.22 0-4.412.17-6.565.506l-12.287 1.917-4.161-11.718C301.196 79.152 280.082 64 256 64c-30.884 0-53.738 18.806-56.053 46.26L198.788 124H185c-14.218 0-30.042 12.397-33.547 25.015L137 145c5-18 25.928-36 48-36 2.236-26.52 19.013-46.213 42.39-54.974z"/><circle cx="281.5" cy="201.5" r="7.5"/><circle cx="97.5" cy="201.5" r="7.5"/><circle cx="144.5" cy="146.5" r="7.5"/></g><path d="M350.302 410.485l-7.569 4.369a5.822 5.822 0 1 1-5.82-10.085l7.44-4.295-7.44-4.295a5.822 5.822 0 1 1 5.82-10.084l7.57 4.368v-8.641a5.822 5.822 0 1 1 11.643 0v8.498l7.32-4.225a5.822 5.822 0 1 1 5.821 10.084l-7.44 4.295 7.44 4.295a5.822 5.822 0 1 1-5.82 10.085l-7.321-4.226v8.55a5.822 5.822 0 0 1-11.644 0v-8.693zm-66.935-48.88l-17.104 9.95c-3.273 1.904-7.457.773-9.346-2.525-1.889-3.298-.767-7.515 2.506-9.419l17.102-9.536-17.102-10.118c-3.273-1.904-4.395-6.12-2.506-9.419 1.89-3.298 6.073-4.429 9.346-2.525l17.104 9.95v-20.067c0-3.809 3.063-6.896 6.841-6.896 3.779 0 6.842 3.087 6.842 6.896v19.825l16.687-9.708c3.273-1.904 7.457-.773 9.346 2.525 1.889 3.298.767 7.515-2.506 9.42l-16.686 10.117 16.686 9.536c3.273 1.904 4.395 6.12 2.506 9.42-1.89 3.297-6.073 4.428-9.346 2.524l-16.687-9.708v19.257c0 3.809-3.063 6.896-6.842 6.896-3.778 0-6.841-3.087-6.841-6.896v-19.5zm.585 91.399l-15.595 9.046a6.221 6.221 0 0 1-8.52-2.295c-1.723-2.999-.7-6.833 2.284-8.563l15.593-8.67-15.593-9.197c-2.984-1.731-4.007-5.565-2.285-8.563a6.221 6.221 0 0 1 8.521-2.296l15.595 9.046V413.27c0-3.462 2.793-6.269 6.238-6.269 3.445 0 6.238 2.807 6.238 6.269v18.023l15.215-8.826a6.221 6.221 0 0 1 8.52 2.296c1.723 2.998.7 6.832-2.284 8.563l-15.214 9.197 15.214 8.67c2.984 1.73 4.007 5.564 2.285 8.563a6.221 6.221 0 0 1-8.521 2.295l-15.215-8.825v17.506c0 3.462-2.793 6.269-6.238 6.269-3.445 0-6.238-2.807-6.238-6.269v-17.727z" fill="#FFF" fill-rule="nonzero"/><path d="M167.416 403.806A16.247 16.247 0 0 1 169 410.83c0 8.93-7.163 16.17-16 16.17s-16-7.24-16-16.17c0-2.474.55-4.818 1.533-6.915l8.96-23.05c3.04-7.817 7.963-7.823 11.004 0l8.919 22.941zm64.109-48.488A24.676 24.676 0 0 1 234 366.124C234 379.862 222.807 391 209 391s-25-11.138-25-24.876c0-3.807.86-7.414 2.395-10.64l14.001-35.461c4.748-12.026 12.442-12.035 17.194 0l13.935 35.295zm-2.703 90.46a21.49 21.49 0 0 1 2.178 9.455c0 12.022-9.85 21.767-22 21.767s-22-9.745-22-21.767c0-3.33.756-6.487 2.108-9.31l12.32-31.028c4.179-10.522 10.95-10.53 15.13 0l12.264 30.883z" fill="#00D7FF"/></g></svg>