<svg width="512" height="512" viewBox="25 25 462 462" xmlns="http://www.w3.org/2000/svg"><g fill="none" fill-rule="evenodd"><path d="M178.267 203.313c-4.432 3.575-7.267 9.05-7.267 15.187 0 .847.054 1.682.159 2.501C162.738 233.66 148.343 242 132 242c-25.957 0-47-21.043-47-47s21.043-47 47-47 47 21.043 47 47a47.24 47.24 0 0 1-.733 8.313z" fill="#FED731" fill-rule="nonzero"/><path d="M132 230c19.33 0 35-15.67 35-35s-15.67-35-35-35-35 15.67-35 35 15.67 35 35 35zm46.267-26.687c-4.432 3.575-7.267 9.05-7.267 15.187 0 .847.054 1.682.159 2.501C162.738 233.66 148.343 242 132 242c-25.957 0-47-21.043-47-47s21.043-47 47-47 47 21.043 47 47a47.24 47.24 0 0 1-.733 8.313z" fill="#FEEA39" fill-rule="nonzero"/><rect width="45" height="16" rx="8" transform="translate(25 187)" fill="#FEEA39"/><g transform="rotate(-45 345.229 71.322)" fill="#FEEA39"><rect width="45" height="16" rx="8"/><rect x="169" width="45" height="16" rx="8"/></g><rect width="45" height="16" rx="8" transform="rotate(45 -106.229 131.678)" fill="#FEEA39"/><rect width="16" height="45" rx="8" transform="translate(124 88)" fill="#FEEA39"/><path d="M408 276c0-32.585-26.415-59-59-59-3.117 0-6.198.24-9.226.715l-12.31 1.93-4.155-11.748C312.4 177.046 283.137 156 249.871 156c-40.543 0-74.224 31.123-77.594 71.255L171.122 241h-19.119C126.039 241 105 262.04 105 288c0 25.962 21.04 47 47.003 47H209c3.909.274 7 3.526 7 7.5a7.5 7.5 0 0 1-7 7.484l-56.997.016C117.76 350 90 322.25 90 288c0-34.242 27.751-62 62.003-62h5.326c3.998-47.608 43.907-85 92.542-85 40.43 0 74.826 25.83 87.58 61.896A74.52 74.52 0 0 1 349 202c40.87 0 74 33.13 74 74 0 39.864-31.522 72.366-71 73.94-4.642-.04-8-3.398-8-7.54a7.5 7.5 0 0 1 7.5-7.5c31.81-1.576 56.5-27.433 56.5-58.9z" fill-rule="nonzero" fill="#FFF"/><path fill="#FED731" d="M258 247l-29 103h50l-28 125 98-163h-53l29-65z"/><path d="M309.588 257h-44.015l-23.369 83h49.284l-17.226 76.902L331.32 322h-50.732l29-65zM279 350h-50l29-103h67l-29 65h53l-98 163 28-125z" fill="#FEEA39" fill-rule="nonzero"/></g></svg>